<svg width="68" height="68" viewBox="0 0 68 68" fill="none" xmlns="http://www.w3.org/2000/svg">
<path d="M31 16.5L31 17.5L20 17.5L20 16.5L31 16.5Z" fill="#454545"/>
<circle cx="33" cy="17" r="3" fill="#697EED"/>
<path d="M32.5 18.5H33.5V31.5H32.5V18.5Z" fill="#697EED"/>
<path d="M32.5 35.5H33.5V48.5H32.5V35.5Z" fill="#697EED"/>
<path d="M31 32.5L31 33.5L20 33.5L20 32.5L31 32.5Z" fill="#454545"/>
<path d="M47 32.5L47 33.5L35 33.5L35 32.5L47 32.5Z" fill="#454545"/>
<circle cx="33" cy="33" r="3" fill="#697EED"/>
<circle cx="49" cy="49" r="2.5" stroke="#454545"/>
<circle cx="49" cy="33" r="2.5" stroke="#454545"/>
<circle cx="18" cy="33" r="2.5" stroke="#454545"/>
<path d="M17.5 19H18.5V31H17.5V19Z" fill="#454545"/>
<path d="M48.5 36H49.5V46H48.5V36Z" fill="#454545"/>
<path d="M46.5 48.5L46.5 49.5L35.5 49.5L35.5 48.5L46.5 48.5Z" fill="#454545"/>
<circle cx="18" cy="17" r="2.5" stroke="#454545"/>
<circle cx="34" cy="34" r="33.5" stroke="#454545"/>
<circle cx="33" cy="49" r="3" fill="#697EED"/>
</svg>
