<svg width="69" height="68" viewBox="0 0 69 68" fill="none" xmlns="http://www.w3.org/2000/svg">
<circle cx="34.5" cy="34" r="33.5" stroke="#454545"/>
<circle cx="34.7343" cy="34.2343" r="21.5414" stroke="#454545"/>
<path d="M56.2756 33.9998C56.2756 35.0875 55.7464 36.1695 54.6934 37.2024C53.6386 38.2371 52.0866 39.1919 50.1283 40.0043C46.2138 41.6284 40.7715 42.6446 34.7343 42.6446C28.697 42.6446 23.2547 41.6284 19.3403 40.0043C17.3819 39.1919 15.8299 38.2371 14.7751 37.2024C13.7221 36.1695 13.1929 35.0875 13.1929 33.9998C13.1929 32.9121 13.7221 31.8301 14.7751 30.7972C15.8299 29.7625 17.3819 28.8078 19.3403 27.9953C23.2547 26.3712 28.697 25.355 34.7343 25.355C40.7715 25.355 46.2138 26.3712 50.1283 27.9953C52.0866 28.8078 53.6386 29.7625 54.6934 30.7972C55.7464 31.8301 56.2756 32.9121 56.2756 33.9998Z" stroke="#697EED"/>
<path d="M34.9689 55.3071C34.4303 55.3071 33.7895 54.889 33.1104 53.8088C32.4471 52.754 31.8313 51.1945 31.307 49.2228C30.2602 45.2869 29.6068 39.8218 29.6068 33.7657C29.6068 27.7097 30.2602 22.2446 31.307 18.3086C31.8313 16.337 32.4471 14.7775 33.1104 13.7226C33.7896 12.6425 34.4303 12.2244 34.9689 12.2244C35.5074 12.2244 36.1482 12.6425 36.8274 13.7226C37.4906 14.7775 38.1064 16.337 38.6308 18.3086C39.6776 22.2446 40.3309 27.7097 40.3309 33.7657C40.3309 39.8218 39.6776 45.2869 38.6308 49.2228C38.1064 51.1945 37.4906 52.754 36.8274 53.8088C36.1482 54.889 35.5074 55.3071 34.9689 55.3071Z" stroke="#697EED"/>
</svg>
