<svg width="222" height="53" viewBox="0 0 222 53" fill="none" xmlns="http://www.w3.org/2000/svg">
<path d="M214.356 44.2866C211.614 30.6923 197.677 11.6146 177.8 6.13124C191.964 9.6974 210.3 28.3504 214.356 44.2866ZM187.224 7.10226C197.734 12.3572 208.53 23.1526 213.613 34.6335C209.081 26.5995 202.018 15.7272 187.224 7.10226Z" stroke="white" stroke-width="0.6"/>
<g clip-path="url(#clip0_5_3080)">
<path fill-rule="evenodd" clip-rule="evenodd" d="M15.373 19.0746C12.2893 19.3665 9.27815 20.5435 6.74289 22.4481C5.89767 23.083 4.45951 24.4806 3.76524 25.3418C-0.894424 31.1219 -1.25833 39.2781 2.86822 45.4458C4.14116 47.3484 6.10081 49.2422 8.03782 50.4419C12.6299 53.286 18.2097 53.7791 23.3018 51.791C27.3462 50.2118 30.8721 46.7865 32.6012 42.7568C33.3321 41.0534 33.9336 38.6064 33.9336 37.3363C33.9336 37.1492 33.9635 36.9961 34 36.9961C34.0416 36.9961 34.066 36.5929 34.0654 35.917C34.0647 35.1958 34.043 34.8709 34 34.9375C33.954 35.0087 33.9353 34.9352 33.9346 34.6804C33.9322 33.8348 33.5976 32.1035 33.1902 30.8295C32.0005 27.1079 29.5736 23.9275 26.259 21.7461C23.1289 19.6863 19.1712 18.715 15.373 19.0746ZM13.9121 26.527C13.4811 26.7252 13.2813 27.1451 13.2813 27.8529C13.2813 28.558 13.299 28.5487 11.9078 28.5746C10.8782 28.5937 10.7492 28.6091 10.5839 28.7327C10.2388 28.9907 10.127 29.2062 10.127 29.6133C10.127 30.3296 10.5799 30.6834 11.5002 30.6861C11.8736 30.6871 12.0379 30.7154 12.1144 30.7919C12.2075 30.885 12.2188 31.4483 12.2188 35.9945C12.2188 40.7662 12.2113 41.0994 12.1025 41.1963C12.0201 41.2698 11.8091 41.3065 11.3769 41.3228C10.7208 41.3475 10.5484 41.4219 10.2639 41.803C10.0615 42.074 10.073 42.6646 10.2864 42.9639C10.5671 43.3574 10.8487 43.4343 12.0195 43.4371C12.5856 43.4385 13.0937 43.4679 13.1484 43.5025C13.2219 43.5488 13.2571 43.7398 13.2828 44.2291C13.3104 44.7571 13.3452 44.9299 13.4529 45.0742C13.7091 45.4174 13.9254 45.5293 14.332 45.5293C15.0483 45.5293 15.4021 45.0764 15.4048 44.1561C15.4068 43.4421 15.4139 43.4373 16.4569 43.4385C16.92 43.4391 17.3437 43.4679 17.3984 43.5025C17.4719 43.5488 17.5071 43.7398 17.5328 44.2291C17.5701 44.9417 17.6396 45.1072 18.0217 45.3924C18.2927 45.5948 18.8833 45.5833 19.1826 45.3699C19.5408 45.1144 19.6531 44.7803 19.6548 43.9649C19.6557 43.5051 19.6848 43.2283 19.7393 43.1608C19.7849 43.1043 20.0016 42.9576 20.2207 42.835C20.4398 42.7123 20.8134 42.416 21.0508 42.1764C21.8297 41.3905 22.2268 40.5078 22.2906 39.42C22.3527 38.3628 22.0712 37.471 21.3935 36.5776C21.205 36.3291 21.0508 36.0692 21.0508 36C21.0508 35.9309 21.2051 35.671 21.3937 35.4225C22.4381 34.0467 22.597 32.4057 21.8328 30.8869C21.4847 30.1951 20.7655 29.44 20.1372 29.1067C19.864 28.9618 19.7126 28.8376 19.6916 28.7414C19.6741 28.6613 19.6515 28.2617 19.6414 27.8533C19.6215 27.0497 19.5671 26.9073 19.1658 26.6077C18.9091 26.416 18.2803 26.4159 18.0175 26.6075C17.6956 26.8422 17.5313 27.2573 17.5313 27.8359C17.5313 28.5476 17.5089 28.5628 16.4635 28.5616C16.0099 28.561 15.5939 28.5322 15.5391 28.4976C15.4656 28.4512 15.4304 28.2603 15.4047 27.771C15.3677 27.0624 15.2972 26.8924 14.9257 26.615C14.7061 26.4511 14.177 26.4052 13.9121 26.527ZM14.4517 30.7884C14.357 30.883 14.3438 31.1323 14.3438 32.8125C14.3438 34.498 14.3568 34.7419 14.4524 34.8375C14.5491 34.9342 14.7828 34.9438 16.594 34.9252C18.5883 34.9047 18.6327 34.9014 18.9258 34.7461C19.4309 34.4785 19.6915 34.2307 19.9255 33.7951C20.1266 33.4205 20.15 33.3217 20.1509 32.8457C20.152 32.172 19.9754 31.7476 19.5141 31.3161C18.8914 30.7336 18.8431 30.7236 16.5601 30.7006C14.7848 30.6827 14.5474 30.6926 14.4517 30.7884ZM0.0270293 36C0.0270293 36.6027 0.0371231 36.8492 0.0494082 36.5479C0.0616934 36.2465 0.0616934 35.7535 0.0494082 35.4522C0.0371231 35.1509 0.0270293 35.3974 0.0270293 36ZM14.4517 37.1633C14.357 37.258 14.3438 37.5073 14.3438 39.1875C14.3438 40.873 14.3568 41.1169 14.4524 41.2125C14.5491 41.3092 14.7828 41.3188 16.594 41.3002C18.5883 41.2797 18.6327 41.2764 18.9258 41.1211C19.4309 40.8535 19.6915 40.6057 19.9255 40.1701C20.1266 39.7955 20.15 39.6967 20.1509 39.2207C20.152 38.547 19.9754 38.1226 19.5141 37.6911C18.8914 37.1086 18.8431 37.0986 16.5601 37.0756C14.7848 37.0577 14.5474 37.0676 14.4517 37.1633Z" fill="white"/>
</g>
<path d="M50.32 50V22H64C67.52 22 70.16 22.6667 71.92 24C73.7067 25.3333 74.6 27.0933 74.6 29.28C74.6 30.7467 74.24 32.0267 73.52 33.12C72.8 34.1867 71.8133 35.0133 70.56 35.6C69.3067 36.1867 67.8667 36.48 66.24 36.48L67 34.84C68.76 34.84 70.32 35.1333 71.68 35.72C73.04 36.28 74.0933 37.12 74.84 38.24C75.6133 39.36 76 40.7333 76 42.36C76 44.76 75.0533 46.64 73.16 48C71.2667 49.3333 68.48 50 64.8 50H50.32ZM56.76 45.12H64.32C66 45.12 67.2667 44.8533 68.12 44.32C69 43.76 69.44 42.88 69.44 41.68C69.44 40.5067 69 39.64 68.12 39.08C67.2667 38.4933 66 38.2 64.32 38.2H56.28V33.48H63.2C64.7733 33.48 65.9733 33.2133 66.8 32.68C67.6533 32.12 68.08 31.28 68.08 30.16C68.08 29.0667 67.6533 28.2533 66.8 27.72C65.9733 27.16 64.7733 26.88 63.2 26.88H56.76V45.12ZM80.4659 50V28.48H86.7059V50H80.4659ZM83.5859 25.48C82.4393 25.48 81.5059 25.1467 80.7859 24.48C80.0659 23.8133 79.7059 22.9867 79.7059 22C79.7059 21.0133 80.0659 20.1867 80.7859 19.52C81.5059 18.8533 82.4393 18.52 83.5859 18.52C84.7326 18.52 85.6659 18.84 86.3859 19.48C87.1059 20.0933 87.4659 20.8933 87.4659 21.88C87.4659 22.92 87.1059 23.7867 86.3859 24.48C85.6926 25.1467 84.7593 25.48 83.5859 25.48ZM101.297 50.32C98.7639 50.32 96.7905 49.68 95.3772 48.4C93.9639 47.0933 93.2572 45.16 93.2572 42.6V23.72H99.4972V42.52C99.4972 43.4267 99.7372 44.1333 100.217 44.64C100.697 45.12 101.351 45.36 102.177 45.36C103.164 45.36 104.004 45.0933 104.697 44.56L106.377 48.96C105.737 49.4133 104.964 49.76 104.057 50C103.177 50.2133 102.257 50.32 101.297 50.32ZM89.9372 33.76V28.96H104.857V33.76H89.9372ZM119.616 50.32C117.296 50.32 115.229 49.8533 113.416 48.92C111.603 47.96 110.176 46.64 109.136 44.96C108.123 43.28 107.616 41.3733 107.616 39.24C107.616 37.08 108.123 35.1733 109.136 33.52C110.176 31.84 111.603 30.5333 113.416 29.6C115.229 28.64 117.296 28.16 119.616 28.16C121.883 28.16 123.856 28.64 125.536 29.6C127.216 30.5333 128.456 31.88 129.256 33.64L124.416 36.24C123.856 35.2267 123.149 34.48 122.296 34C121.469 33.52 120.563 33.28 119.576 33.28C118.509 33.28 117.549 33.52 116.696 34C115.843 34.48 115.163 35.16 114.656 36.04C114.176 36.92 113.936 37.9867 113.936 39.24C113.936 40.4933 114.176 41.56 114.656 42.44C115.163 43.32 115.843 44 116.696 44.48C117.549 44.96 118.509 45.2 119.576 45.2C120.563 45.2 121.469 44.9733 122.296 44.52C123.149 44.04 123.856 43.28 124.416 42.24L129.256 44.88C128.456 46.6133 127.216 47.96 125.536 48.92C123.856 49.8533 121.883 50.32 119.616 50.32ZM142.815 50.32C140.522 50.32 138.482 49.84 136.695 48.88C134.935 47.92 133.535 46.6133 132.495 44.96C131.482 43.28 130.975 41.3733 130.975 39.24C130.975 37.08 131.482 35.1733 132.495 33.52C133.535 31.84 134.935 30.5333 136.695 29.6C138.482 28.64 140.522 28.16 142.815 28.16C145.082 28.16 147.109 28.64 148.895 29.6C150.682 30.5333 152.082 31.8267 153.095 33.48C154.109 35.1333 154.615 37.0533 154.615 39.24C154.615 41.3733 154.109 43.28 153.095 44.96C152.082 46.6133 150.682 47.92 148.895 48.88C147.109 49.84 145.082 50.32 142.815 50.32ZM142.815 45.2C143.855 45.2 144.789 44.96 145.615 44.48C146.442 44 147.095 43.32 147.575 42.44C148.055 41.5333 148.295 40.4667 148.295 39.24C148.295 37.9867 148.055 36.92 147.575 36.04C147.095 35.16 146.442 34.48 145.615 34C144.789 33.52 143.855 33.28 142.815 33.28C141.775 33.28 140.842 33.52 140.015 34C139.189 34.48 138.522 35.16 138.015 36.04C137.535 36.92 137.295 37.9867 137.295 39.24C137.295 40.4667 137.535 41.5333 138.015 42.44C138.522 43.32 139.189 44 140.015 44.48C140.842 44.96 141.775 45.2 142.815 45.2ZM158.786 50V28.48H165.026V50H158.786ZM161.906 25.48C160.76 25.48 159.826 25.1467 159.106 24.48C158.386 23.8133 158.026 22.9867 158.026 22C158.026 21.0133 158.386 20.1867 159.106 19.52C159.826 18.8533 160.76 18.52 161.906 18.52C163.053 18.52 163.986 18.84 164.706 19.48C165.426 20.0933 165.786 20.8933 165.786 21.88C165.786 22.92 165.426 23.7867 164.706 24.48C164.013 25.1467 163.08 25.48 161.906 25.48ZM183.898 28.16C185.604 28.16 187.124 28.5067 188.458 29.2C189.818 29.8667 190.884 30.9067 191.658 32.32C192.431 33.7067 192.818 35.4933 192.818 37.68V50H186.578V38.64C186.578 36.9067 186.191 35.6267 185.418 34.8C184.671 33.9733 183.604 33.56 182.218 33.56C181.231 33.56 180.338 33.7733 179.538 34.2C178.764 34.6 178.151 35.2267 177.698 36.08C177.271 36.9333 177.058 38.0267 177.058 39.36V50H170.818V28.48H176.778V34.44L175.658 32.64C176.431 31.2 177.538 30.0933 178.978 29.32C180.418 28.5467 182.058 28.16 183.898 28.16Z" fill="#697EED"/>
<defs>
<clipPath id="clip0_5_3080">
<rect width="34" height="34" fill="white" transform="translate(0 19)"/>
</clipPath>
</defs>
</svg>
