<svg width="237" height="53" viewBox="0 0 237 53" fill="none" xmlns="http://www.w3.org/2000/svg">
<path d="M229.642 44.2866C226.901 30.6923 212.964 11.6146 193.086 6.13124C207.25 9.6974 225.587 28.3504 229.642 44.2866ZM202.511 7.10226C213.021 12.3572 223.816 23.1526 228.9 34.6335C224.368 26.5995 217.305 15.7272 202.511 7.10226Z" stroke="white" stroke-width="0.6"/>
<path fill-rule="evenodd" clip-rule="evenodd" d="M15.9252 20.6331C15.8156 20.6485 15.4869 20.6927 15.1947 20.7315C11.8805 21.1709 8.81025 22.6982 6.39406 25.1093C4.06134 27.437 2.58619 30.3463 2.03356 33.709C1.8512 34.8185 1.86701 37.3276 2.0635 38.457C2.63513 41.7429 4.11307 44.6147 6.40747 46.898C8.74756 49.2266 11.6637 50.7054 14.9955 51.253C16.1321 51.4398 18.6214 51.421 19.7657 51.2169C22.0584 50.8081 23.9802 50.049 25.834 48.8198C29.4324 46.4338 31.8165 42.6903 32.5395 38.291C32.7263 37.1545 32.7075 34.6651 32.5035 33.5208C31.9333 30.3232 30.5705 27.5987 28.3834 25.2837C27.0403 23.8622 24.9083 22.4436 22.9311 21.6559C21.1936 20.9637 19.5898 20.6568 17.5522 20.6265C16.7669 20.6149 16.0348 20.6178 15.9252 20.6331ZM16.4565 22.9275C12.03 23.1666 7.9732 25.7497 5.78172 29.7247C4.72739 31.637 4.19913 33.7318 4.19913 36C4.19913 38.6945 4.91771 41.0782 6.39479 43.2835C8.48512 46.4043 11.7058 48.4298 15.4539 48.9809C16.4116 49.1218 18.159 49.1229 19.1127 48.9832C23.9474 48.2752 27.9634 45.0217 29.6068 40.4817C30.1425 39.0019 30.3686 37.6718 30.3686 36C30.3686 33.2838 29.6621 30.9338 28.179 28.7165C27.1821 27.226 26.0417 26.0859 24.5655 25.1034C22.1284 23.4815 19.4593 22.7654 16.4565 22.9275ZM15.6264 23.7501C12.7138 24.1564 9.89479 25.6636 8.01995 27.8171C5.10418 31.1663 4.1812 35.7107 5.56484 39.9056C6.04921 41.3741 6.96289 42.9519 8.05899 44.2127C9.68449 46.0823 12.2455 47.5732 14.709 48.084C16.4591 48.4468 18.3893 48.4389 20.0121 48.0622C22.495 47.4859 24.9399 46.0359 26.5531 44.1828C29.4272 40.8816 30.3747 36.3713 29.0604 32.248C28.4043 30.1896 27.0494 28.1089 25.4694 26.7334C23.9653 25.4239 21.928 24.375 20.057 23.9469C18.7586 23.6497 16.9287 23.5685 15.6264 23.7501ZM13.5378 28.1142C13.5236 28.1599 13.3102 30.0392 13.0636 32.2904L12.6151 36.3836L11.232 37.3632L9.84904 38.3428V39.6697C9.84904 40.7228 9.86617 40.9829 9.93205 40.9297C10.2442 40.6777 12.1986 39.3203 12.2492 39.3203C12.2838 39.3203 12.2959 39.4174 12.2761 39.5361C12.2564 39.6549 12.15 40.5887 12.0398 41.6113C11.9297 42.634 11.8223 43.5828 11.8013 43.7197L11.7631 43.9687H18.2436H24.724V42.2754V40.582H20.3732H16.0223L16.0556 40.4326C16.0739 40.3504 16.2107 39.4016 16.3595 38.3242C16.5084 37.2468 16.6557 36.3022 16.687 36.2252C16.7183 36.1481 17.6131 35.4675 18.6754 34.7125L20.6069 33.3399V32.0469C20.6069 31.3357 20.5912 30.7539 20.5721 30.7539C20.553 30.7539 19.7748 31.2955 18.8427 31.9574C17.9107 32.6194 17.1368 33.1498 17.123 33.1359C17.1011 33.114 17.6826 28.8207 17.7852 28.2471L17.8238 28.0312H15.6937C14.0476 28.0312 13.5578 28.0501 13.5378 28.1142Z" fill="white"/>
<path d="M50.6066 50V22H57.0866V44.72H71.1266V50H50.6066ZM74.3072 50V28.48H80.5472V50H74.3072ZM77.4272 25.48C76.2805 25.48 75.3472 25.1467 74.6272 24.48C73.9072 23.8133 73.5472 22.9867 73.5472 22C73.5472 21.0133 73.9072 20.1867 74.6272 19.52C75.3472 18.8533 76.2805 18.52 77.4272 18.52C78.5739 18.52 79.5072 18.84 80.2272 19.48C80.9472 20.0933 81.3072 20.8933 81.3072 21.88C81.3072 22.92 80.9472 23.7867 80.2272 24.48C79.5339 25.1467 78.6005 25.48 77.4272 25.48ZM95.1384 50.32C92.6051 50.32 90.6318 49.68 89.2184 48.4C87.8051 47.0933 87.0984 45.16 87.0984 42.6V23.72H93.3384V42.52C93.3384 43.4267 93.5784 44.1333 94.0584 44.64C94.5384 45.12 95.1918 45.36 96.0184 45.36C97.0051 45.36 97.8451 45.0933 98.5384 44.56L100.218 48.96C99.5784 49.4133 98.8051 49.76 97.8984 50C97.0184 50.2133 96.0984 50.32 95.1384 50.32ZM83.7784 33.76V28.96H98.6984V33.76H83.7784ZM113.737 50.32C111.284 50.32 109.124 49.84 107.257 48.88C105.417 47.92 103.991 46.6133 102.977 44.96C101.964 43.28 101.457 41.3733 101.457 39.24C101.457 37.08 101.951 35.1733 102.937 33.52C103.951 31.84 105.324 30.5333 107.057 29.6C108.791 28.64 110.751 28.16 112.937 28.16C115.044 28.16 116.937 28.6133 118.617 29.52C120.324 30.4 121.671 31.68 122.657 33.36C123.644 35.0133 124.137 37 124.137 39.32C124.137 39.56 124.124 39.84 124.097 40.16C124.071 40.4533 124.044 40.7333 124.017 41H106.537V37.36H120.737L118.337 38.44C118.337 37.32 118.111 36.3467 117.657 35.52C117.204 34.6933 116.577 34.0533 115.777 33.6C114.977 33.12 114.044 32.88 112.977 32.88C111.911 32.88 110.964 33.12 110.137 33.6C109.337 34.0533 108.711 34.7067 108.257 35.56C107.804 36.3867 107.577 37.3733 107.577 38.52V39.48C107.577 40.6533 107.831 41.6933 108.337 42.6C108.871 43.48 109.604 44.16 110.537 44.64C111.497 45.0933 112.617 45.32 113.897 45.32C115.044 45.32 116.044 45.1467 116.897 44.8C117.777 44.4533 118.577 43.9333 119.297 43.24L122.617 46.84C121.631 47.96 120.391 48.8267 118.897 49.44C117.404 50.0267 115.684 50.32 113.737 50.32ZM138.692 50.32C136.372 50.32 134.305 49.8533 132.492 48.92C130.678 47.96 129.252 46.64 128.212 44.96C127.198 43.28 126.692 41.3733 126.692 39.24C126.692 37.08 127.198 35.1733 128.212 33.52C129.252 31.84 130.678 30.5333 132.492 29.6C134.305 28.64 136.372 28.16 138.692 28.16C140.958 28.16 142.932 28.64 144.612 29.6C146.292 30.5333 147.532 31.88 148.332 33.64L143.492 36.24C142.932 35.2267 142.225 34.48 141.372 34C140.545 33.52 139.638 33.28 138.652 33.28C137.585 33.28 136.625 33.52 135.772 34C134.918 34.48 134.238 35.16 133.732 36.04C133.252 36.92 133.012 37.9867 133.012 39.24C133.012 40.4933 133.252 41.56 133.732 42.44C134.238 43.32 134.918 44 135.772 44.48C136.625 44.96 137.585 45.2 138.652 45.2C139.638 45.2 140.545 44.9733 141.372 44.52C142.225 44.04 142.932 43.28 143.492 42.24L148.332 44.88C147.532 46.6133 146.292 47.96 144.612 48.92C142.932 49.8533 140.958 50.32 138.692 50.32ZM161.891 50.32C159.598 50.32 157.558 49.84 155.771 48.88C154.011 47.92 152.611 46.6133 151.571 44.96C150.558 43.28 150.051 41.3733 150.051 39.24C150.051 37.08 150.558 35.1733 151.571 33.52C152.611 31.84 154.011 30.5333 155.771 29.6C157.558 28.64 159.598 28.16 161.891 28.16C164.158 28.16 166.184 28.64 167.971 29.6C169.758 30.5333 171.158 31.8267 172.171 33.48C173.184 35.1333 173.691 37.0533 173.691 39.24C173.691 41.3733 173.184 43.28 172.171 44.96C171.158 46.6133 169.758 47.92 167.971 48.88C166.184 49.84 164.158 50.32 161.891 50.32ZM161.891 45.2C162.931 45.2 163.864 44.96 164.691 44.48C165.518 44 166.171 43.32 166.651 42.44C167.131 41.5333 167.371 40.4667 167.371 39.24C167.371 37.9867 167.131 36.92 166.651 36.04C166.171 35.16 165.518 34.48 164.691 34C163.864 33.52 162.931 33.28 161.891 33.28C160.851 33.28 159.918 33.52 159.091 34C158.264 34.48 157.598 35.16 157.091 36.04C156.611 36.92 156.371 37.9867 156.371 39.24C156.371 40.4667 156.611 41.5333 157.091 42.44C157.598 43.32 158.264 44 159.091 44.48C159.918 44.96 160.851 45.2 161.891 45.2ZM177.862 50V28.48H184.102V50H177.862ZM180.982 25.48C179.835 25.48 178.902 25.1467 178.182 24.48C177.462 23.8133 177.102 22.9867 177.102 22C177.102 21.0133 177.462 20.1867 178.182 19.52C178.902 18.8533 179.835 18.52 180.982 18.52C182.129 18.52 183.062 18.84 183.782 19.48C184.502 20.0933 184.862 20.8933 184.862 21.88C184.862 22.92 184.502 23.7867 183.782 24.48C183.089 25.1467 182.155 25.48 180.982 25.48ZM202.973 28.16C204.68 28.16 206.2 28.5067 207.533 29.2C208.893 29.8667 209.96 30.9067 210.733 32.32C211.506 33.7067 211.893 35.4933 211.893 37.68V50H205.653V38.64C205.653 36.9067 205.266 35.6267 204.493 34.8C203.746 33.9733 202.68 33.56 201.293 33.56C200.306 33.56 199.413 33.7733 198.613 34.2C197.84 34.6 197.226 35.2267 196.773 36.08C196.346 36.9333 196.133 38.0267 196.133 39.36V50H189.893V28.48H195.853V34.44L194.733 32.64C195.506 31.2 196.613 30.0933 198.053 29.32C199.493 28.5467 201.133 28.16 202.973 28.16Z" fill="#697EED"/>
</svg>
