<svg width="330" height="53" viewBox="0 0 330 53" fill="none" xmlns="http://www.w3.org/2000/svg">
<path d="M322.356 44.2866C319.614 30.6923 305.677 11.6146 285.8 6.13124C299.964 9.6974 318.3 28.3504 322.356 44.2866ZM295.224 7.10226C305.734 12.3572 316.53 23.1526 321.613 34.6335C317.081 26.5995 310.018 15.7272 295.224 7.10226Z" stroke="white" stroke-width="0.6"/>
<g clip-path="url(#clip0_5_3092)">
<path fill-rule="evenodd" clip-rule="evenodd" d="M6.3461 21.2431C6.28818 21.2694 6.26511 21.2946 6.22382 21.3764C6.09583 21.6299 0.0591086 34.3184 0.0300555 34.395C0.00224355 34.4682 0.000152547 34.4924 0.0163535 34.5525C0.0337615 34.6172 0.792914 35.3495 8.45237 42.6898C15.5067 49.4502 16.8798 50.7589 16.9346 50.7737C16.9798 50.7858 17.0203 50.7858 17.0658 50.7736C17.1212 50.7586 18.4652 49.4778 25.5412 42.6968C30.1664 38.2643 33.9588 34.6172 33.9687 34.5921C33.9786 34.567 33.9935 34.5332 34.0018 34.5169C34.0193 34.4828 34.0224 34.4249 34.0058 34.4415C33.9997 34.4476 33.978 34.4125 33.9575 34.3635C33.9094 34.2482 27.8422 21.5046 27.7743 21.3762C27.7344 21.3009 27.7067 21.2712 27.6515 21.2445L27.5803 21.21L16.9989 21.2103C6.62711 21.2107 6.41609 21.2114 6.3461 21.2431ZM8.925 27.2195V29.2H11.8915H14.858V30.492V31.784H14.7834C14.7423 31.784 14.5721 31.7918 14.4051 31.8014C10.585 32.0214 7.61705 32.6949 6.71415 33.5466C6.50847 33.7406 6.42262 33.9065 6.42238 34.1101C6.42224 34.2201 6.42977 34.2502 6.48632 34.3651C6.97833 35.3656 10.2263 36.1833 14.6412 36.418L14.858 36.4296V40.5838V44.738H17.0085H19.159V40.5831V36.4282L19.3333 36.4178C19.4291 36.412 19.6911 36.3958 19.9155 36.3817C23.992 36.1253 27.0434 35.3193 27.5072 34.3766C27.5613 34.2665 27.5655 34.2464 27.5652 34.0962C27.565 33.9476 27.5605 33.9259 27.5105 33.8298C27.2065 33.2451 25.9863 32.7201 24.021 32.3283C22.7229 32.0694 21.1763 31.8862 19.5543 31.799L19.159 31.7777V30.4888V29.2H22.1255H25.092V27.2195V25.239H17.0085H8.925V27.2195ZM14.4075 32.1086C10.8772 32.3122 8.25289 32.8707 7.60442 33.5563C7.48311 33.6846 7.44022 33.7745 7.44022 33.9005C7.44022 34.2334 7.87583 34.5454 8.7465 34.836C11.4059 35.7235 17.3096 36.021 21.8705 35.4973C24.4899 35.1965 26.2335 34.6623 26.5186 34.0733C26.565 33.9776 26.5655 33.8254 26.5199 33.7249C26.4798 33.6367 26.3095 33.4637 26.18 33.3798C25.3772 32.8593 23.4882 32.4346 20.978 32.2101C20.614 32.1776 19.8159 32.1221 19.3673 32.0981L19.159 32.087V33.5316V34.9762L19.1038 34.9858C18.6885 35.0585 15.5922 35.0587 14.9473 34.9861L14.858 34.9761V33.533V32.09L14.7517 32.0924C14.6933 32.0938 14.5384 32.1011 14.4075 32.1086ZM0.00268555 34.487C0.00268555 34.5103 0.00654455 34.5199 0.0112535 34.5082C0.0159795 34.4965 0.0159795 34.4774 0.0112535 34.4657C0.00654455 34.454 0.00268555 34.4636 0.00268555 34.487Z" fill="white"/>
</g>
<path d="M62.76 50.48C58.7867 50.48 55.68 49.3733 53.44 47.16C51.2 44.9467 50.08 41.7867 50.08 37.68V22H56.56V37.44C56.56 40.1067 57.1067 42.0267 58.2 43.2C59.2933 44.3733 60.8267 44.96 62.8 44.96C64.7733 44.96 66.3067 44.3733 67.4 43.2C68.4933 42.0267 69.04 40.1067 69.04 37.44V22H75.44V37.68C75.44 41.7867 74.32 44.9467 72.08 47.16C69.84 49.3733 66.7333 50.48 62.76 50.48ZM91.0434 50.48C88.8034 50.48 86.6568 50.1867 84.6034 49.6C82.5501 48.9867 80.8968 48.2 79.6434 47.24L81.8434 42.36C83.0434 43.2133 84.4568 43.92 86.0834 44.48C87.7368 45.0133 89.4034 45.28 91.0834 45.28C92.3634 45.28 93.3901 45.16 94.1634 44.92C94.9634 44.6533 95.5501 44.2933 95.9234 43.84C96.2968 43.3867 96.4834 42.8667 96.4834 42.28C96.4834 41.5333 96.1901 40.9467 95.6034 40.52C95.0168 40.0667 94.2434 39.7067 93.2834 39.44C92.3234 39.1467 91.2568 38.88 90.0834 38.64C88.9368 38.3733 87.7768 38.0533 86.6034 37.68C85.4568 37.3067 84.4034 36.8267 83.4434 36.24C82.4834 35.6533 81.6968 34.88 81.0834 33.92C80.4968 32.96 80.2034 31.7333 80.2034 30.24C80.2034 28.64 80.6301 27.1867 81.4834 25.88C82.3634 24.5467 83.6701 23.4933 85.4034 22.72C87.1634 21.92 89.3634 21.52 92.0034 21.52C93.7634 21.52 95.4968 21.7333 97.2034 22.16C98.9101 22.56 100.417 23.1733 101.723 24L99.7234 28.92C98.4168 28.1733 97.1101 27.6267 95.8034 27.28C94.4968 26.9067 93.2168 26.72 91.9634 26.72C90.7101 26.72 89.6834 26.8667 88.8834 27.16C88.0834 27.4533 87.5101 27.84 87.1634 28.32C86.8168 28.7733 86.6434 29.3067 86.6434 29.92C86.6434 30.64 86.9368 31.2267 87.5234 31.68C88.1101 32.1067 88.8834 32.4533 89.8434 32.72C90.8034 32.9867 91.8568 33.2533 93.0034 33.52C94.1768 33.7867 95.3368 34.0933 96.4834 34.44C97.6568 34.7867 98.7234 35.2533 99.6834 35.84C100.643 36.4267 101.417 37.2 102.003 38.16C102.617 39.12 102.923 40.3333 102.923 41.8C102.923 43.3733 102.483 44.8133 101.603 46.12C100.723 47.4267 99.4034 48.48 97.6434 49.28C95.9101 50.08 93.7101 50.48 91.0434 50.48ZM107.351 50V22H120.071C123.111 22 125.791 22.5867 128.111 23.76C130.431 24.9067 132.245 26.52 133.551 28.6C134.858 30.68 135.511 33.1467 135.511 36C135.511 38.8267 134.858 41.2933 133.551 43.4C132.245 45.48 130.431 47.1067 128.111 48.28C125.791 49.4267 123.111 50 120.071 50H107.351ZM113.831 44.68H119.751C121.618 44.68 123.231 44.3333 124.591 43.64C125.978 42.92 127.045 41.9067 127.791 40.6C128.565 39.2933 128.951 37.76 128.951 36C128.951 34.2133 128.565 32.68 127.791 31.4C127.045 30.0933 125.978 29.0933 124.591 28.4C123.231 27.68 121.618 27.32 119.751 27.32H113.831V44.68ZM145.808 50V27.28H136.848V22H161.248V27.28H152.288V50H145.808ZM181.862 50V27.28H172.902V22H197.302V27.28H188.342V50H181.862ZM200.789 50V22H212.909C215.415 22 217.575 22.4133 219.389 23.24C221.202 24.04 222.602 25.2 223.589 26.72C224.575 28.24 225.069 30.0533 225.069 32.16C225.069 34.24 224.575 36.04 223.589 37.56C222.602 39.0533 221.202 40.2 219.389 41C217.575 41.8 215.415 42.2 212.909 42.2H204.389L207.269 39.36V50H200.789ZM218.589 50L211.589 39.84H218.509L225.589 50H218.589ZM207.269 40.08L204.389 37.04H212.549C214.549 37.04 216.042 36.6133 217.029 35.76C218.015 34.88 218.509 33.68 218.509 32.16C218.509 30.6133 218.015 29.4133 217.029 28.56C216.042 27.7067 214.549 27.28 212.549 27.28H204.389L207.269 24.2V40.08ZM243.603 50.48C241.443 50.48 239.429 50.1333 237.563 49.44C235.723 48.72 234.123 47.7067 232.763 46.4C231.403 45.0933 230.336 43.56 229.563 41.8C228.816 40.04 228.443 38.1067 228.443 36C228.443 33.8933 228.816 31.96 229.563 30.2C230.336 28.44 231.403 26.9067 232.763 25.6C234.149 24.2933 235.763 23.2933 237.603 22.6C239.443 21.88 241.456 21.52 243.643 21.52C246.069 21.52 248.256 21.9467 250.203 22.8C252.176 23.6267 253.829 24.8533 255.163 26.48L251.003 30.32C250.043 29.2267 248.976 28.4133 247.803 27.88C246.629 27.32 245.349 27.04 243.963 27.04C242.656 27.04 241.456 27.2533 240.363 27.68C239.269 28.1067 238.323 28.72 237.523 29.52C236.723 30.32 236.096 31.2667 235.643 32.36C235.216 33.4533 235.003 34.6667 235.003 36C235.003 37.3333 235.216 38.5467 235.643 39.64C236.096 40.7333 236.723 41.68 237.523 42.48C238.323 43.28 239.269 43.8933 240.363 44.32C241.456 44.7467 242.656 44.96 243.963 44.96C245.349 44.96 246.629 44.6933 247.803 44.16C248.976 43.6 250.043 42.76 251.003 41.64L255.163 45.48C253.829 47.1067 252.176 48.3467 250.203 49.2C248.256 50.0533 246.056 50.48 243.603 50.48ZM257.422 50V45.8L268.222 35.6C269.075 34.8267 269.702 34.1333 270.102 33.52C270.502 32.9067 270.768 32.3467 270.902 31.84C271.062 31.3333 271.142 30.8667 271.142 30.44C271.142 29.32 270.755 28.4667 269.982 27.88C269.235 27.2667 268.128 26.96 266.662 26.96C265.488 26.96 264.395 27.1867 263.382 27.64C262.395 28.0933 261.555 28.8 260.862 29.76L256.142 26.72C257.208 25.12 258.702 23.8533 260.622 22.92C262.542 21.9867 264.755 21.52 267.262 21.52C269.342 21.52 271.155 21.8667 272.702 22.56C274.275 23.2267 275.488 24.1733 276.342 25.4C277.222 26.6267 277.662 28.0933 277.662 29.8C277.662 30.7067 277.542 31.6133 277.302 32.52C277.088 33.4 276.635 34.3333 275.942 35.32C275.275 36.3067 274.288 37.4133 272.982 38.64L264.022 47.08L262.782 44.72H278.582V50H257.422ZM293.255 50.48C290.962 50.48 288.909 49.92 287.095 48.8C285.282 47.6533 283.855 46 282.815 43.84C281.775 41.68 281.255 39.0667 281.255 36C281.255 32.9333 281.775 30.32 282.815 28.16C283.855 26 285.282 24.36 287.095 23.24C288.909 22.0933 290.962 21.52 293.255 21.52C295.575 21.52 297.629 22.0933 299.415 23.24C301.229 24.36 302.655 26 303.695 28.16C304.735 30.32 305.255 32.9333 305.255 36C305.255 39.0667 304.735 41.68 303.695 43.84C302.655 46 301.229 47.6533 299.415 48.8C297.629 49.92 295.575 50.48 293.255 50.48ZM293.255 45C294.349 45 295.295 44.6933 296.095 44.08C296.922 43.4667 297.562 42.4933 298.015 41.16C298.495 39.8267 298.735 38.1067 298.735 36C298.735 33.8933 298.495 32.1733 298.015 30.84C297.562 29.5067 296.922 28.5333 296.095 27.92C295.295 27.3067 294.349 27 293.255 27C292.189 27 291.242 27.3067 290.415 27.92C289.615 28.5333 288.975 29.5067 288.495 30.84C288.042 32.1733 287.815 33.8933 287.815 36C287.815 38.1067 288.042 39.8267 288.495 41.16C288.975 42.4933 289.615 43.4667 290.415 44.08C291.242 44.6933 292.189 45 293.255 45Z" fill="#697EED"/>
<defs>
<clipPath id="clip0_5_3092">
<rect width="34" height="34" fill="white" transform="translate(0 19)"/>
</clipPath>
</defs>
</svg>
