<svg width="234" height="66" viewBox="0 0 234 66" fill="none" xmlns="http://www.w3.org/2000/svg">
<circle cx="33" cy="33" r="32.5" fill="#F1F1F1" stroke="#BDBDBD"/>
<path d="M26.185 44.0885C24.3019 44.0945 22.4129 44.1006 20.5299 44.0945C20.0213 44.0945 19.6943 43.6465 19.7791 43.1258C20.0939 41.1217 20.3906 39.1176 20.7055 37.1195C20.99 35.3213 21.2988 33.523 21.5834 31.7187C21.7893 30.417 21.9709 29.1152 22.1768 27.8135C22.4795 25.8941 22.7943 23.9748 23.1031 22.0555C23.2787 20.9535 23.4422 19.8516 23.6117 18.7496C23.7207 18.0291 24.2898 17.5387 25.0285 17.5387C28.2133 17.5387 31.4041 17.5145 34.5889 17.5508C36.3266 17.5689 38.0521 17.7869 39.6324 18.5922C41.2732 19.4156 42.2723 20.7537 42.5992 22.5701C42.7506 23.4178 42.6961 24.2654 42.5326 25.1131C41.8545 24.768 41.14 24.5439 40.4014 24.3986C39.4811 24.217 38.5365 24.1686 37.598 24.1564C35.2307 24.1322 32.8572 24.1383 30.4898 24.1564C29.9873 24.1625 29.5393 24.3684 29.3395 24.883C29.2486 25.1191 29.2184 25.3855 29.182 25.6459C29.0186 26.6389 28.8611 27.6379 28.7037 28.6369C28.5826 29.4059 28.4494 30.1748 28.3344 30.9437C28.1891 31.9186 28.0619 32.8994 27.8742 33.8682C27.8137 34.1891 27.6805 34.516 27.7773 34.8611C27.7047 35.0791 27.6381 35.2971 27.6018 35.5271C27.4322 36.6473 27.2566 37.7674 27.0811 38.8875C26.8691 40.2437 26.6693 41.6061 26.4393 42.9623C26.3666 43.3377 26.3908 43.7373 26.185 44.0885Z" fill="#012D8A"/>
<path d="M26.185 44.0883C26.3908 43.7432 26.3666 43.3375 26.4271 42.9621C26.6572 41.6059 26.857 40.2496 27.0689 38.8873C27.2445 37.7672 27.4201 36.6471 27.5896 35.527C27.626 35.2969 27.6926 35.0789 27.7652 34.8609C28.0922 34.3523 28.5463 34.1283 29.1639 34.1344C30.7078 34.1344 32.2518 34.2131 33.7896 34.0193C35.1641 33.8498 36.4779 33.4986 37.701 32.8447C39.584 31.8336 40.8676 30.2896 41.6729 28.334C42.0543 27.4016 42.357 26.4389 42.4842 25.4338C42.4963 25.4096 42.5023 25.3854 42.5145 25.3672C42.5266 25.3066 42.5387 25.2461 42.5508 25.1855C43.9918 25.9484 44.7607 27.1715 44.9666 28.7699C45.1361 30.0838 44.9363 31.3613 44.6094 32.6328C44.349 33.6439 43.9494 34.5945 43.3803 35.4664C42.4539 36.8953 41.1643 37.8883 39.5598 38.4574C38.7242 38.7541 37.8645 38.9236 36.9865 39.0266C36.2539 39.1113 35.5213 39.1113 34.7887 39.1174C34.05 39.1174 33.5777 39.523 33.4748 40.2496C33.2508 41.7814 33.0268 43.3133 32.7604 44.8451C32.6695 45.3658 32.5969 45.8926 32.5061 46.4072C32.391 47.0369 31.943 47.4123 31.3072 47.4123C29.7633 47.4123 28.2193 47.4123 26.6754 47.4123C26.0881 47.4123 25.8035 47.0732 25.9004 46.5041C26.0154 45.8018 26.1305 45.1055 26.2455 44.4031C26.2637 44.2881 26.2939 44.173 26.185 44.0883Z" fill="#019AE0"/>
<path d="M42.5569 25.1737C42.5447 25.2342 42.5326 25.2948 42.5205 25.3553C42.5084 25.3795 42.5024 25.4038 42.4903 25.4219C42.3631 26.427 42.0604 27.3897 41.6789 28.3221C40.8737 30.2778 39.5901 31.8217 37.7071 32.8329C36.484 33.4868 35.1641 33.8379 33.7957 34.0075C32.2578 34.1952 30.7139 34.1225 29.1699 34.1225C28.5524 34.1225 28.0983 34.3405 27.7713 34.8491C27.6744 34.51 27.8076 34.177 27.8682 33.8561C28.0498 32.8874 28.183 31.9065 28.3283 30.9317C28.4434 30.1628 28.5766 29.3938 28.6977 28.6249C28.8551 27.6258 29.0125 26.6329 29.176 25.6338C29.2184 25.3795 29.2426 25.1131 29.3334 24.871C29.5332 24.3563 29.9813 24.1444 30.4838 24.1444C32.8512 24.1262 35.2246 24.1202 37.592 24.1444C38.5305 24.1565 39.469 24.2049 40.3953 24.3866C41.134 24.5319 41.8545 24.7559 42.5266 25.101C42.5387 25.1374 42.5508 25.1555 42.5569 25.1737Z" fill="#001F6B"/>
<circle cx="89" cy="33" r="32.5" fill="#F1F1F1" stroke="#BDBDBD"/>
<path d="M101.094 26.3968V30.9015C100.852 30.9015 100.561 30.9499 100.27 30.9499C98.0906 30.9499 96.0562 30.1265 94.5062 28.8187V38.4093C94.5062 40.3468 93.8765 42.1874 92.7625 43.6405C91.2125 45.7233 88.6937 47.128 85.8359 47.128C82.7359 47.128 80.0234 45.4812 78.5219 43.0593C80.0719 44.5124 82.1547 45.4327 84.4312 45.4327C87.2406 45.4327 89.7594 44.0765 91.3094 41.9452C92.375 40.4921 93.0531 38.6999 93.0531 36.714V27.0749C94.6031 28.4312 96.589 29.2062 98.8172 29.2062C99.1078 29.2062 99.35 29.2062 99.6406 29.1577V26.2515C100.077 26.3483 100.464 26.3968 100.9 26.3968H101.094Z" fill="#FF004F"/>
<path d="M87.0469 29.7394V34.7284C86.7078 34.6315 86.3203 34.5831 85.9812 34.5831C83.85 34.5831 82.1062 36.3753 82.1062 38.555C82.1062 39.0394 82.2031 39.4753 82.3484 39.9112C81.3797 39.1847 80.7015 38.0222 80.7015 36.7144C80.7015 34.5347 82.4453 32.7425 84.5765 32.7425C84.964 32.7425 85.3031 32.7909 85.6422 32.8878V29.6909C85.739 29.6909 85.8359 29.6909 85.9328 29.6909C86.3203 29.6909 86.7078 29.6909 87.0469 29.7394Z" fill="#FF004F"/>
<path d="M95.2328 22.8126C94.3609 22.0376 93.7312 20.972 93.3922 19.8579H94.5547C94.5547 20.1001 94.5547 20.2938 94.5547 20.536C94.6515 21.311 94.8937 22.086 95.2328 22.8126Z" fill="#FF004F"/>
<path d="M99.6891 26.3001V29.2063C99.4469 29.2548 99.1563 29.2548 98.8656 29.2548C96.6859 29.2548 94.6516 28.4313 93.1016 27.1235V36.7142C93.1016 38.6517 92.4719 40.4923 91.3578 41.9454C89.7594 44.0767 87.2891 45.4329 84.4797 45.4329C82.2031 45.4329 80.1203 44.5126 78.5703 43.0595C77.7469 41.7032 77.2625 40.1532 77.2625 38.4579C77.2625 33.7595 80.9922 29.9329 85.6422 29.7876V32.9845C85.3031 32.8876 84.9156 32.8392 84.5766 32.8392C82.4453 32.8392 80.7016 34.6313 80.7016 36.811C80.7016 38.1188 81.3313 39.3298 82.3484 40.0079C82.8813 41.5095 84.3344 42.6235 85.9813 42.6235C88.1125 42.6235 89.8563 40.8313 89.8563 38.6517V19.8579H93.3922C93.7313 21.0204 94.361 22.0376 95.2328 22.8126C96.1047 24.5563 97.7516 25.8642 99.6891 26.3001Z" fill="#F9F9F9"/>
<path d="M85.6422 28.0437V29.6905C80.9922 29.8358 77.2625 33.6624 77.2625 38.3608C77.2625 40.0562 77.7469 41.6062 78.5703 42.9624C76.9234 41.364 75.9062 39.1358 75.9062 36.6171C75.9062 31.8218 79.7812 27.9468 84.5281 27.9468C84.9156 27.9468 85.3031 27.9952 85.6422 28.0437Z" fill="#00F7EF"/>
<path d="M93.3922 19.8578H89.8563V38.5547C89.8563 40.7344 88.1125 42.5266 85.9813 42.5266C84.2859 42.5266 82.8813 41.4609 82.3484 39.9109C82.9781 40.3469 83.7531 40.6375 84.5766 40.6375C86.7078 40.6375 88.4516 38.8938 88.4516 36.7141V17.9688H93.15V18.0656C93.15 18.2594 93.15 18.4531 93.1985 18.6469C93.1985 19.0344 93.2953 19.4703 93.3922 19.8578Z" fill="#00F7EF"/>
<path d="M99.6891 24.5078V26.2516C97.7516 25.8641 96.1047 24.5562 95.1844 22.8125C96.3953 23.9266 97.9453 24.5562 99.6891 24.5078Z" fill="#00F7EF"/>
<circle cx="145" cy="33" r="32.5" fill="#F1F1F1" stroke="#BDBDBD"/>
<path d="M151.457 29.527C151.457 30.5381 151.493 31.5432 151.445 32.5543C151.396 33.7047 151.747 34.6916 152.474 35.5635C152.559 35.6665 152.638 35.7694 152.71 35.8784C152.971 36.2719 152.922 36.5444 152.565 36.8471C151.802 37.4889 151.045 38.1368 150.282 38.7786C149.828 39.16 149.544 39.154 149.083 38.7786C148.466 38.276 147.981 37.6584 147.552 36.9985C147.449 36.8411 147.394 36.8471 147.267 36.9682C146.504 37.7129 145.699 38.4032 144.676 38.7483C143.095 39.2872 141.491 39.3719 139.905 38.8088C138.379 38.2639 137.464 37.1377 137.125 35.5696C136.75 33.8198 136.944 32.1547 138.022 30.6713C138.839 29.5512 139.971 28.8913 141.273 28.4856C142.617 28.0739 144.004 27.9165 145.396 27.7772C145.79 27.7348 146.177 27.6985 146.571 27.6622C146.668 27.6561 146.752 27.644 146.746 27.5168C146.734 26.875 146.801 26.2211 146.649 25.5915C146.456 24.7862 145.929 24.3139 145.124 24.1383C144.548 24.0112 143.979 24.0475 143.422 24.2352C142.575 24.5258 142.048 25.1131 141.836 25.985C141.721 26.4633 141.497 26.6329 141.031 26.5844C140.038 26.4815 139.045 26.3786 138.058 26.2756C137.652 26.2332 137.44 25.9245 137.525 25.5309C138.04 23.0182 139.687 21.6075 142.06 20.9596C143.882 20.4631 145.729 20.4329 147.558 20.9475C149.029 21.3592 150.264 22.0858 150.954 23.5268C151.348 24.3442 151.439 25.2282 151.451 26.1122C151.463 27.2444 151.451 28.3887 151.457 29.527ZM146.746 31.4161C146.746 31.1133 146.734 30.8106 146.752 30.5079C146.764 30.3202 146.698 30.2536 146.51 30.2717C146.05 30.3141 145.584 30.3202 145.124 30.3807C144.318 30.4836 143.531 30.6834 142.877 31.192C141.927 31.9368 141.727 32.954 141.884 34.0983C142.072 35.4424 143.271 36.1872 144.555 35.7391C145.426 35.4364 145.959 34.7946 146.329 33.9893C146.716 33.1719 146.746 32.294 146.746 31.4161Z" fill="#050606"/>
<path d="M144.506 45.0816C139.886 45.0513 135.739 43.8646 131.991 41.364C131.228 40.8554 130.502 40.2984 129.811 39.6868C129.751 39.6324 129.69 39.5779 129.642 39.5113C129.575 39.4204 129.527 39.3115 129.605 39.2025C129.684 39.0814 129.817 39.0693 129.932 39.1238C130.199 39.2509 130.453 39.3902 130.713 39.5234C133.099 40.7827 135.612 41.6909 138.246 42.2661C140.631 42.7868 143.041 43.029 145.487 42.9624C148.98 42.8656 152.347 42.1632 155.586 40.8615C155.744 40.7949 155.907 40.7283 156.071 40.6919C156.301 40.6495 156.531 40.6798 156.634 40.9281C156.73 41.1581 156.603 41.3398 156.434 41.4851C156.313 41.588 156.173 41.6728 156.034 41.7636C153.945 43.1199 151.657 43.9917 149.235 44.5306C147.636 44.8939 146.014 45.0695 144.506 45.0816Z" fill="#F6A61F"/>
<path d="M156.161 39.6867C155.465 39.6806 154.775 39.7714 154.085 39.8441C153.951 39.8562 153.8 39.8925 153.739 39.7472C153.667 39.5837 153.806 39.4869 153.921 39.4082C154.781 38.839 155.744 38.615 156.755 38.5605C157.451 38.5181 158.141 38.5484 158.819 38.7543C159.128 38.8451 159.279 39.0267 159.273 39.3416C159.237 41.0248 158.674 42.49 157.457 43.6828C157.415 43.7252 157.366 43.7615 157.318 43.7978C157.209 43.8765 157.076 43.9492 156.961 43.8523C156.852 43.7615 156.912 43.6283 156.961 43.5193C157.318 42.6293 157.681 41.7453 157.857 40.7947C157.881 40.6736 157.887 40.5525 157.893 40.4375C157.899 40.0439 157.76 39.8744 157.372 39.7775C156.967 39.6685 156.561 39.6867 156.161 39.6867Z" fill="#F6A61F"/>
<circle cx="201" cy="33" r="32.5" fill="#F1F1F1" stroke="#BDBDBD"/>
<path d="M201.562 36.0096L189.268 28.1863C188.633 27.766 188.188 27.1129 188.029 26.3677C187.87 25.6224 188.011 24.8447 188.42 24.2018C188.829 23.559 189.474 23.1026 190.216 22.9308C190.959 22.759 191.739 22.8856 192.389 23.2834L201.408 29.0225L209.506 23.3539C210.137 22.9258 210.912 22.7633 211.663 22.9017C212.413 23.04 213.079 23.4681 213.517 24.0933C213.955 24.7186 214.129 25.4909 214.002 26.2435C213.875 26.996 213.457 27.6684 212.838 28.1154L201.562 36.0096Z" fill="#EA4435"/>
<path d="M212.141 43.1724H208.266V25.7349C208.266 24.9641 208.572 24.2249 209.117 23.6798C209.662 23.1348 210.401 22.8286 211.172 22.8286C211.943 22.8286 212.682 23.1348 213.227 23.6798C213.772 24.2249 214.078 24.9641 214.078 25.7349V41.2349C214.078 41.7487 213.874 42.2415 213.511 42.6049C213.147 42.9682 212.655 43.1724 212.141 43.1724Z" fill="#00AC47"/>
<path d="M214.036 25.3135C214.027 25.2554 214.028 25.196 214.016 25.138C213.997 25.049 213.963 24.9669 213.936 24.881C213.91 24.7828 213.879 24.686 213.843 24.5911C213.824 24.5451 213.794 24.5047 213.772 24.4599C213.712 24.3308 213.642 24.2063 213.563 24.0874C213.525 24.0312 213.476 23.9832 213.433 23.9299C213.36 23.8331 213.28 23.7409 213.196 23.6539C213.131 23.5913 213.058 23.5388 212.988 23.4824C212.913 23.4185 212.836 23.3585 212.755 23.3025C212.678 23.2523 212.594 23.2136 212.513 23.1708C212.427 23.1262 212.343 23.0775 212.254 23.0419C212.168 23.0072 212.076 22.9851 211.986 22.9587C211.896 22.9322 211.807 22.9005 211.714 22.8834C211.6 22.865 211.484 22.8533 211.369 22.8485C211.295 22.8434 211.222 22.8305 211.148 22.8311C211.011 22.8351 210.875 22.8488 210.74 22.8722C210.685 22.8804 210.63 22.8797 210.576 22.8909C210.393 22.9468 210.211 23.0043 210.029 23.0634C209.979 23.0847 209.936 23.1164 209.887 23.1404C209.395 23.3699 208.98 23.7371 208.693 24.1974C208.405 24.6577 208.257 25.1915 208.266 25.7343V31.3163L212.838 28.1152C213.287 27.8139 213.639 27.3888 213.852 26.8916C214.064 26.3943 214.128 25.8463 214.036 25.3135Z" fill="#FFBA00"/>
<path d="M190.828 22.8281C191.599 22.8281 192.338 23.1343 192.883 23.6793C193.428 24.2244 193.734 24.9636 193.734 25.7344V43.1719H189.859C189.346 43.1719 188.853 42.9677 188.489 42.6044C188.126 42.241 187.922 41.7482 187.922 41.2344V25.7344C187.922 24.9636 188.228 24.2244 188.773 23.6793C189.318 23.1343 190.057 22.8281 190.828 22.8281Z" fill="#4285F4"/>
<path d="M187.964 25.3137C187.973 25.2556 187.972 25.1962 187.984 25.1381C188.003 25.0492 188.038 24.9671 188.064 24.8812C188.09 24.783 188.121 24.6863 188.157 24.5914C188.176 24.5454 188.206 24.505 188.228 24.4602C188.288 24.331 188.358 24.2065 188.437 24.0876C188.476 24.0314 188.524 23.9834 188.567 23.9301C188.64 23.8333 188.72 23.7411 188.805 23.6541C188.869 23.5914 188.942 23.539 189.013 23.4826C189.087 23.4187 189.165 23.3587 189.245 23.3027C189.322 23.2525 189.406 23.2138 189.487 23.171C189.571 23.1235 189.658 23.0802 189.746 23.0414C189.832 23.0067 189.924 22.9846 190.014 22.9582C190.104 22.9317 190.193 22.9 190.286 22.8829C190.4 22.8645 190.516 22.8529 190.632 22.848C190.705 22.8429 190.778 22.83 190.852 22.8306C190.989 22.8346 191.125 22.8483 191.261 22.8718C191.315 22.8799 191.37 22.8792 191.424 22.8905C191.518 22.9143 191.611 22.9431 191.701 22.9765C191.793 23.0008 191.883 23.0296 191.971 23.0629C192.021 23.0842 192.065 23.1159 192.113 23.1399C192.239 23.1989 192.36 23.2669 192.476 23.3433C192.864 23.6098 193.181 23.9668 193.4 24.3834C193.62 24.8 193.734 25.2637 193.734 25.7345V31.3164L189.162 28.1156C188.713 27.8142 188.361 27.3891 188.148 26.8919C187.936 26.3946 187.872 25.8465 187.964 25.3137Z" fill="#C52528"/>
</svg>
