<svg width="1037" height="1022" viewBox="0 0 1037 1022" fill="none" xmlns="http://www.w3.org/2000/svg">
<g clip-path="url(#clip0_2201_379)">
<g opacity="0.1" filter="url(#filter0_f_2201_379)">
<path d="M820 510.5C820 699.105 667.105 852 478.5 852C289.895 852 137 699.105 137 510.5C137 321.895 289.895 169 478.5 169C667.105 169 820 321.895 820 510.5Z" fill="#697EED"/>
</g>
<g opacity="0.2">
<rect x="96.2046" y="596.113" width="807.939" height="1.26113" fill="url(#paint0_linear_2201_379)"/>
<rect x="501.255" y="448.56" width="402.889" height="1.26113" fill="url(#paint1_linear_2201_379)"/>
<rect x="501.255" y="297.224" width="402.889" height="1.26113" fill="url(#paint2_linear_2201_379)"/>
<rect x="96.2046" y="749.971" width="807.939" height="1.26113" fill="url(#paint3_linear_2201_379)"/>
<rect x="558.501" y="897.523" width="478.498" height="1.26113" fill="url(#paint4_linear_2201_379)"/>
<rect opacity="0.1" x="531.498" y="222.818" width="1.08013" height="499.408" fill="#D9D9D9"/>
<rect x="663.274" y="222.818" width="1.08013" height="721.368" fill="url(#paint5_linear_2201_379)"/>
</g>
<g opacity="0.01">
<path d="M479.609 875.73C463.131 875.73 447.228 873.718 431.899 869.695C416.762 865.479 404.404 860.114 394.823 853.6L413.505 811.638C422.51 817.386 432.857 822.176 444.545 826.008C456.425 829.649 468.208 831.469 479.896 831.469C487.752 831.469 494.075 830.798 498.866 829.457C503.656 827.924 507.105 826.008 509.212 823.709C511.512 821.218 512.661 818.344 512.661 815.087C512.661 810.488 510.554 806.848 506.338 804.165C502.123 801.483 496.662 799.279 489.956 797.555C483.25 795.83 475.777 794.106 467.538 792.381C459.49 790.657 451.347 788.453 443.108 785.771C435.061 783.088 427.684 779.64 420.978 775.424C414.271 771.017 408.811 765.365 404.595 758.467C400.38 751.378 398.272 742.468 398.272 731.738C398.272 719.667 401.529 708.745 408.044 698.973C414.75 689.201 424.714 681.345 437.935 675.406C451.156 669.466 467.634 666.496 487.369 666.496C500.59 666.496 513.523 668.029 526.169 671.095C539.007 673.969 550.408 678.28 560.371 684.028L542.839 726.277C533.259 721.104 523.774 717.272 514.386 714.781C504.997 712.098 495.896 710.757 487.082 710.757C479.226 710.757 472.903 711.619 468.113 713.344C463.323 714.877 459.874 716.984 457.766 719.667C455.658 722.349 454.604 725.415 454.604 728.864C454.604 733.271 456.616 736.816 460.64 739.498C464.855 741.989 470.316 744.097 477.022 745.821C483.92 747.354 491.393 748.983 499.44 750.707C507.679 752.431 515.823 754.635 523.87 757.317C532.109 759.808 539.582 763.257 546.288 767.664C552.994 771.879 558.359 777.532 562.383 784.621C566.598 791.519 568.706 800.237 568.706 810.776C568.706 822.464 565.353 833.289 558.647 843.253C552.132 853.025 542.264 860.881 529.044 866.82C516.014 872.76 499.536 875.73 479.609 875.73Z" fill="white"/>
<path d="M594.993 871.706V670.52H641.841L725.189 807.327H700.472L781.522 670.52H828.369L828.944 871.706H776.636L776.061 750.132H784.971L724.327 851.875H699.035L636.667 750.132H647.589V871.706H594.993Z" fill="white"/>
<path d="M939.914 875.73C923.435 875.73 907.532 873.718 892.204 869.695C877.067 865.479 864.708 860.114 855.128 853.6L873.809 811.638C882.815 817.386 893.162 822.176 904.85 826.008C916.729 829.649 928.513 831.469 940.201 831.469C948.057 831.469 954.38 830.798 959.17 829.457C963.96 827.924 967.409 826.008 969.517 823.709C971.816 821.218 972.966 818.344 972.966 815.087C972.966 810.488 970.858 806.848 966.643 804.165C962.427 801.483 956.966 799.279 950.26 797.555C943.554 795.83 936.081 794.106 927.842 792.381C919.795 790.657 911.652 788.453 903.413 785.771C895.365 783.088 887.988 779.64 881.282 775.424C874.576 771.017 869.115 765.365 864.9 758.467C860.684 751.378 858.577 742.468 858.577 731.738C858.577 719.667 861.834 708.745 868.349 698.973C875.055 689.201 885.018 681.345 898.239 675.406C911.46 669.466 927.938 666.496 947.674 666.496C960.894 666.496 973.828 668.029 986.474 671.095C999.311 673.969 1010.71 678.28 1020.68 684.028L1003.14 726.277C993.563 721.104 984.079 717.272 974.69 714.781C965.301 712.098 956.2 710.757 947.386 710.757C939.53 710.757 933.207 711.619 928.417 713.344C923.627 714.877 920.178 716.984 918.07 719.667C915.963 722.349 914.909 725.415 914.909 728.864C914.909 733.271 916.921 736.816 920.944 739.498C925.16 741.989 930.621 744.097 937.327 745.821C944.225 747.354 951.697 748.983 959.745 750.707C967.984 752.431 976.127 754.635 984.175 757.317C992.414 759.808 999.886 763.257 1006.59 767.664C1013.3 771.879 1018.66 777.532 1022.69 784.621C1026.9 791.519 1029.01 800.237 1029.01 810.776C1029.01 822.464 1025.66 833.289 1018.95 843.253C1012.44 853.025 1002.57 860.881 989.348 866.82C976.319 872.76 959.841 875.73 939.914 875.73Z" fill="white"/>
</g>
<path d="M309.981 190.432C310.342 189.086 311.725 188.288 313.071 188.648V188.648C314.416 189.009 315.215 190.392 314.854 191.737L307.347 219.755C306.986 221.101 305.603 221.899 304.258 221.539V221.539C302.912 221.178 302.114 219.795 302.474 218.45L309.981 190.432Z" fill="white"/>
<path d="M293.944 252.721C294.305 251.376 295.688 250.577 297.033 250.938V250.938C298.379 251.298 299.178 252.681 298.817 254.027L283.15 312.498C282.789 313.844 281.406 314.642 280.06 314.282V314.282C278.715 313.921 277.916 312.538 278.277 311.193L293.944 252.721Z" fill="white"/>
<path d="M272.401 333.12C272.761 331.774 274.144 330.976 275.49 331.336V331.336C276.836 331.697 277.634 333.08 277.274 334.425L261.606 392.897C261.246 394.242 259.863 395.041 258.517 394.68V394.68C257.171 394.32 256.373 392.937 256.733 391.591L272.401 333.12Z" fill="white"/>
<path d="M332.229 131.765L148.3 818.198C139.16 852.307 146.522 878.433 201.339 893.121L485.779 969.337C532.679 981.904 557.837 968.408 567.956 930.645L752.049 243.602C762.167 205.839 748.444 166.911 703.981 154.997L434.768 82.8612C376.296 67.1938 344.959 84.2566 332.229 131.765Z" fill="url(#paint6_linear_2201_379)" stroke="#697EED"/>
<rect x="483.041" y="126.343" width="145.291" height="35.5728" rx="17.7864" transform="rotate(15 483.041 126.343)" stroke="#697EED"/>
<circle cx="498.5" cy="149.552" r="5.04453" transform="rotate(15 498.5 149.552)" fill="#697EED"/>
<circle opacity="0.1" cx="452.72" cy="525.054" r="157.642" transform="rotate(15 452.72 525.054)" fill="#697EED"/>
<circle opacity="0.2" cx="452.927" cy="521.846" r="116.655" transform="rotate(15 452.927 521.846)" fill="#697EED"/>
<path d="M544.941 424.595C566.754 429.61 570.011 436.57 566.61 453.241L541.175 548.816L517.6 637.398C511.496 652.698 503.626 661.601 479.664 655.834L474.939 654.563L424.151 640.9L368.637 625.965L366.275 625.33C349.618 621.091 338.501 611.984 340.23 599.536L365.913 498.725L389.804 404.947C392.697 390.482 403.496 385.96 418.106 389.016L429.85 392.311L483.872 407.464L537.895 422.618L544.941 424.595Z" fill="#1B2A77"/>
<path d="M429.85 392.311L418.106 389.016C403.496 385.96 392.697 390.482 389.804 404.947L365.913 498.725M429.85 392.311L413.557 453.622L430.85 485.12M429.85 392.311L483.872 407.464M430.85 485.12L462.118 492.415M430.85 485.12L423.244 513M493.385 499.711L522.852 481.763L537.895 422.618M493.385 499.711L462.118 492.415M493.385 499.711L484.688 533.684M537.895 422.618L544.941 424.595C566.754 429.61 570.011 436.57 566.61 453.241L541.175 548.816M537.895 422.618L483.872 407.464M483.872 407.464L462.118 492.415M413.737 547.85L384.271 565.798L368.637 625.965M413.737 547.85L445.005 555.146L424.151 640.9M413.737 547.85L423.244 513M368.637 625.965L366.275 625.33C349.618 621.091 338.501 611.984 340.23 599.536L365.913 498.725M368.637 625.965L424.151 640.9M424.151 640.9L474.939 654.563M365.913 498.725L423.244 513M474.939 654.563L479.664 655.834C503.626 661.601 511.496 652.698 517.6 637.398L541.175 548.816M474.939 654.563L491.519 592.758L475.99 567.656L484.688 533.684M484.688 533.684L541.175 548.816" stroke="white"/>
<rect x="267.156" y="881.38" width="171.514" height="5.04453" rx="2.52227" transform="rotate(15 267.156 881.38)" fill="white"/>
<path fill-rule="evenodd" clip-rule="evenodd" d="M24.6503 112.488C22.2799 108.908 18.2163 106.547 13.6013 106.547C6.28797 106.547 0.359375 112.476 0.359375 119.789C0.359375 127.102 6.28797 133.031 13.6013 133.031C20.9146 133.031 26.8432 127.102 26.8432 119.789C26.8432 117.627 26.3251 115.586 25.4064 113.784C162.936 29.4206 391.246 2.59181 596.563 92.7255C627.114 107.32 642.535 123.699 645.471 139.718L646.946 139.448C643.875 122.688 627.87 106.016 597.198 91.3666L597.188 91.3615L597.177 91.3567C391.441 1.03452 162.623 27.869 24.6503 112.488ZM52.858 432.595C102.679 392.669 171.899 357.665 283.207 313.42L283.761 314.813C172.498 359.041 103.458 393.974 53.8231 433.744C39.9979 447.102 31.4789 458.932 28.0592 469.492C24.6562 480 26.2906 489.276 32.8719 497.666C39.493 506.107 51.1551 513.691 67.8906 520.629C84.6072 527.559 106.307 533.813 132.918 539.64C220.92 553.745 312.801 559.975 401.951 566.02C438.28 568.483 474.156 570.916 509.131 573.838C629.878 583.926 739.9 599.853 820.45 643.129C849.024 658.48 862.581 685.016 862.687 712.892C862.793 740.749 849.471 769.924 824.356 790.659C776.217 830.404 686.064 867.835 578.754 892.047L578.424 890.583C685.65 866.391 775.531 829.025 823.401 789.503C848.189 769.038 861.291 740.28 861.187 712.898C861.083 685.535 847.798 659.524 819.741 644.45C739.497 601.339 629.767 585.422 509.006 575.332C474.083 572.415 438.239 569.984 401.927 567.522L401.922 567.522C312.738 561.475 220.739 555.237 132.66 541.117L132.639 541.114L132.618 541.11C105.956 535.272 84.1532 528.995 67.3162 522.015C50.4937 515.041 38.549 507.334 31.6917 498.592C24.7947 489.799 23.0792 480.001 26.6322 469.03C30.1663 458.117 38.9009 446.072 52.8059 432.641L52.8309 432.617L52.858 432.595ZM70.352 888.696C75.3306 888.696 79.6676 885.948 81.9292 881.887C147.502 904.613 215.676 916.184 289.76 919.082L289.819 917.583C215.922 914.693 147.948 903.16 82.5872 880.527C83.2359 878.965 83.5939 877.251 83.5939 875.454C83.5939 868.14 77.6653 862.212 70.352 862.212C63.0387 862.212 57.1101 868.14 57.1101 875.454C57.1101 882.767 63.0387 888.696 70.352 888.696Z" fill="white"/>
<g opacity="0.1" filter="url(#filter1_f_2201_379)">
<path fill-rule="evenodd" clip-rule="evenodd" d="M24.6503 131.405C22.2799 127.825 18.2163 125.464 13.6013 125.464C6.28797 125.464 0.359375 131.393 0.359375 138.706C0.359375 146.019 6.28797 151.948 13.6013 151.948C20.9146 151.948 26.8432 146.019 26.8432 138.706C26.8432 136.544 26.3251 134.503 25.4064 132.701C162.936 48.3375 391.246 21.5087 596.563 111.642C627.114 126.237 642.535 142.616 645.471 158.635L646.946 158.365C643.875 141.605 627.87 124.933 597.198 110.284L597.188 110.278L597.177 110.274C391.441 19.9514 162.623 46.7859 24.6503 131.405ZM52.858 451.512C102.679 411.586 171.899 376.581 283.207 332.336L283.761 333.73C172.498 377.958 103.458 412.891 53.8231 452.661C39.9979 466.019 31.4789 477.849 28.0592 488.409C24.6562 498.917 26.2906 508.193 32.8719 516.583C39.493 525.024 51.1551 532.608 67.8906 539.546C84.6072 546.476 106.307 552.73 132.918 558.557C220.92 572.662 312.801 578.892 401.951 584.937C438.28 587.4 474.156 589.832 509.131 592.755C629.878 602.843 739.9 618.77 820.45 662.046C849.024 677.397 862.581 703.933 862.687 731.809C862.793 759.666 849.471 788.841 824.356 809.576C776.217 849.321 686.064 886.752 578.754 910.963L578.424 909.5C685.65 885.308 775.531 847.942 823.401 808.42C848.189 787.954 861.291 759.197 861.187 731.815C861.083 704.452 847.798 678.441 819.741 663.367C739.497 620.256 629.767 604.339 509.006 594.249C474.083 591.331 438.239 588.901 401.927 586.439L401.922 586.439C312.738 580.392 220.739 574.154 132.66 560.034L132.639 560.031L132.618 560.026C105.956 554.189 84.1532 547.912 67.3162 540.932C50.4937 533.958 38.549 526.251 31.6917 517.509C24.7947 508.716 23.0792 498.917 26.6322 487.947C30.1663 477.034 38.9009 464.989 52.8059 451.558L52.8309 451.534L52.858 451.512ZM70.352 907.613C75.3306 907.613 79.6676 904.865 81.9292 900.803C147.502 923.53 215.676 935.101 289.76 937.999L289.819 936.5C215.922 933.61 147.948 922.077 82.5872 899.444C83.2359 897.881 83.5939 896.168 83.5939 894.371C83.5939 887.057 77.6653 881.129 70.352 881.129C63.0387 881.129 57.1101 887.057 57.1101 894.371C57.1101 901.684 63.0387 907.613 70.352 907.613Z" fill="white"/>
</g>
<path d="M84.1846 208.301C83.8831 207.384 82.5863 207.384 82.2847 208.301L77.3404 223.333C77.0388 224.25 76.5259 225.084 75.8432 225.767C75.1605 226.449 74.327 226.962 73.4099 227.264L58.3778 232.208C57.4611 232.51 57.4611 233.806 58.3778 234.108L73.4099 239.052C74.327 239.354 75.1605 239.867 75.8432 240.549C76.5259 241.232 77.0388 242.066 77.3404 242.983L82.2847 258.015C82.5863 258.932 83.8831 258.932 84.1846 258.015L89.1289 242.983C89.4306 242.066 89.9434 241.232 90.6261 240.549C91.3088 239.867 92.1423 239.354 93.0594 239.052L108.092 234.108C109.008 233.806 109.008 232.51 108.092 232.208L93.0594 227.264C92.1423 226.962 91.3088 226.449 90.6261 225.767C89.9434 225.084 89.4306 224.25 89.1289 223.333L84.1846 208.301Z" fill="white"/>
<path d="M17.3447 339.459C17.0431 338.542 15.7463 338.542 15.4448 339.459L12.9118 347.16C12.7335 347.702 12.4305 348.194 12.0271 348.598C11.6236 349.001 11.1311 349.304 10.5892 349.482L2.88806 352.015C1.97132 352.317 1.97133 353.614 2.88806 353.915L10.5892 356.448C11.1311 356.627 11.6236 356.93 12.0271 357.333C12.4305 357.736 12.7335 358.229 12.9118 358.771L15.4448 366.472C15.7463 367.389 17.0431 367.389 17.3447 366.472L19.8777 358.771C20.0559 358.229 20.359 357.736 20.7624 357.333C21.1658 356.93 21.6583 356.627 22.2003 356.448L29.9014 353.915C30.8181 353.614 30.8181 352.317 29.9014 352.015L22.2003 349.482C21.6583 349.304 21.1658 349.001 20.7624 348.598C20.359 348.194 20.0559 347.702 19.8777 347.16L17.3447 339.459Z" fill="white"/>
<path d="M863.923 508.199C863.622 507.283 862.325 507.283 862.023 508.199L859.49 515.901C859.312 516.443 859.009 516.935 858.606 517.338C858.202 517.742 857.71 518.045 857.168 518.223L849.467 520.756C848.55 521.058 848.55 522.355 849.467 522.656L857.168 525.189C857.71 525.367 858.202 525.67 858.606 526.074C859.009 526.477 859.312 526.97 859.49 527.512L862.023 535.213C862.325 536.13 863.622 536.13 863.923 535.213L866.456 527.512C866.635 526.97 866.938 526.477 867.341 526.074C867.744 525.67 868.237 525.367 868.779 525.189L876.48 522.656C877.397 522.355 877.397 521.058 876.48 520.756L868.779 518.223C868.237 518.045 867.744 517.742 867.341 517.338C866.938 516.935 866.635 516.443 866.456 515.901L863.923 508.199Z" fill="white"/>
</g>
<defs>
<filter id="filter0_f_2201_379" x="-63" y="-31" width="1083" height="1083" filterUnits="userSpaceOnUse" color-interpolation-filters="sRGB">
<feFlood flood-opacity="0" result="BackgroundImageFix"/>
<feBlend mode="normal" in="SourceGraphic" in2="BackgroundImageFix" result="shape"/>
<feGaussianBlur stdDeviation="100" result="effect1_foregroundBlur_2201_379"/>
</filter>
<filter id="filter1_f_2201_379" x="-3.64062" y="50.0218" width="870.329" height="891.977" filterUnits="userSpaceOnUse" color-interpolation-filters="sRGB">
<feFlood flood-opacity="0" result="BackgroundImageFix"/>
<feBlend mode="normal" in="SourceGraphic" in2="BackgroundImageFix" result="shape"/>
<feGaussianBlur stdDeviation="2" result="effect1_foregroundBlur_2201_379"/>
</filter>
<linearGradient id="paint0_linear_2201_379" x1="271.726" y1="596.128" x2="868.499" y2="596.128" gradientUnits="userSpaceOnUse">
<stop stop-color="#697EED"/>
<stop offset="0.499834" stop-color="#697EED" stop-opacity="0"/>
<stop offset="1" stop-color="#697EED"/>
</linearGradient>
<linearGradient id="paint1_linear_2201_379" x1="846.897" y1="448.562" x2="693.518" y2="448.561" gradientUnits="userSpaceOnUse">
<stop stop-color="#EC26CC"/>
<stop offset="1" stop-color="#D9D9D9" stop-opacity="0"/>
</linearGradient>
<linearGradient id="paint2_linear_2201_379" x1="884.702" y1="298.484" x2="729.163" y2="298.484" gradientUnits="userSpaceOnUse">
<stop stop-color="#EC26CC"/>
<stop offset="1" stop-color="#D9D9D9" stop-opacity="0"/>
</linearGradient>
<linearGradient id="paint3_linear_2201_379" x1="271.726" y1="749.986" x2="868.499" y2="749.986" gradientUnits="userSpaceOnUse">
<stop stop-color="#697EED"/>
<stop offset="0.499834" stop-color="#697EED" stop-opacity="0"/>
<stop offset="1" stop-color="#697EED"/>
</linearGradient>
<linearGradient id="paint4_linear_2201_379" x1="925.746" y1="897.521" x2="705.398" y2="898.446" gradientUnits="userSpaceOnUse">
<stop stop-color="#EC26CC"/>
<stop offset="1" stop-color="#D9D9D9" stop-opacity="0"/>
</linearGradient>
<linearGradient id="paint5_linear_2201_379" x1="663.274" y1="780.869" x2="663.274" y2="343.886" gradientUnits="userSpaceOnUse">
<stop stop-color="#EC26CC"/>
<stop offset="1" stop-color="#D9D9D9" stop-opacity="0"/>
</linearGradient>
<linearGradient id="paint6_linear_2201_379" x1="321.316" y1="922.746" x2="652.994" y2="-65.3512" gradientUnits="userSpaceOnUse">
<stop stop-color="#0B1F37"/>
<stop offset="1" stop-color="#0B1020"/>
</linearGradient>
<clipPath id="clip0_2201_379">
<rect width="1037" height="1022" fill="white"/>
</clipPath>
</defs>
</svg>
