<svg width="1037" height="1022" viewBox="0 0 1037 1022" fill="none" xmlns="http://www.w3.org/2000/svg">
<g clip-path="url(#clip0_2155_649)">
<g opacity="0.1" filter="url(#filter0_f_2155_649)">
<circle cx="480.5" cy="461.5" r="347.5" fill="#383838"/>
</g>
<g opacity="0.2">
<rect x="166" y="746" width="748" height="1" fill="url(#paint0_linear_2155_649)"/>
<rect x="541" y="629" width="373" height="1" fill="url(#paint1_linear_2155_649)"/>
<rect x="541" y="509" width="373" height="1" fill="url(#paint2_linear_2155_649)"/>
<rect x="166" y="868" width="748" height="1" fill="url(#paint3_linear_2155_649)"/>
<rect x="594" y="985" width="443" height="1" fill="url(#paint4_linear_2155_649)"/>
<rect opacity="0.1" x="569" y="450" width="1" height="396" fill="#D9D9D9"/>
<rect x="691" y="450" width="1" height="572" fill="url(#paint5_linear_2155_649)"/>
<rect x="809" y="450" width="1" height="572" fill="url(#paint6_linear_2155_649)"/>
</g>
<g opacity="0.01">
<path d="M402.8 832.2C385.6 832.2 369 830.1 353 825.9C337.2 821.5 324.3 815.9 314.3 809.1L333.8 765.3C343.2 771.3 354 776.3 366.2 780.3C378.6 784.1 390.9 786 403.1 786C411.3 786 417.9 785.3 422.9 783.9C427.9 782.3 431.5 780.3 433.7 777.9C436.1 775.3 437.3 772.3 437.3 768.9C437.3 764.1 435.1 760.3 430.7 757.5C426.3 754.7 420.6 752.4 413.6 750.6C406.6 748.8 398.8 747 390.2 745.2C381.8 743.4 373.3 741.1 364.7 738.3C356.3 735.5 348.6 731.9 341.6 727.5C334.6 722.9 328.9 717 324.5 709.8C320.1 702.4 317.9 693.1 317.9 681.9C317.9 669.3 321.3 657.9 328.1 647.7C335.1 637.5 345.5 629.3 359.3 623.1C373.1 616.9 390.3 613.8 410.9 613.8C424.7 613.8 438.2 615.4 451.4 618.6C464.8 621.6 476.7 626.1 487.1 632.1L468.8 676.2C458.8 670.8 448.9 666.8 439.1 664.2C429.3 661.4 419.8 660 410.6 660C402.4 660 395.8 660.9 390.8 662.7C385.8 664.3 382.2 666.5 380 669.3C377.8 672.1 376.7 675.3 376.7 678.9C376.7 683.5 378.8 687.2 383 690C387.4 692.6 393.1 694.8 400.1 696.6C407.3 698.2 415.1 699.9 423.5 701.7C432.1 703.5 440.6 705.8 449 708.6C457.6 711.2 465.4 714.8 472.4 719.4C479.4 723.8 485 729.7 489.2 737.1C493.6 744.3 495.8 753.4 495.8 764.4C495.8 776.6 492.3 787.9 485.3 798.3C478.5 808.5 468.2 816.7 454.4 822.9C440.8 829.1 423.6 832.2 402.8 832.2Z" fill="#1E1E1E"/>
<path d="M523.238 828V618H572.138L659.138 760.8H633.338L717.938 618H766.838L767.438 828H712.838L712.238 701.1H721.538L658.238 807.3H631.838L566.738 701.1H578.138V828H523.238Z" fill="#1E1E1E"/>
<path d="M883.269 832.2C866.069 832.2 849.469 830.1 833.469 825.9C817.669 821.5 804.769 815.9 794.769 809.1L814.269 765.3C823.669 771.3 834.469 776.3 846.669 780.3C859.069 784.1 871.369 786 883.569 786C891.769 786 898.369 785.3 903.369 783.9C908.369 782.3 911.969 780.3 914.169 777.9C916.569 775.3 917.769 772.3 917.769 768.9C917.769 764.1 915.569 760.3 911.169 757.5C906.769 754.7 901.069 752.4 894.069 750.6C887.069 748.8 879.269 747 870.669 745.2C862.269 743.4 853.769 741.1 845.169 738.3C836.769 735.5 829.069 731.9 822.069 727.5C815.069 722.9 809.369 717 804.969 709.8C800.569 702.4 798.369 693.1 798.369 681.9C798.369 669.3 801.769 657.9 808.569 647.7C815.569 637.5 825.969 629.3 839.769 623.1C853.569 616.9 870.769 613.8 891.369 613.8C905.169 613.8 918.669 615.4 931.869 618.6C945.269 621.6 957.169 626.1 967.569 632.1L949.269 676.2C939.269 670.8 929.369 666.8 919.569 664.2C909.769 661.4 900.269 660 891.069 660C882.869 660 876.269 660.9 871.269 662.7C866.269 664.3 862.669 666.5 860.469 669.3C858.269 672.1 857.169 675.3 857.169 678.9C857.169 683.5 859.269 687.2 863.469 690C867.869 692.6 873.569 694.8 880.569 696.6C887.769 698.2 895.569 699.9 903.969 701.7C912.569 703.5 921.069 705.8 929.469 708.6C938.069 711.2 945.869 714.8 952.869 719.4C959.869 723.8 965.469 729.7 969.669 737.1C974.069 744.3 976.269 753.4 976.269 764.4C976.269 776.6 972.769 787.9 965.769 798.3C958.969 808.5 948.669 816.7 934.869 822.9C921.269 829.1 904.069 832.2 883.269 832.2Z" fill="#1E1E1E"/>
</g>
<path d="M245.512 237.32C245.798 236.253 246.894 235.62 247.961 235.906V235.906C249.028 236.192 249.661 237.288 249.376 238.355L243.423 260.572C243.137 261.639 242.04 262.272 240.973 261.986V261.986C239.906 261.7 239.273 260.603 239.559 259.536L245.512 237.32Z" fill="#1E1E1E"/>
<path d="M232.795 286.712C233.081 285.645 234.178 285.012 235.245 285.297V285.297C236.312 285.583 236.945 286.68 236.659 287.747L224.235 334.111C223.95 335.178 222.853 335.811 221.786 335.526V335.526C220.719 335.24 220.086 334.143 220.372 333.076L232.795 286.712Z" fill="#1E1E1E"/>
<path d="M215.713 350.463C215.999 349.396 217.096 348.763 218.163 349.048V349.048C219.229 349.334 219.863 350.431 219.577 351.498L207.153 397.862C206.868 398.929 205.771 399.562 204.704 399.277V399.277C203.637 398.991 203.004 397.894 203.29 396.827L215.713 350.463Z" fill="#1E1E1E"/>
<path d="M263.153 190.801L117.309 735.1C110.062 762.146 115.899 782.862 159.365 794.509L384.909 854.943C422.097 864.908 442.047 854.207 450.07 824.263L596.044 279.481C604.067 249.537 593.186 218.669 557.929 209.222L344.46 152.023C298.095 139.6 273.247 153.129 263.153 190.801Z" fill="url(#paint7_linear_2155_649)" stroke="#383838"/>
<rect x="382.81" y="186.628" width="115" height="28" rx="14" transform="rotate(15 382.81 186.628)" stroke="#383838"/>
<circle cx="394.995" cy="204.904" r="4" transform="rotate(15 394.995 204.904)" fill="#383838"/>
<circle opacity="0.1" cx="358.695" cy="502.655" r="125" transform="rotate(15 358.695 502.655)" fill="#383838"/>
<circle opacity="0.2" cx="358.859" cy="500.111" r="92.5" transform="rotate(15 358.859 500.111)" fill="#383838"/>
<path d="M431.82 422.997C449.117 426.974 451.699 432.492 449.002 445.712L428.834 521.497L410.14 591.737C405.3 603.869 399.06 610.928 380.059 606.356L376.313 605.348L336.041 594.514L292.022 582.671L290.149 582.168C276.941 578.807 268.126 571.585 269.497 561.714L289.862 481.778L308.806 407.418C311.1 395.948 319.663 392.362 331.248 394.786L340.56 397.398L383.396 409.414L426.233 421.43L431.82 422.997Z" fill="#CCCCCC"/>
<path d="M340.56 397.398L331.248 394.786C319.663 392.362 311.1 395.948 308.806 407.418L289.862 481.778M340.56 397.398L327.64 446.013L341.353 470.99M340.56 397.398L383.396 409.414M341.353 470.99L366.146 476.775M341.353 470.99L335.322 493.097M390.939 482.559L414.305 468.327L426.233 421.43M390.939 482.559L366.146 476.775M390.939 482.559L384.043 509.498M426.233 421.43L431.82 422.997C449.117 426.974 451.699 432.492 449.002 445.712L428.834 521.497M426.233 421.43L383.396 409.414M383.396 409.414L366.146 476.775M327.784 520.731L304.418 534.963L292.022 582.671M327.784 520.731L352.577 526.516L336.041 594.514M327.784 520.731L335.322 493.097M292.022 582.671L290.149 582.168C276.941 578.807 268.126 571.585 269.497 561.714L289.862 481.778M292.022 582.671L336.041 594.514M336.041 594.514L376.313 605.348M289.862 481.778L335.322 493.097M376.313 605.348L380.059 606.356C399.06 610.928 405.3 603.869 410.14 591.737L428.834 521.497M376.313 605.348L389.46 556.34L377.146 536.436L384.043 509.498M384.043 509.498L428.834 521.497" stroke="#1E1E1E"/>
<rect x="211.553" y="785.199" width="136" height="4" rx="2" transform="rotate(15 211.553 785.199)" fill="#1E1E1E"/>
<path fill-rule="evenodd" clip-rule="evenodd" d="M19.1744 175.386C17.2834 172.62 14.1037 170.805 10.5 170.805C4.70101 170.805 0 175.506 0 181.305C0 187.104 4.70101 191.805 10.5 191.805C16.299 191.805 21 187.104 21 181.305C21 179.646 20.6154 178.077 19.9305 176.682C128.936 109.81 309.924 88.5339 472.687 159.986C496.9 171.552 509.067 184.509 511.38 197.135L512.856 196.865C510.407 183.499 497.656 170.249 473.323 158.627L473.312 158.622L473.301 158.617C310.118 86.9766 128.622 108.258 19.1744 175.386ZM41.531 429.219C81.0549 397.545 135.96 369.782 224.223 334.697L224.777 336.091C136.559 371.158 81.8344 398.85 42.4961 430.368C31.5434 440.952 24.8115 450.309 22.112 458.645C19.4291 466.929 20.7167 474.231 25.9026 480.842C31.1282 487.504 40.3463 493.505 53.6075 499.002C66.8498 504.492 84.0446 509.448 105.14 514.067C174.911 525.251 247.754 530.19 318.44 534.982C347.249 536.936 375.699 538.865 403.437 541.182C499.181 549.182 586.452 561.812 650.355 596.144C673.066 608.345 683.844 629.441 683.928 651.598C684.012 673.736 673.426 696.914 653.477 713.383C615.278 744.921 543.764 774.608 458.665 793.808L458.335 792.345C543.35 773.164 614.592 743.542 652.523 712.226C672.144 696.027 682.51 673.267 682.428 651.604C682.346 629.96 671.839 609.389 649.645 597.465C586.048 563.298 499.069 550.678 403.313 542.677C375.625 540.364 347.204 538.437 318.411 536.484C247.691 531.689 174.73 526.742 104.881 515.545L104.86 515.542L104.84 515.537C83.694 510.908 66.3958 505.928 53.0331 500.388C39.6849 494.854 30.1843 488.731 24.7224 481.768C19.2208 474.754 17.8521 466.93 20.6849 458.183C23.4989 449.494 30.4464 439.922 41.4789 429.265L41.5039 429.241L41.531 429.219ZM55.5 791C59.3914 791 62.7883 788.883 64.6021 785.738C116.622 803.771 170.704 812.951 229.471 815.249L229.529 813.751C170.949 811.459 117.069 802.318 65.2603 784.379C65.7376 783.179 66 781.87 66 780.5C66 774.701 61.299 770 55.5 770C49.701 770 45 774.701 45 780.5C45 786.299 49.701 791 55.5 791Z" fill="#1E1E1E"/>
<g opacity="0.1" filter="url(#filter1_f_2155_649)">
<path fill-rule="evenodd" clip-rule="evenodd" d="M19.1744 190.386C17.2834 187.62 14.1037 185.805 10.5 185.805C4.70101 185.805 0 190.506 0 196.305C0 202.104 4.70101 206.805 10.5 206.805C16.299 206.805 21 202.104 21 196.305C21 194.646 20.6154 193.077 19.9305 191.682C128.936 124.81 309.924 103.534 472.687 174.986C496.9 186.552 509.067 199.509 511.38 212.135L512.856 211.865C510.407 198.499 497.656 185.249 473.323 173.627L473.312 173.622L473.301 173.617C310.118 101.977 128.622 123.258 19.1744 190.386ZM41.531 444.219C81.0549 412.545 135.96 384.782 224.223 349.697L224.777 351.091C136.559 386.158 81.8344 413.85 42.4961 445.368C31.5434 455.952 24.8115 465.309 22.112 473.645C19.4291 481.929 20.7167 489.231 25.9026 495.842C31.1282 502.504 40.3463 508.505 53.6075 514.002C66.8498 519.492 84.0446 524.448 105.14 529.067C174.911 540.251 247.754 545.19 318.44 549.982C347.249 551.936 375.699 553.865 403.437 556.182C499.181 564.182 586.452 576.812 650.355 611.144C673.066 623.345 683.844 644.441 683.928 666.598C684.012 688.736 673.426 711.914 653.477 728.383C615.278 759.921 543.764 789.608 458.665 808.808L458.335 807.345C543.35 788.164 614.592 758.542 652.523 727.226C672.144 711.027 682.51 688.267 682.428 666.604C682.346 644.96 671.839 624.389 649.645 612.465C586.048 578.298 499.069 565.678 403.313 557.677C375.625 555.364 347.204 553.437 318.411 551.484C247.691 546.689 174.73 541.742 104.881 530.545L104.86 530.542L104.84 530.537C83.694 525.908 66.3958 520.928 53.0331 515.388C39.6849 509.854 30.1843 503.731 24.7224 496.768C19.2208 489.754 17.8521 481.93 20.6849 473.183C23.4989 464.494 30.4464 454.922 41.4789 444.265L41.5039 444.241L41.531 444.219ZM55.5 806C59.3914 806 62.7883 803.883 64.6021 800.738C116.622 818.771 170.704 827.951 229.471 830.249L229.529 828.751C170.949 826.459 117.069 817.318 65.2603 799.379C65.7376 798.179 66 796.87 66 795.5C66 789.701 61.299 785 55.5 785C49.701 785 45 789.701 45 795.5C45 801.299 49.701 806 55.5 806Z" fill="#1E1E1E"/>
</g>
</g>
<defs>
<filter id="filter0_f_2155_649" x="-67" y="-86" width="1095" height="1095" filterUnits="userSpaceOnUse" color-interpolation-filters="sRGB">
<feFlood flood-opacity="0" result="BackgroundImageFix"/>
<feBlend mode="normal" in="SourceGraphic" in2="BackgroundImageFix" result="shape"/>
<feGaussianBlur stdDeviation="100" result="effect1_foregroundBlur_2155_649"/>
</filter>
<filter id="filter1_f_2155_649" x="-4" y="125" width="691.928" height="709.25" filterUnits="userSpaceOnUse" color-interpolation-filters="sRGB">
<feFlood flood-opacity="0" result="BackgroundImageFix"/>
<feBlend mode="normal" in="SourceGraphic" in2="BackgroundImageFix" result="shape"/>
<feGaussianBlur stdDeviation="2" result="effect1_foregroundBlur_2155_649"/>
</filter>
<linearGradient id="paint0_linear_2155_649" x1="328.5" y1="746.012" x2="881" y2="746.012" gradientUnits="userSpaceOnUse">
<stop stop-color="#697EED"/>
<stop offset="0.499834" stop-color="#697EED" stop-opacity="0"/>
<stop offset="1" stop-color="#697EED"/>
</linearGradient>
<linearGradient id="paint1_linear_2155_649" x1="861" y1="629.001" x2="719" y2="629" gradientUnits="userSpaceOnUse">
<stop/>
<stop offset="1" stop-color="#D9D9D9" stop-opacity="0"/>
</linearGradient>
<linearGradient id="paint2_linear_2155_649" x1="896" y1="509.999" x2="752" y2="509.999" gradientUnits="userSpaceOnUse">
<stop/>
<stop offset="1" stop-color="#D9D9D9" stop-opacity="0"/>
</linearGradient>
<linearGradient id="paint3_linear_2155_649" x1="328.5" y1="868.012" x2="881" y2="868.012" gradientUnits="userSpaceOnUse">
<stop stop-color="#697EED"/>
<stop offset="0.499834" stop-color="#697EED" stop-opacity="0"/>
<stop offset="1" stop-color="#697EED"/>
</linearGradient>
<linearGradient id="paint4_linear_2155_649" x1="934" y1="984.998" x2="730" y2="985.998" gradientUnits="userSpaceOnUse">
<stop/>
<stop offset="1" stop-color="#D9D9D9" stop-opacity="0"/>
</linearGradient>
<linearGradient id="paint5_linear_2155_649" x1="691" y1="892.5" x2="691" y2="546" gradientUnits="userSpaceOnUse">
<stop/>
<stop offset="1" stop-color="#D9D9D9" stop-opacity="0"/>
</linearGradient>
<linearGradient id="paint6_linear_2155_649" x1="809.5" y1="637.5" x2="809.5" y2="1022" gradientUnits="userSpaceOnUse">
<stop stop-color="#D9D9D9" stop-opacity="0"/>
<stop offset="1" stop-color="#EC26CC"/>
</linearGradient>
<linearGradient id="paint7_linear_2155_649" x1="254.5" y1="818" x2="517.5" y2="34.4997" gradientUnits="userSpaceOnUse">
<stop stop-color="#0B1F37" stop-opacity="0"/>
<stop offset="1" stop-color="#0B1020"/>
</linearGradient>
<clipPath id="clip0_2155_649">
<rect width="1037" height="1022" fill="white"/>
</clipPath>
</defs>
</svg>
