<svg width="561" height="459" viewBox="0 0 561 459" fill="none" xmlns="http://www.w3.org/2000/svg">
<g opacity="0.03">
<path d="M146.014 0L271.588 72.5V217.5L146.014 290L20.4404 217.5V72.5L146.014 0Z" fill="url(#paint0_linear_13_9004)"/>
<path d="M267.514 246L359.746 299.25V405.75L267.514 459L175.282 405.75V299.25L267.514 246Z" fill="url(#paint1_linear_13_9004)"/>
<path d="M373.014 117L444.028 158V240L373.014 281L302 240V158L373.014 117Z" fill="url(#paint2_linear_13_9004)"/>
<path d="M560.279 169.965L560.608 226.464L511.843 254.999L462.749 227.035L462.42 170.536L511.185 142.001L560.279 169.965Z" fill="url(#paint3_linear_13_9004)"/>
<path d="M501.893 83.4177L498.646 130.013L456.67 150.498L417.941 124.389L421.188 77.7934L463.164 57.308L501.893 83.4177Z" fill="url(#paint4_linear_13_9004)"/>
<path d="M71.0141 271L142.028 312V394L71.0141 435L0 394V312L71.0141 271Z" fill="url(#paint5_linear_13_9004)"/>
</g>
<defs>
<linearGradient id="paint0_linear_13_9004" x1="129.514" y1="207" x2="280.304" y2="459" gradientUnits="userSpaceOnUse">
<stop/>
<stop offset="1" stop-opacity="0"/>
</linearGradient>
<linearGradient id="paint1_linear_13_9004" x1="129.514" y1="207" x2="280.304" y2="459" gradientUnits="userSpaceOnUse">
<stop/>
<stop offset="1" stop-opacity="0"/>
</linearGradient>
<linearGradient id="paint2_linear_13_9004" x1="129.514" y1="207" x2="280.304" y2="459" gradientUnits="userSpaceOnUse">
<stop/>
<stop offset="1" stop-opacity="0"/>
</linearGradient>
<linearGradient id="paint3_linear_13_9004" x1="129.514" y1="207" x2="280.304" y2="459" gradientUnits="userSpaceOnUse">
<stop/>
<stop offset="1" stop-opacity="0"/>
</linearGradient>
<linearGradient id="paint4_linear_13_9004" x1="129.514" y1="207" x2="280.304" y2="459" gradientUnits="userSpaceOnUse">
<stop/>
<stop offset="1" stop-opacity="0"/>
</linearGradient>
<linearGradient id="paint5_linear_13_9004" x1="129.514" y1="207" x2="280.304" y2="459" gradientUnits="userSpaceOnUse">
<stop/>
<stop offset="1" stop-opacity="0"/>
</linearGradient>
</defs>
</svg>
