<svg width="157" height="43" viewBox="0 0 157 43" fill="none" xmlns="http://www.w3.org/2000/svg">
<path d="M47.7507 1.44716C51.0201 0.44435 51.9827 1.1165 52.8063 3.58217L56.742 18.1713L60.3897 31.693C60.7508 34.1839 60.3897 35.963 56.7786 37.0305L56.0564 37.2233L48.2924 39.2952L39.8063 41.56L39.4451 41.6564C36.9173 42.368 34.7507 42.0122 34.0284 40.233L29.7255 24.9322L25.7228 10.6988C25.0006 8.56384 26.0839 7.1405 28.2506 6.42883L30.0562 5.96756L38.3618 3.84574L46.6674 1.72392L47.7507 1.44716Z" fill="#697EED"/>
<path d="M30.0562 5.96756L28.2506 6.42883C26.0839 7.1405 25.0006 8.56384 25.7228 10.6988L29.7255 24.9322M30.0562 5.96756L32.584 15.3247L37.2785 18.1713M30.0562 5.96756L38.3618 3.84574M29.7255 24.9322L34.0284 40.233C34.7507 42.0122 36.9173 42.368 39.4451 41.6564L39.8063 41.56M29.7255 24.9322L38.4019 22.4413M37.2785 18.1713L41.9729 16.748M37.2785 18.1713L38.4019 22.4413M38.3618 3.84574L46.6674 1.72392M38.3618 3.84574L41.9729 16.748M41.9729 16.748L46.6674 15.3247M38.4019 22.4413L39.8063 27.7788M46.6674 15.3247L49.1952 10.6988L46.6674 1.72392M46.6674 15.3247L48.1119 20.4843M46.6674 1.72392L47.7507 1.44716C51.0201 0.44435 51.9827 1.1165 52.8063 3.58217L56.742 18.1713M48.1119 20.4843L49.5563 25.6438L53.5286 27.7788L56.0564 37.2233M48.1119 20.4843L56.742 18.1713M56.742 18.1713L60.3897 31.693C60.7508 34.1839 60.3897 35.963 56.7786 37.0305L56.0564 37.2233M39.8063 27.7788L37.2785 32.4047L39.8063 41.56M39.8063 27.7788L44.5007 26.3555L48.2924 39.2952M39.8063 41.56L48.2924 39.2952M48.2924 39.2952L56.0564 37.2233" stroke="white"/>
<path d="M0 13.5H18M8 35H26M18 40H28.5M16 24.5H24" stroke="white"/>
<path d="M81.9 28.28C80.7933 28.28 79.7667 28.1067 78.82 27.76C77.8733 27.4 77.0533 26.8933 76.36 26.24C75.68 25.5867 75.1467 24.82 74.76 23.94C74.3733 23.0467 74.18 22.0667 74.18 21C74.18 19.9333 74.3733 18.96 74.76 18.08C75.1467 17.1867 75.6867 16.4133 76.38 15.76C77.0733 15.1067 77.8933 14.6067 78.84 14.26C79.8 13.9 80.8467 13.72 81.98 13.72C83.3 13.72 84.48 13.94 85.52 14.38C86.56 14.82 87.42 15.4533 88.1 16.28L85.58 18.56C85.1 18.04 84.58 17.6533 84.02 17.4C83.4733 17.1333 82.86 17 82.18 17C81.58 17 81.0333 17.0933 80.54 17.28C80.0467 17.4667 79.6267 17.74 79.28 18.1C78.9333 18.4467 78.66 18.8667 78.46 19.36C78.2733 19.84 78.18 20.3867 78.18 21C78.18 21.5867 78.2733 22.1267 78.46 22.62C78.66 23.1133 78.9333 23.54 79.28 23.9C79.6267 24.2467 80.04 24.52 80.52 24.72C81.0133 24.9067 81.5533 25 82.14 25C82.7267 25 83.3 24.9067 83.86 24.72C84.42 24.52 84.9867 24.1867 85.56 23.72L87.78 26.5C86.98 27.0733 86.0533 27.5133 85 27.82C83.9467 28.1267 82.9133 28.28 81.9 28.28ZM84.28 25.98V20.7H87.78V26.5L84.28 25.98ZM95.5506 28.18C94.364 28.18 93.3106 27.94 92.3906 27.46C91.4706 26.98 90.744 26.32 90.2106 25.48C89.6906 24.6267 89.4306 23.6533 89.4306 22.56C89.4306 21.4667 89.6906 20.5 90.2106 19.66C90.744 18.82 91.4706 18.1667 92.3906 17.7C93.3106 17.22 94.364 16.98 95.5506 16.98C96.7373 16.98 97.7906 17.22 98.7106 17.7C99.644 18.1667 100.371 18.82 100.891 19.66C101.411 20.5 101.671 21.4667 101.671 22.56C101.671 23.6533 101.411 24.6267 100.891 25.48C100.371 26.32 99.644 26.98 98.7106 27.46C97.7906 27.94 96.7373 28.18 95.5506 28.18ZM95.5506 25.16C95.9906 25.16 96.3773 25.06 96.7106 24.86C97.0573 24.66 97.3306 24.3667 97.5306 23.98C97.7306 23.58 97.8306 23.1067 97.8306 22.56C97.8306 22.0133 97.7306 21.5533 97.5306 21.18C97.3306 20.7933 97.0573 20.5 96.7106 20.3C96.3773 20.1 95.9906 20 95.5506 20C95.124 20 94.7373 20.1 94.3906 20.3C94.0573 20.5 93.784 20.7933 93.5706 21.18C93.3706 21.5533 93.2706 22.0133 93.2706 22.56C93.2706 23.1067 93.3706 23.58 93.5706 23.98C93.784 24.3667 94.0573 24.66 94.3906 24.86C94.7373 25.06 95.124 25.16 95.5506 25.16ZM108.271 28.18C106.884 28.18 105.804 27.84 105.031 27.16C104.258 26.4667 103.871 25.4267 103.871 24.04V14.74H107.671V24C107.671 24.3867 107.778 24.6933 107.991 24.92C108.204 25.1333 108.478 25.24 108.811 25.24C109.264 25.24 109.651 25.1267 109.971 24.9L110.911 27.56C110.591 27.7733 110.198 27.9267 109.731 28.02C109.264 28.1267 108.778 28.18 108.271 28.18ZM102.291 20.4V17.56H110.151V20.4H102.291ZM117.476 28.28C116.33 28.28 115.223 28.14 114.156 27.86C113.103 27.5667 112.243 27.1933 111.576 26.74L112.876 23.82C113.503 24.22 114.223 24.5533 115.036 24.82C115.863 25.0733 116.683 25.2 117.496 25.2C118.043 25.2 118.483 25.1533 118.816 25.06C119.15 24.9533 119.39 24.82 119.536 24.66C119.696 24.4867 119.776 24.2867 119.776 24.06C119.776 23.74 119.63 23.4867 119.336 23.3C119.043 23.1133 118.663 22.96 118.196 22.84C117.73 22.72 117.21 22.6 116.636 22.48C116.076 22.36 115.51 22.2067 114.936 22.02C114.376 21.8333 113.863 21.5933 113.396 21.3C112.93 20.9933 112.55 20.6 112.256 20.12C111.963 19.6267 111.816 19.0067 111.816 18.26C111.816 17.42 112.043 16.66 112.496 15.98C112.963 15.3 113.656 14.7533 114.576 14.34C115.496 13.9267 116.643 13.72 118.016 13.72C118.936 13.72 119.836 13.8267 120.716 14.04C121.61 14.24 122.403 14.54 123.096 14.94L121.876 17.88C121.21 17.52 120.55 17.2533 119.896 17.08C119.243 16.8933 118.61 16.8 117.996 16.8C117.45 16.8 117.01 16.86 116.676 16.98C116.343 17.0867 116.103 17.2333 115.956 17.42C115.81 17.6067 115.736 17.82 115.736 18.06C115.736 18.3667 115.876 18.6133 116.156 18.8C116.45 18.9733 116.83 19.12 117.296 19.24C117.776 19.3467 118.296 19.46 118.856 19.58C119.43 19.7 119.996 19.8533 120.556 20.04C121.13 20.2133 121.65 20.4533 122.116 20.76C122.583 21.0533 122.956 21.4467 123.236 21.94C123.53 22.42 123.676 23.0267 123.676 23.76C123.676 24.5733 123.443 25.3267 122.976 26.02C122.523 26.7 121.836 27.2467 120.916 27.66C120.01 28.0733 118.863 28.28 117.476 28.28ZM125.505 28V14H128.765L134.565 23.52H132.845L138.485 14H141.745L141.785 28H138.145L138.105 19.54H138.725L134.505 26.62H132.745L128.405 19.54H129.165V28H125.505ZM149.508 28.28C148.361 28.28 147.254 28.14 146.188 27.86C145.134 27.5667 144.274 27.1933 143.608 26.74L144.908 23.82C145.534 24.22 146.254 24.5533 147.068 24.82C147.894 25.0733 148.714 25.2 149.528 25.2C150.074 25.2 150.514 25.1533 150.848 25.06C151.181 24.9533 151.421 24.82 151.568 24.66C151.728 24.4867 151.808 24.2867 151.808 24.06C151.808 23.74 151.661 23.4867 151.368 23.3C151.074 23.1133 150.694 22.96 150.228 22.84C149.761 22.72 149.241 22.6 148.668 22.48C148.108 22.36 147.541 22.2067 146.968 22.02C146.408 21.8333 145.894 21.5933 145.428 21.3C144.961 20.9933 144.581 20.6 144.288 20.12C143.994 19.6267 143.847 19.0067 143.847 18.26C143.847 17.42 144.074 16.66 144.528 15.98C144.994 15.3 145.688 14.7533 146.608 14.34C147.528 13.9267 148.674 13.72 150.048 13.72C150.968 13.72 151.868 13.8267 152.748 14.04C153.641 14.24 154.434 14.54 155.128 14.94L153.908 17.88C153.241 17.52 152.581 17.2533 151.928 17.08C151.274 16.8933 150.641 16.8 150.028 16.8C149.481 16.8 149.041 16.86 148.708 16.98C148.374 17.0867 148.134 17.2333 147.988 17.42C147.841 17.6067 147.768 17.82 147.768 18.06C147.768 18.3667 147.908 18.6133 148.188 18.8C148.481 18.9733 148.861 19.12 149.328 19.24C149.808 19.3467 150.328 19.46 150.888 19.58C151.461 19.7 152.028 19.8533 152.588 20.04C153.161 20.2133 153.681 20.4533 154.148 20.76C154.614 21.0533 154.988 21.4467 155.268 21.94C155.561 22.42 155.708 23.0267 155.708 23.76C155.708 24.5733 155.474 25.3267 155.008 26.02C154.554 26.7 153.868 27.2467 152.948 27.66C152.041 28.0733 150.894 28.28 149.508 28.28Z" fill="white"/>
</svg>
