<svg width="722" height="640" viewBox="0 0 722 640" fill="none" xmlns="http://www.w3.org/2000/svg">
<path d="M47.5848 640V503.445M353.489 640V503.445M353.489 503.445H47.5848M353.489 503.445V468.162M47.5848 503.445V468.162M47.5848 468.162V449.215C47.5848 444.617 47.9958 440.249 48.7406 436.147M47.5848 468.162H353.489M353.489 468.162V451.175C353.489 446.529 352.93 441.367 351.854 436.147M351.854 436.147C348.09 417.877 338.005 398.905 323.465 398.905L78.7418 398.905C67.2258 398.905 52.8648 413.436 48.7406 436.147M351.854 436.147H48.7406" stroke="white"/>
<path opacity="0.7" d="M54.9491 640V452.482C54.9491 428.307 66.2789 407.399 83.8401 407.399H316.667C334.795 407.399 345.558 430.267 345.558 452.482V640" stroke="white" stroke-dasharray="5 5"/>
<path d="M0 141.781C0 140.53 1.0145 139.515 2.26596 139.515C3.51741 139.515 4.53191 140.53 4.53191 141.781V172.531C4.53191 173.783 3.51741 174.797 2.26596 174.797C1.0145 174.797 0 173.783 0 172.531V141.781Z" fill="white"/>
<path d="M0.566162 208.426C0.566162 207.174 1.58067 206.16 2.83212 206.16C4.08357 206.16 5.09808 207.174 5.09808 208.426V271.845C5.09808 273.096 4.08357 274.111 2.83212 274.111C1.58067 274.111 0.566162 273.096 0.566162 271.845V208.426Z" fill="white"/>
<path d="M0.566162 294.671C0.566162 293.419 1.58067 292.405 2.83212 292.405C4.08357 292.405 5.09808 293.419 5.09808 294.671V358.09C5.09808 359.341 4.08357 360.356 2.83212 360.356C1.58067 360.356 0.566162 359.341 0.566162 358.09V294.671Z" fill="white"/>
<path d="M5.66431 640V77.4448C5.66431 26.4816 28.8904 1 83.2734 1H333.662C375.015 1 395.976 36.2822 395.976 76.7914V640" stroke="#697EED"/>
<path d="M102.94 453.856C107.494 452.238 108.835 453.323 109.982 457.302L115.465 480.843L120.546 502.663C120.595 503.056 120.635 503.439 120.662 503.811L112.726 503.868L100.744 503.954L80.8269 504.098L77.8299 491.753L72.254 468.785C71.2479 465.34 72.7571 463.043 75.7753 461.895L78.2905 461.151L89.8605 457.727L101.431 454.303L102.94 453.856Z" fill="#697EED"/>
<path d="M78.2905 461.151L75.7753 461.895C72.7571 463.043 71.2479 465.34 72.254 468.785L77.8299 491.753M78.2905 461.151L81.8118 476.25L88.3514 480.843M78.2905 461.151L89.8605 457.727M88.3514 480.843L94.8909 478.547M88.3514 480.843L89.9164 487.734M101.431 476.25L104.952 468.785L101.431 454.303M101.431 476.25L94.8909 478.547M101.431 476.25L103.443 484.576M101.431 454.303L102.94 453.856C107.494 452.238 108.835 453.323 109.982 457.302L115.465 480.843M101.431 454.303L89.8605 457.727M89.8605 457.727L94.8909 478.547M91.8727 496.346L88.3514 503.811M91.8727 496.346L98.4122 494.05L100.744 503.954M91.8727 496.346L89.9164 487.734M77.8299 491.753L89.9164 487.734M77.8299 491.753L80.8269 504.098L100.744 503.954M103.443 484.576L105.455 492.901L110.988 496.346L112.726 503.868M103.443 484.576L115.465 480.843M115.465 480.843L120.546 502.663C120.595 503.056 120.635 503.439 120.662 503.811L112.726 503.868M100.744 503.954L112.726 503.868" stroke="white"/>
<path d="M294.434 444.79C299.197 444.587 300.248 446.035 300.464 450.22L300.473 468.162L287.971 468.162L274.279 468.162L261.62 468.162L261.444 450.05C261.246 446.422 263.219 444.654 266.392 444.446L268.988 444.478L280.932 444.624L292.876 444.771L294.434 444.79Z" fill="#697EED"/>
<path d="M268.988 444.478L266.392 444.446C263.219 444.654 261.246 446.422 261.444 450.05L261.62 468.162L274.279 468.162M268.988 444.478L269.001 460.114L274.287 466.503M268.988 444.478L280.932 444.624M274.287 466.503L281.119 466.236M274.287 466.503L274.279 468.162M287.951 465.97L293.028 459.811L292.876 444.771M287.951 465.97L281.119 466.236M287.951 465.97L287.971 468.162M292.876 444.771L294.434 444.79C299.197 444.587 300.248 446.035 300.464 450.22L300.473 468.162L287.971 468.162M292.876 444.771L280.932 444.624M280.932 444.624L281.119 466.236M274.279 468.162L287.971 468.162" stroke="white"/>
<rect x="135.324" y="31.5553" width="130.426" height="36.8957" rx="18.4479" stroke="#697EED"/>
<ellipse cx="154.085" cy="50.6565" rx="4.53191" ry="5.22699" fill="#697EED"/>
<g opacity="0.7">
<path d="M630.201 230.364C660.391 251.082 661.809 264.938 648.423 291.952L562.783 443.545L483.41 584.045C466.654 607.192 450.436 618.281 417.4 595.076L410.954 590.268L395.629 578.84L395.629 438.432L395.629 387.798L395.629 330.894L395.629 310.546L395.629 132.328L407.525 110.779C419.053 87.3079 437.482 85.4252 457.853 98.7777L473.811 110.962L547.219 167.008L620.626 223.053L630.201 230.364Z" fill="#0B1020"/>
<path d="M473.811 110.962L457.853 98.7777C437.482 85.4252 419.053 87.3079 407.525 110.779L395.629 132.328L395.629 310.546M473.811 110.962L418.909 208.22L429.156 272.338M473.811 110.962L547.219 167.008M429.156 272.338L472.377 302.22M429.156 272.338L403.896 316.457M515.599 332.102L568.675 317.248L620.626 223.053M515.599 332.102L472.377 302.22M515.599 332.102L485.672 386.176M620.626 223.053L630.201 230.364C660.391 251.082 661.809 264.938 648.423 291.952L562.783 443.545M620.626 223.053L547.219 167.008M547.219 167.008L472.377 302.22M403.896 316.457L395.629 330.894M403.896 316.457L395.629 310.546M410.954 590.268L417.4 595.076C450.436 618.281 466.654 607.192 483.41 584.045L562.783 443.545M410.954 590.268L466.531 492.31L455.746 440.251L485.672 386.176M410.954 590.268L395.629 578.84L395.629 438.432M485.672 386.176L562.783 443.545M395.629 438.432L415.541 401.486L395.629 387.798L395.629 330.894M395.629 438.432L395.629 330.894M395.629 330.894L395.629 310.546" stroke="#697EED"/>
</g>
<rect x="40.1544" y="143.935" width="319.633" height="102.233" rx="9.5" stroke="#697EED"/>
<path d="M69.0761 181.877V177.717L69.3481 178.453L64.5961 170.677H65.8601L70.0361 177.509H69.3641L73.5401 170.677H74.7241L69.9721 178.453L70.2441 177.717V181.877H69.0761ZM78.7912 181.957C77.9805 181.957 77.2499 181.776 76.5992 181.413C75.9592 181.04 75.4525 180.533 75.0792 179.893C74.7059 179.243 74.5192 178.501 74.5192 177.669C74.5192 176.827 74.7059 176.085 75.0792 175.445C75.4525 174.805 75.9592 174.304 76.5992 173.941C77.2392 173.579 77.9699 173.397 78.7912 173.397C79.6232 173.397 80.3592 173.579 80.9992 173.941C81.6499 174.304 82.1565 174.805 82.5192 175.445C82.8925 176.085 83.0792 176.827 83.0792 177.669C83.0792 178.501 82.8925 179.243 82.5192 179.893C82.1565 180.533 81.6499 181.04 80.9992 181.413C80.3485 181.776 79.6125 181.957 78.7912 181.957ZM78.7912 180.949C79.3992 180.949 79.9379 180.816 80.4072 180.549C80.8765 180.272 81.2445 179.888 81.5112 179.397C81.7885 178.896 81.9272 178.32 81.9272 177.669C81.9272 177.008 81.7885 176.432 81.5112 175.941C81.2445 175.451 80.8765 175.072 80.4072 174.805C79.9379 174.528 79.4045 174.389 78.8072 174.389C78.2099 174.389 77.6765 174.528 77.2072 174.805C76.7379 175.072 76.3645 175.451 76.0872 175.941C75.8099 176.432 75.6712 177.008 75.6712 177.669C75.6712 178.32 75.8099 178.896 76.0872 179.397C76.3645 179.888 76.7379 180.272 77.2072 180.549C77.6765 180.816 78.2045 180.949 78.7912 180.949ZM88.8705 181.957C88.1558 181.957 87.5318 181.824 86.9985 181.557C86.4651 181.291 86.0491 180.891 85.7505 180.357C85.4625 179.824 85.3185 179.157 85.3185 178.357V173.477H86.4545V178.229C86.4545 179.125 86.6731 179.803 87.1105 180.261C87.5585 180.709 88.1825 180.933 88.9825 180.933C89.5691 180.933 90.0758 180.816 90.5025 180.581C90.9398 180.336 91.2705 179.984 91.4945 179.525C91.7291 179.067 91.8465 178.517 91.8465 177.877V173.477H92.9825V181.877H91.8945V179.573L92.0705 179.989C91.8038 180.608 91.3878 181.093 90.8225 181.445C90.2678 181.787 89.6171 181.957 88.8705 181.957ZM96.1485 181.877V173.477H97.2365V175.765L97.1245 175.365C97.3591 174.725 97.7538 174.24 98.3085 173.909C98.8631 173.568 99.5511 173.397 100.372 173.397V174.501C100.33 174.501 100.287 174.501 100.244 174.501C100.202 174.491 100.159 174.485 100.116 174.485C99.2311 174.485 98.5378 174.757 98.0365 175.301C97.5351 175.835 97.2845 176.597 97.2845 177.589V181.877H96.1485ZM111.046 173.397C111.728 173.397 112.326 173.531 112.838 173.797C113.36 174.053 113.766 174.448 114.054 174.981C114.352 175.515 114.502 176.187 114.502 176.997V181.877H113.366V177.109C113.366 176.224 113.142 175.557 112.694 175.109C112.256 174.651 111.638 174.421 110.838 174.421C110.24 174.421 109.718 174.544 109.27 174.789C108.832 175.024 108.491 175.371 108.246 175.829C108.011 176.277 107.894 176.821 107.894 177.461V181.877H106.758V173.477H107.846V175.781L107.67 175.349C107.936 174.741 108.363 174.267 108.95 173.925C109.536 173.573 110.235 173.397 111.046 173.397ZM121.042 181.957C120.328 181.957 119.704 181.824 119.17 181.557C118.637 181.291 118.221 180.891 117.922 180.357C117.634 179.824 117.49 179.157 117.49 178.357V173.477H118.626V178.229C118.626 179.125 118.845 179.803 119.282 180.261C119.73 180.709 120.354 180.933 121.154 180.933C121.741 180.933 122.248 180.816 122.674 180.581C123.112 180.336 123.442 179.984 123.666 179.525C123.901 179.067 124.018 178.517 124.018 177.877V173.477H125.154V181.877H124.066V179.573L124.242 179.989C123.976 180.608 123.56 181.093 122.994 181.445C122.44 181.787 121.789 181.957 121.042 181.957ZM138.816 173.397C139.499 173.397 140.091 173.531 140.592 173.797C141.104 174.053 141.499 174.448 141.776 174.981C142.064 175.515 142.208 176.187 142.208 176.997V181.877H141.072V177.109C141.072 176.224 140.859 175.557 140.432 175.109C140.016 174.651 139.424 174.421 138.656 174.421C138.08 174.421 137.579 174.544 137.152 174.789C136.736 175.024 136.411 175.371 136.176 175.829C135.952 176.277 135.84 176.821 135.84 177.461V181.877H134.704V177.109C134.704 176.224 134.491 175.557 134.064 175.109C133.638 174.651 133.04 174.421 132.272 174.421C131.707 174.421 131.211 174.544 130.784 174.789C130.358 175.024 130.027 175.371 129.792 175.829C129.568 176.277 129.456 176.821 129.456 177.461V181.877H128.32V173.477H129.408V175.749L129.232 175.349C129.488 174.741 129.899 174.267 130.464 173.925C131.04 173.573 131.718 173.397 132.496 173.397C133.318 173.397 134.016 173.605 134.592 174.021C135.168 174.427 135.542 175.04 135.712 175.861L135.264 175.685C135.51 175.003 135.942 174.453 136.56 174.037C137.19 173.611 137.942 173.397 138.816 173.397ZM149.625 181.957C148.889 181.957 148.228 181.792 147.641 181.461C147.054 181.12 146.59 180.629 146.249 179.989C145.908 179.349 145.737 178.576 145.737 177.669C145.737 176.752 145.908 175.979 146.249 175.349C146.601 174.709 147.07 174.224 147.657 173.893C148.244 173.563 148.9 173.397 149.625 173.397C150.425 173.397 151.14 173.579 151.769 173.941C152.409 174.293 152.91 174.789 153.273 175.429C153.636 176.069 153.817 176.816 153.817 177.669C153.817 178.512 153.636 179.259 153.273 179.909C152.91 180.549 152.409 181.051 151.769 181.413C151.14 181.776 150.425 181.957 149.625 181.957ZM145.289 181.877V170.005H146.425V175.957L146.265 177.653L146.377 179.349V181.877H145.289ZM149.545 180.949C150.142 180.949 150.676 180.816 151.145 180.549C151.614 180.272 151.988 179.888 152.265 179.397C152.542 178.896 152.681 178.32 152.681 177.669C152.681 177.008 152.542 176.432 152.265 175.941C151.988 175.451 151.614 175.072 151.145 174.805C150.676 174.528 150.142 174.389 149.545 174.389C148.948 174.389 148.409 174.528 147.929 174.805C147.46 175.072 147.086 175.451 146.809 175.941C146.542 176.432 146.409 177.008 146.409 177.669C146.409 178.32 146.542 178.896 146.809 179.397C147.086 179.888 147.46 180.272 147.929 180.549C148.409 180.816 148.948 180.949 149.545 180.949ZM159.701 181.957C158.826 181.957 158.058 181.776 157.397 181.413C156.735 181.04 156.218 180.533 155.845 179.893C155.471 179.243 155.285 178.501 155.285 177.669C155.285 176.837 155.461 176.101 155.813 175.461C156.175 174.821 156.666 174.32 157.285 173.957C157.914 173.584 158.618 173.397 159.397 173.397C160.186 173.397 160.885 173.579 161.493 173.941C162.111 174.293 162.597 174.795 162.949 175.445C163.301 176.085 163.477 176.827 163.477 177.669C163.477 177.723 163.471 177.781 163.461 177.845C163.461 177.899 163.461 177.957 163.461 178.021H156.149V177.173H162.853L162.405 177.509C162.405 176.901 162.271 176.363 162.005 175.893C161.749 175.413 161.397 175.04 160.949 174.773C160.501 174.507 159.983 174.373 159.397 174.373C158.821 174.373 158.303 174.507 157.845 174.773C157.386 175.04 157.029 175.413 156.773 175.893C156.517 176.373 156.389 176.923 156.389 177.541V177.717C156.389 178.357 156.527 178.923 156.805 179.413C157.093 179.893 157.487 180.272 157.989 180.549C158.501 180.816 159.082 180.949 159.733 180.949C160.245 180.949 160.719 180.859 161.157 180.677C161.605 180.496 161.989 180.219 162.309 179.845L162.949 180.581C162.575 181.029 162.106 181.371 161.541 181.605C160.986 181.84 160.373 181.957 159.701 181.957ZM165.789 181.877V173.477H166.877V175.765L166.765 175.365C167 174.725 167.394 174.24 167.949 173.909C168.504 173.568 169.192 173.397 170.013 173.397V174.501C169.97 174.501 169.928 174.501 169.885 174.501C169.842 174.491 169.8 174.485 169.757 174.485C168.872 174.485 168.178 174.757 167.677 175.301C167.176 175.835 166.925 176.597 166.925 177.589V181.877H165.789Z" fill="white"/>
<path d="M68.7001 220.119C67.9134 218.906 67.3067 217.506 66.8801 215.919C66.4667 214.319 66.2601 212.599 66.2601 210.759C66.2601 208.919 66.4667 207.199 66.8801 205.599C67.3067 203.986 67.9134 202.586 68.7001 201.399H71.0801C70.2667 202.866 69.6667 204.366 69.2801 205.899C68.9067 207.419 68.7201 209.039 68.7201 210.759C68.7201 212.479 68.9067 214.106 69.2801 215.639C69.6667 217.159 70.2667 218.653 71.0801 220.119H68.7001ZM76.7937 216.439C75.807 216.439 74.8403 216.299 73.8937 216.019C72.9603 215.726 72.1737 215.326 71.5337 214.819L72.6537 212.799C73.1603 213.213 73.7737 213.546 74.4937 213.799C75.2137 214.053 75.967 214.179 76.7537 214.179C77.687 214.179 78.4137 213.993 78.9337 213.619C79.4537 213.233 79.7137 212.713 79.7137 212.059C79.7137 211.419 79.4737 210.913 78.9937 210.539C78.5137 210.166 77.7403 209.979 76.6737 209.979H75.3937V208.199L79.3937 203.439L79.7337 204.419H72.2137V202.239H81.7537V203.979L77.7537 208.739L76.3937 207.939H77.1737C78.8937 207.939 80.1803 208.326 81.0337 209.099C81.9003 209.859 82.3337 210.839 82.3337 212.039C82.3337 212.826 82.1337 213.553 81.7337 214.219C81.3337 214.886 80.7203 215.426 79.8937 215.839C79.0803 216.239 78.047 216.439 76.7937 216.439ZM89.8743 216.439C88.7676 216.439 87.7676 216.159 86.8743 215.599C85.9943 215.039 85.301 214.226 84.7943 213.159C84.2876 212.079 84.0343 210.773 84.0343 209.239C84.0343 207.706 84.2876 206.406 84.7943 205.339C85.301 204.259 85.9943 203.439 86.8743 202.879C87.7676 202.319 88.7676 202.039 89.8743 202.039C90.9943 202.039 91.9943 202.319 92.8743 202.879C93.7543 203.439 94.4476 204.259 94.9543 205.339C95.4743 206.406 95.7343 207.706 95.7343 209.239C95.7343 210.773 95.4743 212.079 94.9543 213.159C94.4476 214.226 93.7543 215.039 92.8743 215.599C91.9943 216.159 90.9943 216.439 89.8743 216.439ZM89.8743 214.179C90.5276 214.179 91.0943 214.006 91.5743 213.659C92.0543 213.299 92.4276 212.753 92.6943 212.019C92.9743 211.286 93.1143 210.359 93.1143 209.239C93.1143 208.106 92.9743 207.179 92.6943 206.459C92.4276 205.726 92.0543 205.186 91.5743 204.839C91.0943 204.479 90.5276 204.299 89.8743 204.299C89.2476 204.299 88.6876 204.479 88.1943 204.839C87.7143 205.186 87.3343 205.726 87.0543 206.459C86.7876 207.179 86.6543 208.106 86.6543 209.239C86.6543 210.359 86.7876 211.286 87.0543 212.019C87.3343 212.753 87.7143 213.299 88.1943 213.659C88.6876 214.006 89.2476 214.179 89.8743 214.179ZM102.131 216.439C101.145 216.439 100.178 216.299 99.2313 216.019C98.298 215.726 97.5113 215.326 96.8713 214.819L97.9713 212.799C98.478 213.213 99.0913 213.546 99.8113 213.799C100.545 214.053 101.305 214.179 102.091 214.179C103.011 214.179 103.731 213.986 104.251 213.599C104.785 213.213 105.051 212.693 105.051 212.039C105.051 211.599 104.938 211.213 104.711 210.879C104.498 210.546 104.111 210.293 103.551 210.119C103.005 209.946 102.251 209.859 101.291 209.859H97.9113L98.6313 202.239H106.851V204.419H99.5913L100.951 203.179L100.411 208.879L99.0513 207.659H101.871C103.258 207.659 104.371 207.846 105.211 208.219C106.065 208.579 106.685 209.086 107.071 209.739C107.471 210.379 107.671 211.113 107.671 211.939C107.671 212.753 107.471 213.499 107.071 214.179C106.671 214.859 106.058 215.406 105.231 215.819C104.418 216.233 103.385 216.439 102.131 216.439ZM111.111 220.119H108.731C109.558 218.653 110.158 217.159 110.531 215.639C110.918 214.106 111.111 212.479 111.111 210.759C111.111 209.039 110.918 207.419 110.531 205.899C110.158 204.366 109.558 202.866 108.731 201.399H111.111C111.911 202.586 112.518 203.986 112.931 205.599C113.344 207.199 113.551 208.919 113.551 210.759C113.551 212.599 113.344 214.319 112.931 215.919C112.518 217.506 111.911 218.906 111.111 220.119ZM121.471 216.239V214.499L127.031 209.219C127.498 208.779 127.845 208.393 128.071 208.059C128.298 207.726 128.445 207.419 128.511 207.139C128.591 206.846 128.631 206.573 128.631 206.319C128.631 205.679 128.411 205.186 127.971 204.839C127.531 204.479 126.885 204.299 126.031 204.299C125.351 204.299 124.731 204.419 124.171 204.659C123.625 204.899 123.151 205.266 122.751 205.759L120.931 204.359C121.478 203.626 122.211 203.059 123.131 202.659C124.065 202.246 125.105 202.039 126.251 202.039C127.265 202.039 128.145 202.206 128.891 202.539C129.651 202.859 130.231 203.319 130.631 203.919C131.045 204.519 131.251 205.233 131.251 206.059C131.251 206.513 131.191 206.966 131.071 207.419C130.951 207.859 130.725 208.326 130.391 208.819C130.058 209.313 129.571 209.866 128.931 210.479L124.151 215.019L123.611 214.039H131.791V216.239H121.471ZM135.532 216.239V203.239L136.672 204.419H132.572V202.239H138.132V216.239H135.532ZM145.629 202.039C146.909 202.039 147.996 202.313 148.889 202.859C149.796 203.393 150.489 204.173 150.969 205.199C151.449 206.226 151.689 207.493 151.689 208.999C151.689 210.599 151.396 211.953 150.809 213.059C150.236 214.166 149.436 215.006 148.409 215.579C147.383 216.153 146.189 216.439 144.829 216.439C144.123 216.439 143.449 216.366 142.809 216.219C142.169 216.073 141.616 215.846 141.149 215.539L142.109 213.579C142.496 213.833 142.916 214.013 143.369 214.119C143.823 214.213 144.289 214.259 144.769 214.259C146.089 214.259 147.136 213.853 147.909 213.039C148.683 212.226 149.069 211.026 149.069 209.439C149.069 209.186 149.063 208.893 149.049 208.559C149.036 208.213 148.989 207.866 148.909 207.519L149.709 208.399C149.483 208.946 149.156 209.406 148.729 209.779C148.303 210.139 147.803 210.413 147.229 210.599C146.656 210.786 146.023 210.879 145.329 210.879C144.423 210.879 143.603 210.706 142.869 210.359C142.149 209.999 141.576 209.499 141.149 208.859C140.723 208.206 140.509 207.446 140.509 206.579C140.509 205.646 140.736 204.846 141.189 204.179C141.643 203.499 142.256 202.973 143.029 202.599C143.816 202.226 144.683 202.039 145.629 202.039ZM145.769 204.079C145.236 204.079 144.763 204.179 144.349 204.379C143.936 204.566 143.609 204.839 143.369 205.199C143.143 205.546 143.029 205.966 143.029 206.459C143.029 207.193 143.283 207.773 143.789 208.199C144.296 208.626 144.976 208.839 145.829 208.839C146.389 208.839 146.883 208.739 147.309 208.539C147.736 208.326 148.069 208.039 148.309 207.679C148.549 207.306 148.669 206.893 148.669 206.439C148.669 205.999 148.556 205.606 148.329 205.259C148.103 204.899 147.776 204.613 147.349 204.399C146.923 204.186 146.396 204.079 145.769 204.079ZM153.766 211.719V209.639H159.266V211.719H153.766ZM163.386 216.239L169.166 203.279L169.846 204.439H161.906L163.146 203.179V206.819H160.726V202.239H171.606V203.979L166.166 216.239H163.386ZM178.663 216.439C177.557 216.439 176.557 216.159 175.663 215.599C174.783 215.039 174.09 214.226 173.583 213.159C173.077 212.079 172.823 210.773 172.823 209.239C172.823 207.706 173.077 206.406 173.583 205.339C174.09 204.259 174.783 203.439 175.663 202.879C176.557 202.319 177.557 202.039 178.663 202.039C179.783 202.039 180.783 202.319 181.663 202.879C182.543 203.439 183.237 204.259 183.743 205.339C184.263 206.406 184.523 207.706 184.523 209.239C184.523 210.773 184.263 212.079 183.743 213.159C183.237 214.226 182.543 215.039 181.663 215.599C180.783 216.159 179.783 216.439 178.663 216.439ZM178.663 214.179C179.317 214.179 179.883 214.006 180.363 213.659C180.843 213.299 181.217 212.753 181.483 212.019C181.763 211.286 181.903 210.359 181.903 209.239C181.903 208.106 181.763 207.179 181.483 206.459C181.217 205.726 180.843 205.186 180.363 204.839C179.883 204.479 179.317 204.299 178.663 204.299C178.037 204.299 177.477 204.479 176.983 204.839C176.503 205.186 176.123 205.726 175.843 206.459C175.577 207.179 175.443 208.106 175.443 209.239C175.443 210.359 175.577 211.286 175.843 212.019C176.123 212.753 176.503 213.299 176.983 213.659C177.477 214.006 178.037 214.179 178.663 214.179ZM192.34 216.439C191.074 216.439 189.987 216.173 189.08 215.639C188.174 215.093 187.48 214.306 187 213.279C186.52 212.253 186.28 210.986 186.28 209.479C186.28 207.879 186.567 206.526 187.14 205.419C187.727 204.313 188.534 203.473 189.56 202.899C190.6 202.326 191.794 202.039 193.14 202.039C193.847 202.039 194.52 202.113 195.16 202.259C195.814 202.406 196.367 202.633 196.82 202.939L195.86 204.899C195.474 204.646 195.054 204.473 194.6 204.379C194.16 204.273 193.694 204.219 193.2 204.219C191.88 204.219 190.834 204.626 190.06 205.439C189.287 206.253 188.9 207.453 188.9 209.039C188.9 209.293 188.907 209.593 188.92 209.939C188.934 210.273 188.98 210.613 189.06 210.959L188.26 210.079C188.5 209.533 188.827 209.079 189.24 208.719C189.667 208.346 190.167 208.066 190.74 207.879C191.327 207.693 191.96 207.599 192.64 207.599C193.56 207.599 194.38 207.779 195.1 208.139C195.82 208.486 196.394 208.986 196.82 209.639C197.247 210.279 197.46 211.033 197.46 211.899C197.46 212.819 197.234 213.619 196.78 214.299C196.327 214.979 195.714 215.506 194.94 215.879C194.167 216.253 193.3 216.439 192.34 216.439ZM192.2 214.399C192.734 214.399 193.207 214.306 193.62 214.119C194.034 213.919 194.354 213.639 194.58 213.279C194.82 212.919 194.94 212.499 194.94 212.019C194.94 211.286 194.687 210.706 194.18 210.279C193.674 209.853 192.994 209.639 192.14 209.639C191.58 209.639 191.087 209.746 190.66 209.959C190.247 210.159 189.914 210.439 189.66 210.799C189.42 211.159 189.3 211.573 189.3 212.039C189.3 212.466 189.414 212.859 189.64 213.219C189.867 213.579 190.194 213.866 190.62 214.079C191.06 214.293 191.587 214.399 192.2 214.399ZM201.062 216.239L206.842 203.279L207.522 204.439H199.582L200.822 203.179V206.819H198.402V202.239H209.282V203.979L203.842 216.239H201.062Z" fill="white"/>
<ellipse opacity="0.5" cx="312.136" cy="195.052" rx="25.492" ry="29.4018" fill="#697EED"/>
<ellipse cx="312.136" cy="195.052" rx="17.5612" ry="20.2546" fill="#697EED"/>
<path d="M304.772 197.479L310.419 203.546L314.393 195.052L318.367 186.558" stroke="white" stroke-width="2" stroke-linecap="round"/>
<g opacity="0.4">
<rect x="40.1544" y="256.316" width="319.633" height="102.233" rx="9.5" stroke="#697EED"/>
<path d="M69.4921 294.354C68.6601 294.354 67.8601 294.22 67.0921 293.954C66.3347 293.676 65.7481 293.324 65.3321 292.898L65.7961 291.986C66.1907 292.37 66.7187 292.695 67.3801 292.962C68.0521 293.218 68.7561 293.346 69.4921 293.346C70.1961 293.346 70.7667 293.26 71.2041 293.09C71.6521 292.908 71.9774 292.668 72.1801 292.37C72.3934 292.071 72.5001 291.74 72.5001 291.378C72.5001 290.94 72.3721 290.588 72.1161 290.322C71.8707 290.055 71.5454 289.847 71.1401 289.698C70.7347 289.538 70.2867 289.399 69.7961 289.282C69.3054 289.164 68.8147 289.042 68.3241 288.914C67.8334 288.775 67.3801 288.594 66.9641 288.37C66.5587 288.146 66.2281 287.852 65.9721 287.49C65.7267 287.116 65.6041 286.631 65.6041 286.034C65.6041 285.479 65.7481 284.972 66.0361 284.514C66.3347 284.044 66.7881 283.671 67.3961 283.394C68.0041 283.106 68.7827 282.962 69.7321 282.962C70.3614 282.962 70.9854 283.052 71.6041 283.234C72.2227 283.404 72.7561 283.644 73.2041 283.954L72.8041 284.898C72.3241 284.578 71.8121 284.343 71.2681 284.194C70.7347 284.044 70.2174 283.97 69.7161 283.97C69.0441 283.97 68.4894 284.06 68.0521 284.242C67.6147 284.423 67.2894 284.668 67.0761 284.978C66.8734 285.276 66.7721 285.618 66.7721 286.002C66.7721 286.439 66.8947 286.791 67.1401 287.058C67.3961 287.324 67.7267 287.532 68.1321 287.682C68.5481 287.831 69.0014 287.964 69.4921 288.082C69.9827 288.199 70.4681 288.327 70.9481 288.466C71.4387 288.604 71.8867 288.786 72.2921 289.01C72.7081 289.223 73.0387 289.511 73.2841 289.874C73.5401 290.236 73.6681 290.711 73.6681 291.298C73.6681 291.842 73.5187 292.348 73.2201 292.818C72.9214 293.276 72.4627 293.65 71.8441 293.938C71.2361 294.215 70.4521 294.354 69.4921 294.354ZM76.2478 294.258V283.058H77.2238L82.3438 291.794H81.8318L86.9038 283.058H87.8798V294.258H86.7438V284.834H87.0158L82.3438 292.834H81.7838L77.0798 284.834H77.3838V294.258H76.2478ZM94.6171 294.354C93.7851 294.354 92.9851 294.22 92.2171 293.954C91.4597 293.676 90.8731 293.324 90.4571 292.898L90.9211 291.986C91.3157 292.37 91.8437 292.695 92.5051 292.962C93.1771 293.218 93.8811 293.346 94.6171 293.346C95.3211 293.346 95.8917 293.26 96.3291 293.09C96.7771 292.908 97.1024 292.668 97.3051 292.37C97.5184 292.071 97.6251 291.74 97.6251 291.378C97.6251 290.94 97.4971 290.588 97.2411 290.322C96.9957 290.055 96.6704 289.847 96.2651 289.698C95.8597 289.538 95.4117 289.399 94.9211 289.282C94.4304 289.164 93.9397 289.042 93.4491 288.914C92.9584 288.775 92.5051 288.594 92.0891 288.37C91.6837 288.146 91.3531 287.852 91.0971 287.49C90.8517 287.116 90.7291 286.631 90.7291 286.034C90.7291 285.479 90.8731 284.972 91.1611 284.514C91.4597 284.044 91.9131 283.671 92.5211 283.394C93.1291 283.106 93.9077 282.962 94.8571 282.962C95.4864 282.962 96.1104 283.052 96.7291 283.234C97.3477 283.404 97.8811 283.644 98.3291 283.954L97.9291 284.898C97.4491 284.578 96.9371 284.343 96.3931 284.194C95.8597 284.044 95.3424 283.97 94.8411 283.97C94.1691 283.97 93.6144 284.06 93.1771 284.242C92.7397 284.423 92.4144 284.668 92.2011 284.978C91.9984 285.276 91.8971 285.618 91.8971 286.002C91.8971 286.439 92.0197 286.791 92.2651 287.058C92.5211 287.324 92.8517 287.532 93.2571 287.682C93.6731 287.831 94.1264 287.964 94.6171 288.082C95.1077 288.199 95.5931 288.327 96.0731 288.466C96.5637 288.604 97.0117 288.786 97.4171 289.01C97.8331 289.223 98.1637 289.511 98.4091 289.874C98.6651 290.236 98.7931 290.711 98.7931 291.298C98.7931 291.842 98.6437 292.348 98.3451 292.818C98.0464 293.276 97.5877 293.65 96.9691 293.938C96.3611 294.215 95.5771 294.354 94.6171 294.354ZM110.424 294.354C109.582 294.354 108.803 294.215 108.088 293.938C107.374 293.65 106.755 293.25 106.232 292.738C105.71 292.226 105.299 291.623 105 290.93C104.712 290.236 104.568 289.479 104.568 288.658C104.568 287.836 104.712 287.079 105 286.386C105.299 285.692 105.71 285.09 106.232 284.578C106.766 284.066 107.39 283.671 108.104 283.394C108.819 283.106 109.598 282.962 110.44 282.962C111.251 282.962 112.014 283.1 112.728 283.378C113.443 283.644 114.046 284.05 114.536 284.594L113.784 285.346C113.326 284.876 112.819 284.54 112.264 284.338C111.71 284.124 111.112 284.018 110.472 284.018C109.8 284.018 109.176 284.135 108.6 284.37C108.024 284.594 107.523 284.919 107.096 285.346C106.67 285.762 106.334 286.252 106.088 286.818C105.854 287.372 105.736 287.986 105.736 288.658C105.736 289.33 105.854 289.948 106.088 290.514C106.334 291.068 106.67 291.559 107.096 291.986C107.523 292.402 108.024 292.727 108.6 292.962C109.176 293.186 109.8 293.298 110.472 293.298C111.112 293.298 111.71 293.191 112.264 292.978C112.819 292.764 113.326 292.423 113.784 291.954L114.536 292.706C114.046 293.25 113.443 293.66 112.728 293.938C112.014 294.215 111.246 294.354 110.424 294.354ZM119.869 294.338C119.059 294.338 118.328 294.156 117.677 293.794C117.037 293.42 116.531 292.914 116.157 292.274C115.784 291.623 115.597 290.882 115.597 290.05C115.597 289.207 115.784 288.466 116.157 287.826C116.531 287.186 117.037 286.684 117.677 286.322C118.317 285.959 119.048 285.778 119.869 285.778C120.701 285.778 121.437 285.959 122.077 286.322C122.728 286.684 123.235 287.186 123.597 287.826C123.971 288.466 124.157 289.207 124.157 290.05C124.157 290.882 123.971 291.623 123.597 292.274C123.235 292.914 122.728 293.42 122.077 293.794C121.427 294.156 120.691 294.338 119.869 294.338ZM119.869 293.33C120.477 293.33 121.016 293.196 121.485 292.93C121.955 292.652 122.323 292.268 122.589 291.778C122.867 291.276 123.005 290.7 123.005 290.05C123.005 289.388 122.867 288.812 122.589 288.322C122.323 287.831 121.955 287.452 121.485 287.186C121.016 286.908 120.483 286.77 119.885 286.77C119.288 286.77 118.755 286.908 118.285 287.186C117.816 287.452 117.443 287.831 117.165 288.322C116.888 288.812 116.749 289.388 116.749 290.05C116.749 290.7 116.888 291.276 117.165 291.778C117.443 292.268 117.816 292.652 118.285 292.93C118.755 293.196 119.283 293.33 119.869 293.33ZM129.821 294.338C129.021 294.338 128.301 294.156 127.661 293.794C127.031 293.431 126.535 292.93 126.173 292.29C125.81 291.639 125.629 290.892 125.629 290.05C125.629 289.196 125.81 288.45 126.173 287.81C126.535 287.17 127.031 286.674 127.661 286.322C128.301 285.959 129.021 285.778 129.821 285.778C130.557 285.778 131.213 285.943 131.789 286.274C132.375 286.604 132.839 287.09 133.181 287.73C133.533 288.359 133.709 289.132 133.709 290.05C133.709 290.956 133.538 291.73 133.197 292.37C132.855 293.01 132.391 293.5 131.805 293.842C131.229 294.172 130.567 294.338 129.821 294.338ZM129.901 293.33C130.498 293.33 131.031 293.196 131.501 292.93C131.981 292.652 132.354 292.268 132.621 291.778C132.898 291.276 133.037 290.7 133.037 290.05C133.037 289.388 132.898 288.812 132.621 288.322C132.354 287.831 131.981 287.452 131.501 287.186C131.031 286.908 130.498 286.77 129.901 286.77C129.314 286.77 128.786 286.908 128.317 287.186C127.847 287.452 127.474 287.831 127.197 288.322C126.919 288.812 126.781 289.388 126.781 290.05C126.781 290.7 126.919 291.276 127.197 291.778C127.474 292.268 127.847 292.652 128.317 292.93C128.786 293.196 129.314 293.33 129.901 293.33ZM133.069 294.258V291.73L133.181 290.034L133.021 288.338V282.386H134.157V294.258H133.069ZM140.888 294.338C140.014 294.338 139.246 294.156 138.584 293.794C137.923 293.42 137.406 292.914 137.032 292.274C136.659 291.623 136.472 290.882 136.472 290.05C136.472 289.218 136.648 288.482 137 287.842C137.363 287.202 137.854 286.7 138.472 286.338C139.102 285.964 139.806 285.778 140.584 285.778C141.374 285.778 142.072 285.959 142.68 286.322C143.299 286.674 143.784 287.175 144.136 287.826C144.488 288.466 144.664 289.207 144.664 290.05C144.664 290.103 144.659 290.162 144.648 290.226C144.648 290.279 144.648 290.338 144.648 290.402H137.336V289.554H144.04L143.592 289.89C143.592 289.282 143.459 288.743 143.192 288.274C142.936 287.794 142.584 287.42 142.136 287.154C141.688 286.887 141.171 286.754 140.584 286.754C140.008 286.754 139.491 286.887 139.032 287.154C138.574 287.42 138.216 287.794 137.96 288.274C137.704 288.754 137.576 289.303 137.576 289.922V290.098C137.576 290.738 137.715 291.303 137.992 291.794C138.28 292.274 138.675 292.652 139.176 292.93C139.688 293.196 140.27 293.33 140.92 293.33C141.432 293.33 141.907 293.239 142.344 293.058C142.792 292.876 143.176 292.599 143.496 292.226L144.136 292.962C143.763 293.41 143.294 293.751 142.728 293.986C142.174 294.22 141.56 294.338 140.888 294.338Z" fill="white"/>
<path d="M69.7601 328.62L65.1201 314.62H67.8201L71.9601 327.28H70.6201L74.9201 314.62H77.3201L81.5001 327.28H80.2001L84.4401 314.62H86.9201L82.2801 328.62H79.5201L75.7001 317.2H76.4201L72.5401 328.62H69.7601ZM89.0382 328.62V314.62H94.7982C96.0382 314.62 97.0982 314.82 97.9782 315.22C98.8715 315.62 99.5582 316.193 100.038 316.94C100.518 317.686 100.758 318.573 100.758 319.6C100.758 320.626 100.518 321.513 100.038 322.26C99.5582 322.993 98.8715 323.56 97.9782 323.96C97.0982 324.346 96.0382 324.54 94.7982 324.54H90.4782L91.6382 323.36V328.62H89.0382ZM98.1982 328.62L94.6582 323.54H97.4382L100.998 328.62H98.1982ZM91.6382 323.64L90.4782 322.4H94.6782C95.8249 322.4 96.6849 322.153 97.2582 321.66C97.8449 321.166 98.1382 320.48 98.1382 319.6C98.1382 318.706 97.8449 318.02 97.2582 317.54C96.6849 317.06 95.8249 316.82 94.6782 316.82H90.4782L91.6382 315.54V323.64ZM102.487 328.62V326.88L108.047 321.6C108.514 321.16 108.86 320.773 109.087 320.44C109.314 320.106 109.46 319.8 109.527 319.52C109.607 319.226 109.647 318.953 109.647 318.7C109.647 318.06 109.427 317.566 108.987 317.22C108.547 316.86 107.9 316.68 107.047 316.68C106.367 316.68 105.747 316.8 105.187 317.04C104.64 317.28 104.167 317.646 103.767 318.14L101.947 316.74C102.494 316.006 103.227 315.44 104.147 315.04C105.08 314.626 106.12 314.42 107.267 314.42C108.28 314.42 109.16 314.586 109.907 314.92C110.667 315.24 111.247 315.7 111.647 316.3C112.06 316.9 112.267 317.613 112.267 318.44C112.267 318.893 112.207 319.346 112.087 319.8C111.967 320.24 111.74 320.706 111.407 321.2C111.074 321.693 110.587 322.246 109.947 322.86L105.167 327.4L104.627 326.42H112.807V328.62H102.487ZM118.948 328.82C117.961 328.82 116.994 328.68 116.048 328.4C115.114 328.106 114.328 327.706 113.688 327.2L114.788 325.18C115.294 325.593 115.908 325.926 116.628 326.18C117.361 326.433 118.121 326.56 118.908 326.56C119.828 326.56 120.548 326.366 121.068 325.98C121.601 325.593 121.868 325.073 121.868 324.42C121.868 323.98 121.754 323.593 121.528 323.26C121.314 322.926 120.928 322.673 120.368 322.5C119.821 322.326 119.068 322.24 118.108 322.24H114.728L115.448 314.62H123.668V316.8H116.408L117.768 315.56L117.228 321.26L115.868 320.04H118.688C120.074 320.04 121.188 320.226 122.028 320.6C122.881 320.96 123.501 321.466 123.888 322.12C124.288 322.76 124.488 323.493 124.488 324.32C124.488 325.133 124.288 325.88 123.888 326.56C123.488 327.24 122.874 327.786 122.048 328.2C121.234 328.613 120.201 328.82 118.948 328.82ZM130.151 328.62L125.511 314.62H128.211L132.351 327.28H131.011L135.311 314.62H137.711L141.891 327.28H140.591L144.831 314.62H147.311L142.671 328.62H139.911L136.091 317.2H136.811L132.931 328.62H130.151ZM152.347 328.62V316.82H147.707V314.62H159.587V316.82H154.947V328.62H152.347Z" fill="white"/>
<ellipse opacity="0.5" cx="312.136" cy="307.432" rx="25.492" ry="29.4018" fill="#697EED"/>
<ellipse cx="312.136" cy="307.432" rx="17.5612" ry="20.2546" fill="#697EED"/>
<path d="M304.772 309.859L310.419 315.926L314.393 307.432L318.367 298.938" stroke="white" stroke-width="2" stroke-linecap="round"/>
</g>
</svg>
