<svg width="24" height="24" viewBox="0 0 24 24" fill="none" xmlns="http://www.w3.org/2000/svg">
<g opacity="0.3">
<path d="M18 12C18 13.5913 17.3679 15.1174 16.2426 16.2426C15.1174 17.3679 13.5913 18 12 18C10.4087 18 8.88258 17.3679 7.75736 16.2426C6.63214 15.1174 6 13.5913 6 12C6 10.4087 6.63214 8.88258 7.75736 7.75736C8.88258 6.63214 10.4087 6 12 6C13.5913 6 15.1174 6.63214 16.2426 7.75736C17.3679 8.88258 18 10.4087 18 12Z" fill="#1E1E1E"/>
<path fill-rule="evenodd" clip-rule="evenodd" d="M12 1.25C12.1989 1.25 12.3897 1.32902 12.5303 1.46967C12.671 1.61032 12.75 1.80109 12.75 2V3C12.75 3.19891 12.671 3.38968 12.5303 3.53033C12.3897 3.67098 12.1989 3.75 12 3.75C11.8011 3.75 11.6103 3.67098 11.4697 3.53033C11.329 3.38968 11.25 3.19891 11.25 3V2C11.25 1.80109 11.329 1.61032 11.4697 1.46967C11.6103 1.32902 11.8011 1.25 12 1.25ZM1.25 12C1.25 11.8011 1.32902 11.6103 1.46967 11.4697C1.61032 11.329 1.80109 11.25 2 11.25H3C3.19891 11.25 3.38968 11.329 3.53033 11.4697C3.67098 11.6103 3.75 11.8011 3.75 12C3.75 12.1989 3.67098 12.3897 3.53033 12.5303C3.38968 12.671 3.19891 12.75 3 12.75H2C1.80109 12.75 1.61032 12.671 1.46967 12.5303C1.32902 12.3897 1.25 12.1989 1.25 12ZM20.25 12C20.25 11.8011 20.329 11.6103 20.4697 11.4697C20.6103 11.329 20.8011 11.25 21 11.25H22C22.1989 11.25 22.3897 11.329 22.5303 11.4697C22.671 11.6103 22.75 11.8011 22.75 12C22.75 12.1989 22.671 12.3897 22.5303 12.5303C22.3897 12.671 22.1989 12.75 22 12.75H21C20.8011 12.75 20.6103 12.671 20.4697 12.5303C20.329 12.3897 20.25 12.1989 20.25 12ZM12 20.25C12.1989 20.25 12.3897 20.329 12.5303 20.4697C12.671 20.6103 12.75 20.8011 12.75 21V22C12.75 22.1989 12.671 22.3897 12.5303 22.5303C12.3897 22.671 12.1989 22.75 12 22.75C11.8011 22.75 11.6103 22.671 11.4697 22.5303C11.329 22.3897 11.25 22.1989 11.25 22V21C11.25 20.8011 11.329 20.6103 11.4697 20.4697C11.6103 20.329 11.8011 20.25 12 20.25Z" fill="#1E1E1E"/>
<path opacity="0.5" d="M4.39799 4.39806C4.46764 4.32837 4.55034 4.27308 4.64136 4.23536C4.73239 4.19764 4.82995 4.17822 4.92849 4.17822C5.02702 4.17822 5.12458 4.19764 5.21561 4.23536C5.30664 4.27308 5.38934 4.32837 5.45899 4.39806L5.85199 4.79106C5.98447 4.93324 6.05659 5.12128 6.05316 5.31559C6.04973 5.50989 5.97102 5.69527 5.83361 5.83268C5.6962 5.9701 5.51081 6.04881 5.31651 6.05224C5.12221 6.05567 4.93416 5.98354 4.79199 5.85106L4.39799 5.45906C4.25754 5.31844 4.17865 5.12781 4.17865 4.92906C4.17865 4.73031 4.25754 4.53969 4.39799 4.39906M19.6 4.39906C19.7404 4.53969 19.8193 4.73031 19.8193 4.92906C19.8193 5.12781 19.7404 5.31844 19.6 5.45906L19.208 5.85206C19.0658 5.98454 18.8778 6.05667 18.6835 6.05324C18.4892 6.04981 18.3038 5.9711 18.1664 5.83368C18.029 5.69627 17.9502 5.51089 17.9468 5.31659C17.9434 5.12228 18.0155 4.93424 18.148 4.79206L18.54 4.39906C18.6806 4.25861 18.8712 4.17972 19.07 4.17972C19.2687 4.17972 19.4594 4.25861 19.6 4.39906ZM18.147 18.1471C18.2166 18.0774 18.2993 18.0221 18.3904 17.9844C18.4814 17.9466 18.579 17.9272 18.6775 17.9272C18.776 17.9272 18.8736 17.9466 18.9646 17.9844C19.0556 18.0221 19.1383 18.0774 19.208 18.1471L19.601 18.5401C19.7335 18.6822 19.8056 18.8703 19.8022 19.0646C19.7987 19.2589 19.72 19.4443 19.5826 19.5817C19.4452 19.7191 19.2598 19.7978 19.0655 19.8012C18.8712 19.8047 18.6832 19.7325 18.541 19.6001L18.147 19.2081C18.0065 19.0674 17.9276 18.8768 17.9276 18.6781C17.9276 18.4793 18.0065 18.2887 18.147 18.1481M5.85199 18.1481C5.99244 18.2887 6.07133 18.4793 6.07133 18.6781C6.07133 18.8768 5.99244 19.0674 5.85199 19.2081L5.45899 19.6011C5.39032 19.6747 5.30752 19.7339 5.21552 19.7748C5.12353 19.8158 5.02421 19.8379 4.92351 19.8397C4.82281 19.8414 4.72278 19.8229 4.62939 19.7852C4.536 19.7475 4.45117 19.6913 4.37995 19.6201C4.30873 19.5489 4.25258 19.464 4.21486 19.3707C4.17714 19.2773 4.15862 19.1772 4.1604 19.0765C4.16217 18.9758 4.18421 18.8765 4.22521 18.7845C4.2662 18.6925 4.3253 18.6097 4.39899 18.5411L4.79099 18.1481C4.93161 18.0076 5.12224 17.9287 5.32099 17.9287C5.51974 17.9287 5.71036 18.0076 5.85099 18.1481" fill="#1E1E1E"/>
</g>
</svg>
