<svg width="176" height="50" viewBox="0 0 176 50" fill="none" xmlns="http://www.w3.org/2000/svg">
<path opacity="0.6" fill-rule="evenodd" clip-rule="evenodd" d="M22.9657 17.7583C22.9246 35.4721 22.9237 35.5191 22.6049 36.451C21.4533 39.8192 18.0931 41.9448 14.7171 41.4407C13.161 41.2085 11.9275 40.6021 10.7376 39.485C7.67099 36.6054 7.65669 31.8992 10.706 29.0359C12.5974 27.2599 14.7782 26.6463 17.375 27.1597L17.7847 27.2408V22.9049V18.569L16.6759 18.4646C15.274 18.3327 12.918 18.6016 11.2676 19.0816C6.82628 20.3736 3.05683 23.7238 1.20845 28.022C0.243069 30.2666 -0.00527874 31.5614 8.44913e-05 34.3203C0.00425589 36.4326 0.0514822 36.8878 0.402923 38.205C1.89718 43.8041 6.18642 48.0984 11.7949 49.6103C13.077 49.9559 13.5194 50 15.699 50C17.8938 50 18.3169 49.9572 19.6469 49.5998C25.5136 48.0239 29.5224 43.8428 31.2147 37.5355C31.3434 37.0562 31.4197 33.9711 31.4803 26.8149L31.5652 16.767L32.3846 17.2925C35.3347 19.1842 39.417 20.4875 42.3924 20.4875H43.409V16.2255V11.9635H42.6135C40.718 11.9635 37.6419 10.7405 35.8521 9.27561C34.5713 8.22716 33.5319 6.89801 32.7504 5.30881C31.9985 3.78002 31.6741 2.64812 31.54 1.08419L31.4471 0H27.2271H23.0071L22.9657 17.7583ZM52.7947 16.1507V18.9921H56.1467H59.4987V29.834V40.6759H62.8507H66.2028V29.9088V19.1416H68.8795H71.5562L72.4549 16.3277C72.9493 14.78 73.3537 13.4678 73.3537 13.4115C73.3537 13.3555 68.7279 13.3094 63.0742 13.3094H52.7947V16.1507ZM76.5568 13.5849C74.866 14.3934 74.2449 16.2331 75.0889 17.9332C76.0042 19.777 78.3818 20.2783 79.9718 18.9626C81.6411 17.5814 81.52 14.9843 79.7308 13.7957C78.9217 13.2583 77.4448 13.1602 76.5568 13.5849ZM83.9312 26.9927V40.6759H87.2087H90.4863L90.5037 37.1243L90.5211 33.5726L91.4621 32.6976C91.9795 32.2165 92.4705 31.8647 92.5532 31.916C92.6357 31.9672 94.0883 33.9928 95.7811 36.4172L98.8589 40.8255H102.355H105.852L105.042 39.6665C104.597 39.0292 102.541 36.0529 100.472 33.0529L96.7115 27.5985L100.787 23.6015L104.863 19.6045L100.916 19.5973L96.9694 19.5902L93.7277 22.8415L90.4863 26.0929V19.7011V13.3094H87.2087H83.9312V26.9927ZM107.47 16.1507V18.9921H110.747H114.025V29.834V40.6759H117.377H120.729V29.9088V19.1416H123.456H126.184L127.034 16.4567C127.501 14.98 127.924 13.6677 127.972 13.5406C128.052 13.3333 126.992 13.3094 117.765 13.3094H107.47V16.1507ZM154.249 26.9927V40.6759H157.527H160.804L160.804 37.1243V33.5726L161.783 32.6937C162.345 32.1899 162.818 31.8708 162.893 31.946C162.965 32.0181 164.391 34.0287 166.061 36.4139L169.098 40.7507L172.549 40.7908C174.447 40.8129 176 40.7903 176 40.7405C176 40.6907 173.976 37.7151 171.501 34.128L167.002 27.6058L171.091 23.601L175.181 19.5962L171.234 19.5932L167.287 19.5902L164.046 22.8415L160.804 26.0929V19.7011V13.3094H157.527H154.249V26.9927ZM136.074 18.693C132.161 19.7368 128.987 22.8668 127.959 26.6936C127.363 28.9163 127.549 31.7642 128.429 33.8639C129.882 37.3312 133.248 40.0516 136.866 40.6825C138.28 40.9293 142.565 40.7882 143.746 40.4561C147.442 39.4172 150.422 36.5227 151.602 32.8249C152.025 31.5004 152.127 28.6369 151.804 27.1775C151.118 24.0845 148.88 21.1596 146.074 19.6886C144.126 18.6673 143.329 18.5016 140.096 18.4455C137.563 18.4014 137.048 18.4331 136.074 18.693ZM74.6945 31.3265V40.6759H77.9733H81.2518L81.2135 31.3668L81.1751 22.0577L77.9348 22.0173L74.6945 21.9771V31.3265ZM137.881 24.2301C136.31 24.5582 134.925 25.6145 134.126 27.0942C133.637 28 133.616 28.1051 133.616 29.6097C133.616 31.1119 133.637 31.2206 134.122 32.1172C135.599 34.8509 138.879 35.8312 141.629 34.3601C144.918 32.6004 145.449 28.1174 142.672 25.5689C141.433 24.4329 139.499 23.8923 137.881 24.2301Z" fill="#1E1E1E"/>
</svg>
