<svg width="174" height="48" viewBox="0 0 174 48" fill="none" xmlns="http://www.w3.org/2000/svg">
<path fill-rule="evenodd" clip-rule="evenodd" d="M7.03125 7.02938C11.5275 2.53013 17.6362 0 24 0C30.3638 0 36.4725 2.53013 40.9688 7.02938C45.4688 11.5286 48 17.6374 48 24C48 30.3626 45.4688 36.4714 40.9688 40.9706C36.4725 45.4699 30.3638 48 24 48C17.6362 48 11.5275 45.4699 7.03125 40.9706C2.53125 36.4714 0 30.3626 0 24C0.00124676 17.6347 2.53036 11.5304 7.03125 7.02938ZM24.8588 17.7181C22.5263 18.689 17.8613 20.6986 10.8638 23.7466C9.72756 24.1985 9.13131 24.6406 9.07881 25.0726C8.98647 25.8024 9.90043 26.0902 11.1423 26.4813C11.3126 26.5349 11.4891 26.5905 11.6701 26.6495C12.8963 27.0477 14.5463 27.5138 15.4013 27.5322C16.1813 27.5491 17.0476 27.2285 18.0038 26.5707C24.5438 22.1581 27.9151 19.9276 28.1288 19.8796C28.2788 19.8458 28.4851 19.8031 28.6238 19.928C28.7663 20.0525 28.7513 20.2887 28.7363 20.3521C28.6479 20.7375 25.0712 24.0629 23.2101 25.7933C22.6249 26.3373 22.2094 26.7236 22.1251 26.8115C21.9367 27.0072 21.7446 27.1923 21.5601 27.3702C20.4221 28.4672 19.5683 29.2902 21.6076 30.6338C22.5964 31.2851 23.3856 31.8227 24.1744 32.36C25.022 32.9373 25.869 33.5143 26.9626 34.2316C27.2438 34.4159 27.5123 34.6073 27.7738 34.7937C28.7678 35.5023 29.6607 36.1387 30.7651 36.0372C31.4063 35.9783 32.0701 35.3753 32.4038 33.5768C33.1988 29.3262 34.7626 20.117 35.1226 16.322C35.1563 15.9897 35.1151 15.5641 35.0851 15.3773C35.0513 15.1904 34.9838 14.9241 34.7438 14.7273C34.4551 14.4938 34.0126 14.4447 33.8138 14.4479C32.9101 14.4642 31.5263 14.9457 24.8588 17.7181Z" fill="url(#paint0_linear_5_3147)"/>
<path d="M76.232 18.4159H71.096V31.9999H67.304V18.4159H62.192V15.1999H76.232V18.4159Z" fill="#9D9FA7"/>
<path d="M82.1403 18.9679C84.3643 18.9679 86.0123 19.6559 87.0843 21.0319C88.1723 22.3919 88.6363 24.2719 88.4763 26.6719H79.2123C79.4203 27.4879 79.8203 28.1279 80.4123 28.5919C81.0043 29.0399 81.7163 29.2639 82.5483 29.2639C83.8123 29.2639 84.9003 28.8079 85.8123 27.8959L87.7563 29.8639C86.3963 31.3839 84.5563 32.1439 82.2363 32.1439C80.1883 32.1439 78.5483 31.5439 77.3163 30.3439C76.1003 29.1439 75.4923 27.5599 75.4923 25.5919C75.4923 23.6079 76.1083 22.0079 77.3403 20.7919C78.5723 19.5759 80.1723 18.9679 82.1403 18.9679ZM79.1403 24.4879H85.0203C84.9883 23.6399 84.7163 22.9599 84.2043 22.4479C83.6923 21.9359 83.0123 21.6799 82.1643 21.6799C81.3643 21.6799 80.6923 21.9359 80.1483 22.4479C79.6203 22.9439 79.2843 23.6239 79.1403 24.4879Z" fill="#9D9FA7"/>
<path d="M94.7326 31.9999H91.0366V14.1919H94.7326V31.9999Z" fill="#9D9FA7"/>
<path d="M103.984 18.9679C106.208 18.9679 107.856 19.6559 108.928 21.0319C110.016 22.3919 110.48 24.2719 110.32 26.6719H101.056C101.264 27.4879 101.664 28.1279 102.256 28.5919C102.848 29.0399 103.56 29.2639 104.392 29.2639C105.656 29.2639 106.744 28.8079 107.656 27.8959L109.6 29.8639C108.24 31.3839 106.4 32.1439 104.08 32.1439C102.032 32.1439 100.392 31.5439 99.1601 30.3439C97.9441 29.1439 97.3361 27.5599 97.3361 25.5919C97.3361 23.6079 97.9521 22.0079 99.1841 20.7919C100.416 19.5759 102.016 18.9679 103.984 18.9679ZM100.984 24.4879H106.864C106.832 23.6399 106.56 22.9599 106.048 22.4479C105.536 21.9359 104.856 21.6799 104.008 21.6799C103.208 21.6799 102.536 21.9359 101.992 22.4479C101.464 22.9439 101.128 23.6239 100.984 24.4879Z" fill="#9D9FA7"/>
<path d="M124.856 19.0879V30.7999C124.856 32.6239 124.224 34.0799 122.96 35.1679C121.712 36.2559 120.048 36.7999 117.968 36.7999C115.904 36.7999 114.032 36.2319 112.352 35.0959L113.72 32.5039C114.936 33.3679 116.272 33.7999 117.728 33.7999C118.784 33.7999 119.624 33.5359 120.248 33.0079C120.872 32.4959 121.184 31.7999 121.184 30.9199V29.4559C120.288 30.7039 118.992 31.3279 117.296 31.3279C115.616 31.3279 114.256 30.7599 113.216 29.6239C112.176 28.4719 111.656 26.9599 111.656 25.0879C111.656 23.2639 112.168 21.7919 113.192 20.6719C114.216 19.5359 115.552 18.9679 117.2 18.9679C118.912 18.9519 120.24 19.5759 121.184 20.8399V19.0879H124.856ZM118.16 28.5199C119.056 28.5199 119.784 28.2159 120.344 27.6079C120.904 26.9839 121.184 26.1759 121.184 25.1839C121.184 24.1919 120.904 23.3839 120.344 22.7599C119.784 22.1359 119.056 21.8239 118.16 21.8239C117.264 21.8239 116.536 22.1359 115.976 22.7599C115.416 23.3839 115.128 24.1919 115.112 25.1839C115.128 26.1759 115.408 26.9839 115.952 27.6079C116.512 28.2159 117.248 28.5199 118.16 28.5199Z" fill="#9D9FA7"/>
<path d="M131.925 19.0879V21.4159C132.837 19.7999 134.261 18.9759 136.197 18.9439V22.4239C134.901 22.3119 133.861 22.5679 133.077 23.1919C132.309 23.8159 131.925 24.6799 131.925 25.7839V31.9999H128.229V19.0879H131.925Z" fill="#9D9FA7"/>
<path d="M145.28 31.9999V30.4879C144.384 31.6079 143.032 32.1679 141.224 32.1679C139.864 32.1679 138.784 31.7999 137.984 31.0639C137.184 30.3119 136.784 29.3359 136.784 28.1359C136.784 26.9199 137.208 25.9759 138.056 25.3039C138.92 24.6159 140.136 24.2639 141.704 24.2479H145.256V24.0079C145.256 23.3199 145.024 22.7919 144.56 22.4239C144.112 22.0399 143.448 21.8479 142.568 21.8479C141.368 21.8479 140.088 22.2239 138.728 22.9759L137.576 20.4319C139.56 19.4399 141.504 18.9439 143.408 18.9439C145.136 18.9439 146.472 19.3519 147.416 20.1679C148.376 20.9839 148.864 22.1199 148.88 23.5759L148.904 31.9999H145.28ZM142.256 29.5279C143.024 29.5279 143.688 29.3439 144.248 28.9759C144.808 28.6079 145.144 28.1439 145.256 27.5839V26.4319H142.352C140.944 26.4319 140.24 26.9199 140.24 27.8959C140.24 28.3919 140.416 28.7919 140.768 29.0959C141.136 29.3839 141.632 29.5279 142.256 29.5279Z" fill="#9D9FA7"/>
<path d="M169.177 18.9439C170.601 18.9439 171.729 19.3919 172.561 20.2879C173.409 21.1679 173.833 22.3679 173.833 23.8879V31.9999H170.161V24.9679C170.161 24.1359 169.937 23.4879 169.489 23.0239C169.041 22.5599 168.433 22.3279 167.665 22.3279C166.785 22.3439 166.089 22.6559 165.577 23.2639C165.065 23.8719 164.809 24.6559 164.809 25.6159V31.9999H161.137V24.9679C161.137 24.1519 160.913 23.5119 160.465 23.0479C160.033 22.5679 159.433 22.3279 158.665 22.3279C157.785 22.3439 157.081 22.6559 156.553 23.2639C156.041 23.8719 155.785 24.6559 155.785 25.6159V31.9999H152.089V19.0879H155.785V21.3199C156.681 19.7679 158.137 18.9759 160.153 18.9439C161.241 18.9439 162.161 19.2079 162.913 19.7359C163.665 20.2479 164.201 20.9759 164.521 21.9199C165.353 19.9679 166.905 18.9759 169.177 18.9439Z" fill="#9D9FA7"/>
<defs>
<linearGradient id="paint0_linear_5_3147" x1="2400" y1="0" x2="2400" y2="4800" gradientUnits="userSpaceOnUse">
<stop stop-color="#9D9FA6"/>
<stop offset="1" stop-color="#229ED9"/>
</linearGradient>
</defs>
</svg>
