<svg width="174" height="48" viewBox="0 0 174 48" fill="none" xmlns="http://www.w3.org/2000/svg">
<g clip-path="url(#clip0_2082_353)">
<path d="M24 0C17.6363 0 11.5275 2.53013 7.03125 7.02938C2.53036 11.5304 0.00124676 17.6347 0 24C0 30.3626 2.53125 36.4714 7.03125 40.9706C11.5275 45.4699 17.6363 48 24 48C30.3637 48 36.4725 45.4699 40.9688 40.9706C45.4688 36.4714 48 30.3626 48 24C48 17.6374 45.4688 11.5286 40.9688 7.02938C36.4725 2.53013 30.3637 0 24 0Z" fill="url(#paint0_linear_2082_353)"/>
<path d="M10.8637 23.7461C17.8612 20.6981 22.5262 18.6885 24.8587 17.7176C31.5262 14.9452 32.9099 14.4637 33.8137 14.4474C34.0124 14.4442 34.4549 14.4933 34.7437 14.7268C34.9837 14.9237 35.0512 15.1899 35.0849 15.3768C35.1149 15.5636 35.1562 15.9892 35.1224 16.3215C34.7624 20.1165 33.1987 29.3257 32.4037 33.5763C32.0699 35.3748 31.4062 35.9778 30.7649 36.0367C29.3699 36.165 28.3124 35.1157 26.9624 34.2311C24.8512 32.8462 23.6587 31.9845 21.6074 30.6333C19.2374 29.0718 20.7749 28.2135 22.1249 26.811C22.4774 26.4438 28.6199 20.8582 28.7362 20.3516C28.7512 20.2882 28.7662 20.052 28.6237 19.9275C28.4849 19.8026 28.2787 19.8453 28.1287 19.8791C27.9149 19.9271 24.5437 22.1576 18.0037 26.5702C17.0474 27.228 16.1812 27.5486 15.4012 27.5317C14.5462 27.5133 12.8962 27.0472 11.6699 26.649C10.1699 26.1603 8.97369 25.902 9.07869 25.0721C9.13119 24.6401 9.72744 24.198 10.8637 23.7461Z" fill="white"/>
</g>
<path d="M169.176 18.9444C170.6 18.9444 171.728 19.3924 172.56 20.2884C173.408 21.1684 173.832 22.3684 173.832 23.8884V32.0004H170.16V24.9684C170.16 24.1364 169.936 23.4884 169.488 23.0244C169.04 22.5604 168.432 22.3284 167.664 22.3284C166.784 22.3444 166.088 22.6564 165.576 23.2644C165.064 23.8724 164.808 24.6564 164.808 25.6164V32.0004H161.136V24.9684C161.136 24.1524 160.912 23.5124 160.464 23.0484C160.032 22.5684 159.432 22.3284 158.664 22.3284C157.784 22.3444 157.08 22.6564 156.552 23.2644C156.04 23.8724 155.784 24.6564 155.784 25.6164V32.0004H152.088V19.0884H155.784V21.3204C156.68 19.7684 158.136 18.9764 160.152 18.9444C161.24 18.9444 162.16 19.2084 162.912 19.7364C163.664 20.2484 164.2 20.9764 164.52 21.9204C165.352 19.9684 166.904 18.9764 169.176 18.9444Z" fill="#9D9FA7"/>
<path d="M145.28 32.0004V30.4884C144.384 31.6084 143.032 32.1684 141.224 32.1684C139.864 32.1684 138.784 31.8004 137.984 31.0644C137.184 30.3124 136.784 29.3364 136.784 28.1364C136.784 26.9204 137.208 25.9764 138.056 25.3044C138.92 24.6164 140.136 24.2644 141.704 24.2484H145.256V24.0084C145.256 23.3204 145.024 22.7924 144.56 22.4244C144.112 22.0404 143.448 21.8484 142.568 21.8484C141.368 21.8484 140.088 22.2244 138.728 22.9764L137.576 20.4324C139.56 19.4404 141.504 18.9444 143.408 18.9444C145.136 18.9444 146.472 19.3524 147.416 20.1684C148.376 20.9844 148.864 22.1204 148.88 23.5764L148.904 32.0004H145.28ZM142.256 29.5284C143.024 29.5284 143.688 29.3444 144.248 28.9764C144.808 28.6084 145.144 28.1444 145.256 27.5844V26.4324H142.352C140.944 26.4324 140.24 26.9204 140.24 27.8964C140.24 28.3924 140.416 28.7924 140.768 29.0964C141.136 29.3844 141.632 29.5284 142.256 29.5284Z" fill="#9D9FA7"/>
<path d="M131.925 19.0884V21.4164C132.837 19.8004 134.261 18.9764 136.197 18.9444V22.4244C134.901 22.3124 133.861 22.5684 133.077 23.1924C132.309 23.8164 131.925 24.6804 131.925 25.7844V32.0004H128.229V19.0884H131.925Z" fill="#9D9FA7"/>
<path d="M124.856 19.0884V30.8004C124.856 32.6244 124.224 34.0804 122.96 35.1684C121.712 36.2564 120.048 36.8004 117.968 36.8004C115.904 36.8004 114.032 36.2324 112.352 35.0964L113.72 32.5044C114.936 33.3684 116.272 33.8004 117.728 33.8004C118.784 33.8004 119.624 33.5364 120.248 33.0084C120.872 32.4964 121.184 31.8004 121.184 30.9204V29.4564C120.288 30.7044 118.992 31.3284 117.296 31.3284C115.616 31.3284 114.256 30.7604 113.216 29.6244C112.176 28.4724 111.656 26.9604 111.656 25.0884C111.656 23.2644 112.168 21.7924 113.192 20.6724C114.216 19.5364 115.552 18.9684 117.2 18.9684C118.912 18.9524 120.24 19.5764 121.184 20.8404V19.0884H124.856ZM118.16 28.5204C119.056 28.5204 119.784 28.2164 120.344 27.6084C120.904 26.9844 121.184 26.1764 121.184 25.1844C121.184 24.1924 120.904 23.3844 120.344 22.7604C119.784 22.1364 119.056 21.8244 118.16 21.8244C117.264 21.8244 116.536 22.1364 115.976 22.7604C115.416 23.3844 115.128 24.1924 115.112 25.1844C115.128 26.1764 115.408 26.9844 115.952 27.6084C116.512 28.2164 117.248 28.5204 118.16 28.5204Z" fill="#9D9FA7"/>
<path d="M103.984 18.9684C106.208 18.9684 107.856 19.6564 108.928 21.0324C110.016 22.3924 110.48 24.2724 110.32 26.6724H101.056C101.264 27.4884 101.664 28.1284 102.256 28.5924C102.848 29.0404 103.56 29.2644 104.392 29.2644C105.656 29.2644 106.744 28.8084 107.656 27.8964L109.6 29.8644C108.24 31.3844 106.4 32.1444 104.08 32.1444C102.032 32.1444 100.392 31.5444 99.16 30.3444C97.944 29.1444 97.336 27.5604 97.336 25.5924C97.336 23.6084 97.952 22.0084 99.184 20.7924C100.416 19.5764 102.016 18.9684 103.984 18.9684ZM100.984 24.4884H106.864C106.832 23.6404 106.56 22.9604 106.048 22.4484C105.536 21.9364 104.856 21.6804 104.008 21.6804C103.208 21.6804 102.536 21.9364 101.992 22.4484C101.464 22.9444 101.128 23.6244 100.984 24.4884Z" fill="#9D9FA7"/>
<path d="M94.7325 32.0004H91.0365V14.1924H94.7325V32.0004Z" fill="#9D9FA7"/>
<path d="M82.1402 18.9684C84.3642 18.9684 86.0122 19.6564 87.0842 21.0324C88.1722 22.3924 88.6362 24.2724 88.4762 26.6724H79.2122C79.4202 27.4884 79.8202 28.1284 80.4122 28.5924C81.0042 29.0404 81.7162 29.2644 82.5482 29.2644C83.8122 29.2644 84.9002 28.8084 85.8122 27.8964L87.7562 29.8644C86.3962 31.3844 84.5562 32.1444 82.2362 32.1444C80.1882 32.1444 78.5482 31.5444 77.3162 30.3444C76.1002 29.1444 75.4922 27.5604 75.4922 25.5924C75.4922 23.6084 76.1082 22.0084 77.3402 20.7924C78.5722 19.5764 80.1722 18.9684 82.1402 18.9684ZM79.1402 24.4884H85.0202C84.9882 23.6404 84.7162 22.9604 84.2042 22.4484C83.6922 21.9364 83.0122 21.6804 82.1642 21.6804C81.3642 21.6804 80.6922 21.9364 80.1482 22.4484C79.6202 22.9444 79.2842 23.6244 79.1402 24.4884Z" fill="#9D9FA7"/>
<path d="M76.2319 18.4164H71.0959V32.0004H67.3039V18.4164H62.1919V15.2004H76.2319V18.4164Z" fill="#9D9FA7"/>
<defs>
<linearGradient id="paint0_linear_2082_353" x1="2400" y1="0" x2="2400" y2="4800" gradientUnits="userSpaceOnUse">
<stop stop-color="#9D9FA6"/>
<stop offset="1" stop-color="#229ED9"/>
</linearGradient>
<clipPath id="clip0_2082_353">
<rect width="48" height="48" fill="white"/>
</clipPath>
</defs>
</svg>
