<svg width="155" height="38" viewBox="0 0 155 38" fill="none" xmlns="http://www.w3.org/2000/svg">
<path opacity="0.6" fill-rule="evenodd" clip-rule="evenodd" d="M4.3553 0.0682914C4.27459 0.103471 4.1032 0.13456 3.97443 0.13746C3.84567 0.140287 3.71991 0.176136 3.69496 0.217043C3.67002 0.25795 3.59995 0.291419 3.53927 0.291419C3.40266 0.291419 2.45676 0.745262 2.42323 0.826926C2.40973 0.859652 2.35199 0.886426 2.29484 0.886426C2.23768 0.886426 2.19087 0.919895 2.19087 0.960802C2.19087 1.00171 2.14766 1.03518 2.09483 1.03518C2.042 1.03518 1.73663 1.31513 1.41615 1.65733C0.672178 2.45182 0.301658 3.17981 0.0671659 4.30772C-0.0461179 4.85252 -0.0053242 34.9083 0.109354 35.3649C0.376568 36.429 1.26039 37.4036 2.30093 37.7816C2.85729 37.9836 3.22437 38 7.20691 38H11.3622V28.2568C11.3622 22.898 11.3784 18.5135 11.3981 18.5135C11.4436 18.5135 15.24 21.3872 15.5741 21.6745C15.6216 21.7154 15.713 21.7823 15.7772 21.8232C15.8414 21.8641 16.77 22.567 17.8408 23.3851C18.9116 24.2033 19.878 24.9396 19.9883 25.0214C20.9272 25.7177 24.3065 28.2989 24.5602 28.5136C24.7371 28.6633 24.9225 28.7699 24.9721 28.7506C25.0217 28.7313 25.6483 28.2693 26.3644 27.7238C27.0806 27.1783 27.7382 26.6818 27.8258 26.6205C27.9135 26.5591 28.4415 26.1575 28.9994 25.728C29.5573 25.2985 30.0852 24.8968 30.1725 24.8355C30.2599 24.7741 30.5123 24.5838 30.7334 24.4126C31.3685 23.9207 31.9271 23.4953 33.2265 22.5142C33.8924 22.0115 34.4536 21.5817 34.4738 21.5594C34.494 21.5369 34.6261 21.437 34.7673 21.3373C34.9085 21.2375 35.0736 21.1152 35.1342 21.0653C35.4654 20.7925 38.5071 18.5135 38.5399 18.5135C38.5614 18.5135 38.5796 22.8896 38.5804 28.2382L38.5818 37.9628L42.6359 37.9853C47.0879 38.0101 47.1342 38.0065 48.0253 37.5703C48.6907 37.2446 49.2523 36.6664 49.5946 35.9547L49.8449 35.434L49.8643 20.1586C49.8845 4.17808 49.8944 4.80328 49.6032 3.63722C49.2749 2.32225 47.9698 0.961175 46.5249 0.426859C46.4341 0.393241 46.2855 0.334409 46.1947 0.296031C45.7811 0.121248 44.3927 0.0205414 43.9949 0.136493C43.8429 0.180747 43.5781 0.255941 43.4067 0.303467C42.9748 0.423212 42.078 0.850949 41.9621 0.992486C41.9094 1.0569 41.8343 1.10955 41.7952 1.10955C41.7562 1.10955 41.5538 1.25436 41.3456 1.4313C41.1375 1.60824 40.8515 1.83368 40.7103 1.93223C40.5691 2.03085 40.404 2.15201 40.3434 2.20147C39.9448 2.52716 39.1281 3.13771 38.6926 3.43536C38.4101 3.62844 38.047 3.8866 37.8855 4.00902C37.7241 4.13145 37.5085 4.29061 37.4064 4.36261C37.3043 4.43468 36.7639 4.84508 36.2054 5.2746C35.6469 5.70412 35.0981 6.12249 34.9859 6.2043C34.8736 6.28612 34.5801 6.512 34.3335 6.70634C34.0869 6.90061 33.8566 7.05963 33.8216 7.05963C33.7867 7.05963 33.7147 7.11258 33.6617 7.17736C33.6086 7.24215 32.9195 7.7839 32.1302 8.38129C31.341 8.97867 30.1878 9.85445 29.5676 10.3275C28.9474 10.8005 28.3696 11.2375 28.2836 11.2988C28.1977 11.3599 28.0451 11.4854 27.9446 11.5777C27.8442 11.6699 27.7392 11.7453 27.7114 11.7453C27.6836 11.7453 27.6172 11.7882 27.5639 11.8407C27.5106 11.8932 27.3514 12.0171 27.2102 12.1161C27.0689 12.215 26.9369 12.3183 26.9167 12.3455C26.8965 12.3728 26.7443 12.4915 26.5783 12.6094C26.4124 12.7273 26.0162 13.0224 25.6979 13.2651C25.3796 13.5079 25.0826 13.7339 25.038 13.7673C24.9647 13.8223 24.6547 13.6142 23.6898 12.8623C23.5478 12.7516 22.841 12.2124 22.1193 11.6639C21.3975 11.1156 20.6877 10.5757 20.5418 10.4642C20.396 10.3528 20.1729 10.1854 20.0461 10.0923C19.9193 9.99926 19.335 9.55494 18.7476 9.10496C18.1602 8.65499 16.485 7.38339 15.025 6.27913C13.565 5.17487 12.3037 4.21267 12.222 4.14082C12.1403 4.06897 12.0534 4.01021 12.0289 4.01021C12.0044 4.01021 11.9021 3.9345 11.8017 3.8419C11.5418 3.60241 8.48186 1.27459 7.92704 0.894237C7.67208 0.719453 7.29238 0.50867 7.08328 0.425964C6.87417 0.343184 6.63711 0.248503 6.55641 0.215629C6.07649 0.0199461 4.68069 -0.0734691 4.3553 0.0682914ZM77.2641 5.91305C76.1676 6.00297 74.3152 6.35722 73.9451 6.54777C73.8751 6.58384 73.7673 6.61337 73.7057 6.61337C73.644 6.61337 73.5362 6.6429 73.4662 6.67904C73.3961 6.71519 73.2563 6.77893 73.1554 6.82066C72.2849 7.18086 71.099 7.86296 70.2184 8.50996C69.3976 9.113 67.8023 10.7297 67.3591 11.4075C67.2986 11.5001 67.0917 11.8139 66.8993 12.1048C66.3283 12.9683 65.7156 14.263 65.4152 15.241C65.2034 15.93 65.1564 16.1362 64.9823 17.1376C64.6654 18.96 64.7755 21.7744 65.2259 23.3665C65.2692 23.52 65.3335 23.7542 65.3686 23.8872C65.4721 24.2782 65.8756 25.3211 66.1096 25.8024C66.8212 27.2654 68.0187 28.8578 69.2139 29.9302C69.7608 30.4209 71.1164 31.4268 71.5779 31.6843C71.9806 31.909 72.7168 32.2789 72.9169 32.3573C73.0077 32.3927 73.1563 32.4522 73.2471 32.4893C73.8728 32.745 74.5931 32.9507 75.4665 33.1232C78.536 33.7297 82.068 33.2881 84.5308 31.9901C85.8327 31.3039 86.5689 30.7437 87.7194 29.5642C88.6753 28.5842 89.2373 27.8003 89.7765 26.6949C89.9661 26.3062 90.1503 25.9302 90.1859 25.8592C90.2215 25.7881 90.2507 25.6693 90.2507 25.5951C90.2507 25.5209 90.2769 25.4284 90.3091 25.3896C90.427 25.2468 90.6698 24.2882 90.9195 22.9782C91.026 22.4202 91.0393 19.7147 90.9384 19.1457L90.8725 18.7738L84.5805 18.7548L78.2884 18.7358L78.3082 20.3167L78.328 21.8976L83.0086 21.9167L87.6892 21.9359L87.6525 22.177C87.6323 22.3097 87.5949 22.5856 87.5693 22.7901C87.5261 23.1372 87.4214 23.5859 87.2547 24.1384C87.1861 24.3656 87.1376 24.4841 86.8034 25.2412C86.3876 26.1826 85.09 27.7664 84.2793 28.3218C83.3173 28.9807 82.7873 29.2594 81.9598 29.5416C80.8619 29.9159 80.3794 30.015 79.1351 30.1217C78.2628 30.1965 77.9696 30.1919 77.1908 30.0915C75.3719 29.8571 74.3222 29.5211 73.1503 28.7982C72.43 28.3539 72.3483 28.2971 72.3483 28.2407C72.3483 28.2086 72.3071 28.1819 72.2566 28.1813C72.2062 28.1807 72.0163 28.0436 71.8347 27.8765C71.6531 27.7096 71.422 27.4998 71.3211 27.4105C70.9942 27.1212 69.8537 25.7289 69.8537 25.6191C69.8537 25.5915 69.7615 25.4289 69.6487 25.2579C68.9942 24.2652 68.466 22.717 68.2993 21.3026C68.147 20.0106 68.1999 18.1579 68.416 17.2119C68.4253 17.171 68.4582 17.0204 68.489 16.8772C68.5198 16.7341 68.6436 16.3157 68.7642 15.9475C69.5789 13.4589 71.3899 11.349 73.7057 10.1902C75.2411 9.42188 76.3572 9.17704 78.2913 9.1841C79.5398 9.18871 80.3941 9.26413 80.4621 9.37576C80.4835 9.41094 80.5899 9.43988 80.6985 9.44018C80.8071 9.44047 81.1852 9.5414 81.5389 9.66449C82.9487 10.1551 84.0344 10.8085 84.9472 11.7158C85.2132 11.9801 85.4576 12.1869 85.4904 12.1753C85.585 12.1421 87.8294 9.87513 87.8294 9.81287C87.8294 9.61377 86.0781 8.15184 85.3715 7.76107C84.6037 7.33653 84.0534 7.06164 83.684 6.91839C83.4419 6.82445 83.1778 6.71846 83.0971 6.68276C83.0163 6.64706 82.6532 6.53736 82.29 6.43888C81.6637 6.26908 81.3285 6.19902 80.309 6.02461C79.8335 5.94332 77.8024 5.86887 77.2641 5.91305ZM145.202 6.23204C144.252 6.43435 143.457 7.29629 143.326 8.26608C143.235 8.93881 143.572 9.89156 144.042 10.2933C144.658 10.8183 145.567 11.114 146.036 10.942C146.17 10.893 146.33 10.8528 146.391 10.8528C146.733 10.8528 147.592 10.1148 147.799 9.64412C148.095 8.9699 148.136 8.52513 147.957 7.92566C147.664 6.94903 146.828 6.25957 145.865 6.20125C145.643 6.18779 145.345 6.2017 145.202 6.23204ZM151.696 6.55617C151.677 6.60809 151.669 12.5411 151.679 19.7407L151.698 32.8309H153.349H155V19.6663V6.50181L153.366 6.4818C152.098 6.46625 151.724 6.48291 151.696 6.55617ZM102.465 14.2732C102.262 14.3034 101.899 14.3862 101.658 14.4572C101.23 14.5832 100.082 15.079 100.009 15.1694C99.9887 15.1944 99.8276 15.3012 99.6509 15.4068C99.262 15.6392 98.2967 16.5847 98.0545 16.9702C97.9582 17.1237 97.8476 17.2491 97.8087 17.2491C97.7672 17.2491 97.7298 16.7513 97.7179 16.0405L97.6978 14.8319H96.1203H94.5428L94.5242 23.8113L94.5056 32.7907L94.6726 32.8332C94.7646 32.8566 95.5158 32.8656 96.3421 32.8533L97.8445 32.8309L97.8894 27.2155C97.9321 21.8653 97.9594 21.094 98.1094 21C98.1453 20.9775 98.1747 20.8997 98.1747 20.8271C98.1747 20.6658 98.5982 19.7715 98.8661 19.3669C99.3049 18.7044 100.513 17.621 100.813 17.621C100.856 17.621 100.949 17.5908 101.019 17.5538C101.37 17.3691 101.783 17.3149 102.614 17.3446C103.428 17.3738 103.762 17.4165 104.044 17.5277C104.105 17.5515 104.291 17.6241 104.459 17.689C105.089 17.9335 105.635 18.5415 105.934 19.3316C106.309 20.3232 106.319 20.513 106.319 26.8176C106.319 31.2855 106.34 32.7109 106.407 32.7788C106.507 32.88 109.445 32.9079 109.598 32.8092C109.665 32.7663 109.693 31.3896 109.715 27.1392C109.748 20.8648 109.707 21.3374 110.319 20.0382C110.951 18.6987 111.905 17.8334 113.221 17.4082C113.559 17.299 115.018 17.2987 115.471 17.4078C116.735 17.7127 117.484 18.3993 117.854 19.592C118.12 20.4456 118.131 20.7522 118.131 26.8236L118.131 32.7909L118.303 32.8345C118.397 32.8585 119.148 32.8675 119.972 32.8545L121.47 32.8309L121.489 26.918C121.506 21.4781 121.482 20.4264 121.314 19.201C121.29 19.0269 121.241 18.866 121.205 18.8434C121.169 18.8208 121.14 18.7246 121.14 18.6298C121.14 18.14 120.254 16.5144 119.635 15.8692C119.057 15.2657 117.81 14.601 116.847 14.3828C116.003 14.1915 114.105 14.1873 113.399 14.3751C112.534 14.6052 111.738 14.9487 111.161 15.3409C110.559 15.7509 109.624 16.6666 109.259 17.2045C109.131 17.3927 108.998 17.5466 108.964 17.5466C108.93 17.5466 108.813 17.3732 108.703 17.1611C108.594 16.9492 108.434 16.6761 108.347 16.5544C108.123 16.2387 107.445 15.5385 107.364 15.5385C107.326 15.5385 107.236 15.4726 107.165 15.3921C107.033 15.2442 105.811 14.5975 105.545 14.5352C105.466 14.5167 105.27 14.4639 105.108 14.4179C104.436 14.2264 103.224 14.1601 102.465 14.2732ZM130.861 14.2417C130.248 14.3276 129.594 14.4444 129.43 14.4971C129.33 14.5297 129.049 14.6144 128.807 14.6855C128.198 14.8641 127.512 15.201 126.863 15.6413C125.985 16.2361 124.69 17.6516 124.891 17.7962C125.178 18.0022 126.591 18.8854 126.634 18.8854C126.666 18.8854 126.753 18.9523 126.826 19.0341C126.899 19.116 126.989 19.1829 127.026 19.1829C127.063 19.1829 127.236 19.2826 127.41 19.4045L127.728 19.626L127.859 19.4231C128.289 18.7544 129.387 17.871 130.127 17.5982C131.068 17.2515 132.029 17.123 132.779 17.2435C133.096 17.2946 133.422 17.3634 133.502 17.3963C133.583 17.4293 133.828 17.5273 134.047 17.6141C135.314 18.1172 136.464 19.4424 136.693 20.6623C136.76 21.0253 136.8 22.1579 136.745 22.1579C136.713 22.1579 136.099 21.871 135.943 21.7833C135.873 21.7439 135.756 21.7117 135.683 21.7117C135.609 21.7117 135.518 21.684 135.48 21.6502C135.407 21.5859 134.33 21.327 133.582 21.1939C133.024 21.0947 130.944 21.094 130.317 21.1929C128.196 21.5276 126.732 22.2013 125.681 23.326C125.332 23.6995 124.784 24.4643 124.765 24.6031C124.762 24.6286 124.718 24.7499 124.667 24.8727C124.315 25.731 124.195 26.4533 124.24 27.454C124.309 28.9638 124.72 30.0184 125.657 31.0891C126.951 32.5679 128.867 33.3835 131.055 33.3874C133.268 33.3912 135.028 32.4817 136.422 30.6139C136.535 30.4628 136.659 30.3393 136.697 30.3393C136.739 30.3393 136.767 30.8339 136.767 31.5651C136.767 32.7745 136.77 32.7914 136.933 32.832C137.023 32.8546 137.741 32.8636 138.528 32.852L139.959 32.8309L139.982 27.0667C140.005 21.3879 139.983 20.6748 139.762 19.7035C139.511 18.6029 139.055 17.6392 138.414 16.8523C138.035 16.387 137.205 15.6613 136.757 15.403C136.621 15.325 136.395 15.1926 136.254 15.1087C135.905 14.9015 135.017 14.6005 134.228 14.4221C133.598 14.2797 131.422 14.1632 130.861 14.2417ZM144.08 14.8443C144.053 14.8715 144.031 18.9207 144.031 23.8424V32.7909L144.196 32.8319C144.287 32.8545 145.022 32.8635 145.829 32.8519L147.296 32.8309L147.315 23.8128L147.333 14.7947H145.731C144.85 14.7947 144.107 14.817 144.08 14.8443ZM131.595 23.9042C130.584 24.0417 130.497 24.0681 129.614 24.5025C128.411 25.0944 127.67 26.1573 127.67 27.2899C127.67 27.7394 127.753 28.0518 128.017 28.5914C128.31 29.1916 128.784 29.6169 129.562 29.9781C130.157 30.2544 130.393 30.2946 131.411 30.2929C132.526 30.291 132.776 30.2477 133.336 29.9587C133.406 29.9226 133.499 29.893 133.542 29.893C133.875 29.893 135.713 28.2824 135.978 27.7578C136.036 27.6437 136.154 27.4257 136.239 27.2734C136.468 26.8685 136.673 26.1849 136.732 25.6349C136.786 25.1205 136.801 25.1545 136.364 24.8161C135.992 24.5279 135.37 24.2802 134.383 24.0263C134.113 23.9568 132.483 23.7811 132.324 23.8043C132.286 23.8098 131.958 23.8548 131.595 23.9042Z" fill="white"/>
</svg>
