<svg width="151" height="42" viewBox="0 0 151 42" fill="none" xmlns="http://www.w3.org/2000/svg">
<path d="M25.5507 2.83353C23.6587 1.53288 21.1899 0.880981 18.1441 0.880981H6.35271C5.41901 0.880981 4.90316 1.34794 4.80518 2.28097L0.0150355 32.3493C-0.0347469 32.6446 0.039138 32.9147 0.236015 33.1602C0.431765 33.4062 0.677974 33.5285 0.972838 33.5285H6.57369C7.55605 33.5285 8.09599 33.0627 8.19511 32.1285L9.52143 24.0223C9.56987 23.6295 9.74264 23.3101 10.0375 23.0641C10.3321 22.8186 10.7007 22.6579 11.1429 22.5843C11.585 22.5113 12.002 22.4746 12.3957 22.4746C12.7884 22.4746 13.2549 22.4994 13.7962 22.5482C14.3361 22.5973 14.6803 22.6212 14.8279 22.6212C19.0528 22.6212 22.3691 21.4307 24.7769 19.0473C27.1836 16.6647 28.3883 13.361 28.3883 9.13494C28.3883 6.23653 27.4417 4.13621 25.5507 2.83353ZM19.4709 11.8619C19.2245 13.5818 18.5865 14.7112 17.5549 15.2519C16.5229 15.7932 15.0491 16.0623 13.1332 16.0623L10.7011 16.136L11.9542 8.25034C12.052 7.7104 12.3712 7.44009 12.912 7.44009H14.3127C16.277 7.44009 17.7026 7.72324 18.587 8.28729C19.4709 8.85269 19.7658 10.0445 19.4709 11.8619Z" fill="white"/>
<path d="M149.987 0.880981H144.534C143.992 0.880981 143.673 1.15129 143.576 1.69192L138.785 32.3495L138.711 32.4968C138.711 32.7437 138.81 32.976 139.007 33.1972C139.202 33.4179 139.449 33.5285 139.743 33.5285H144.608C145.54 33.5285 146.056 33.0627 146.156 32.1285L150.946 1.98588V1.91267C150.945 1.22495 150.625 0.880981 149.987 0.880981Z" fill="white"/>
<path d="M84.1026 12.7457C84.1026 12.5006 84.0037 12.2668 83.8084 12.046C83.6113 11.825 83.3898 11.714 83.145 11.714H77.4702C76.9287 11.714 76.4868 11.9609 76.1437 12.4508L68.3319 23.9481L65.0893 12.8934C64.8426 12.108 64.3027 11.714 63.4681 11.714H57.94C57.6938 11.714 57.4728 11.8248 57.2775 12.046C57.0804 12.2668 56.9827 12.5008 56.9827 12.7457C56.9827 12.8448 57.4618 14.2934 58.4196 17.0939C59.3774 19.895 60.4091 22.9166 61.5147 26.1594C62.6202 29.4016 63.1971 31.1221 63.2465 31.3174C59.2175 36.8205 57.2036 39.7685 57.2036 40.1609C57.2036 40.8002 57.5226 41.1191 58.1617 41.1191H63.8364C64.3766 41.1191 64.8185 40.8741 65.163 40.3825L83.9557 13.2615C84.0534 13.164 84.1026 12.9928 84.1026 12.7457Z" fill="white"/>
<path d="M136.943 11.714H131.342C130.654 11.714 130.237 12.5249 130.09 14.1463C128.811 12.1818 126.479 11.1981 123.088 11.1981C119.551 11.1981 116.541 12.5249 114.061 15.178C111.579 17.8311 110.339 20.9516 110.339 24.5378C110.339 27.4371 111.186 29.746 112.881 31.4649C114.576 33.1857 116.848 34.0444 119.699 34.0444C121.123 34.0444 122.573 33.7491 124.046 33.16C125.52 32.5705 126.674 31.7848 127.511 30.8018C127.511 30.8511 127.461 31.0719 127.363 31.4647C127.264 31.8585 127.216 32.1538 127.216 32.3491C127.216 33.1361 127.534 33.5281 128.174 33.5281H133.259C134.191 33.5281 134.733 33.0623 134.88 32.1281L137.902 12.8932C137.95 12.5983 137.876 12.3285 137.68 12.0825C137.483 11.8372 137.238 11.714 136.943 11.714ZM127.326 26.2326C126.073 27.461 124.563 28.0748 122.794 28.0748C121.368 28.0748 120.215 27.6824 119.33 26.8958C118.446 26.111 118.003 25.03 118.003 23.6532C118.003 21.8365 118.617 20.3 119.846 19.0473C121.073 17.7944 122.597 17.1679 124.415 17.1679C125.79 17.1679 126.932 17.5734 127.842 18.3837C128.75 19.1946 129.206 20.3126 129.206 21.7376C129.205 23.5061 128.579 25.005 127.326 26.2326Z" fill="white"/>
<path d="M53.2245 11.714H47.6234C46.9346 11.714 46.5179 12.5249 46.3703 14.1463C45.0438 12.1818 42.7099 11.1981 39.369 11.1981C35.8316 11.1981 32.8219 12.5249 30.3411 15.178C27.8596 17.8311 26.6196 20.9516 26.6196 24.5378C26.6196 27.4371 27.4672 29.746 29.1623 31.4649C30.8574 33.1857 33.1291 34.0444 35.9791 34.0444C37.3541 34.0444 38.7797 33.7491 40.2534 33.16C41.7273 32.5705 42.9065 31.7848 43.7909 30.8018C43.5938 31.3913 43.496 31.9073 43.496 32.3491C43.496 33.1361 43.8152 33.5281 44.454 33.5281H49.539C50.4718 33.5281 51.0129 33.0623 51.1605 32.1281L54.1819 12.8932C54.2303 12.5983 54.1569 12.3285 53.9609 12.0825C53.7642 11.8372 53.5187 11.714 53.2245 11.714ZM43.6068 26.2691C42.3537 27.4742 40.8177 28.0748 39.001 28.0748C37.5753 28.0748 36.433 27.6824 35.5739 26.8958C34.7136 26.111 34.284 25.03 34.284 23.6532C34.284 21.8365 34.8979 20.3 36.1266 19.0473C37.3541 17.7944 38.8773 17.1679 40.6958 17.1679C42.0708 17.1679 43.2131 17.5734 44.1229 18.3837C45.0312 19.1946 45.4862 20.3126 45.4862 21.7376C45.4862 23.5554 44.8597 25.0667 43.6068 26.2691Z" fill="white"/>
<path d="M109.27 2.83353C107.379 1.53288 104.91 0.880981 101.864 0.880981H90.1462C89.163 0.880981 88.6223 1.34794 88.5248 2.28097L83.7347 32.3493C83.6849 32.6446 83.7585 32.9147 83.9556 33.1602C84.1507 33.4062 84.3976 33.5285 84.6925 33.5285H90.7353C91.3248 33.5285 91.7176 33.2095 91.9145 32.5707L93.2413 24.0223C93.2899 23.6295 93.462 23.3101 93.7571 23.0641C94.052 22.8186 94.4201 22.6579 94.8627 22.5843C95.3047 22.5113 95.7216 22.4746 96.1156 22.4746C96.5082 22.4746 96.9747 22.4994 97.5154 22.5482C98.0558 22.5973 98.4006 22.6212 98.5471 22.6212C102.773 22.6212 106.089 21.4307 108.496 19.0473C110.904 16.6647 112.107 13.361 112.107 9.13494C112.108 6.23653 111.161 4.13621 109.27 2.83353ZM101.716 14.957C100.635 15.6938 99.014 16.0621 96.8526 16.0621L94.4942 16.1358L95.7473 8.25012C95.8446 7.71017 96.1638 7.43986 96.7051 7.43986H98.0312C99.1118 7.43986 99.9716 7.48897 100.611 7.58696C101.249 7.68585 101.864 7.9922 102.453 8.50804C103.043 9.02389 103.338 9.77355 103.338 10.7559C103.338 12.8197 102.797 14.2195 101.716 14.957Z" fill="white"/>
</svg>
