<svg width="177" height="50" viewBox="0 0 177 50" fill="none" xmlns="http://www.w3.org/2000/svg">
<path fill-rule="evenodd" clip-rule="evenodd" d="M23.9115 17.7583C23.8704 35.4721 23.8695 35.5191 23.5507 36.451C22.3991 39.8192 19.0389 41.9448 15.6629 41.4407C14.1068 41.2085 12.8733 40.6021 11.6834 39.485C8.6168 36.6054 8.60249 31.8992 11.6518 29.0359C13.5432 27.2599 15.724 26.6463 18.3208 27.1597L18.7305 27.2408V22.9049V18.569L17.6217 18.4646C16.2198 18.3327 13.8638 18.6016 12.2134 19.0816C7.77209 20.3736 4.00263 23.7238 2.15425 28.022C1.18887 30.2666 0.940522 31.5614 0.945885 34.3203C0.950057 36.4326 0.997283 36.8878 1.34872 38.205C2.84298 43.8041 7.13222 48.0984 12.7407 49.6103C14.0228 49.9559 14.4652 50 16.6448 50C18.8396 50 19.2627 49.9572 20.5927 49.5998C26.4594 48.0239 30.4682 43.8428 32.1605 37.5355C32.2892 37.0562 32.3655 33.9711 32.4261 26.8149L32.511 16.767L33.3304 17.2925C36.2805 19.1842 40.3628 20.4875 43.3382 20.4875H44.3548V16.2255V11.9635H43.5593C41.6638 11.9635 38.5877 10.7405 36.7979 9.27561C35.5171 8.22716 34.4777 6.89801 33.6962 5.30881C32.9443 3.78002 32.6199 2.64812 32.4858 1.08419L32.3929 0H28.1729H23.9529L23.9115 17.7583ZM53.7405 16.1507V18.9921H57.0925H60.4445V29.834V40.6759H63.7965H67.1486V29.9088V19.1416H69.8253H72.502L73.4007 16.3277C73.8951 14.78 74.2995 13.4678 74.2995 13.4115C74.2995 13.3555 69.6737 13.3094 64.02 13.3094H53.7405V16.1507ZM77.5026 13.5849C75.8118 14.3934 75.1907 16.2331 76.0347 17.9332C76.95 19.777 79.3276 20.2783 80.9176 18.9626C82.5869 17.5814 82.4658 14.9843 80.6766 13.7957C79.8675 13.2583 78.3906 13.1602 77.5026 13.5849ZM84.877 26.9927V40.6759H88.1545H91.4321L91.4495 37.1243L91.4669 33.5726L92.4079 32.6976C92.9253 32.2165 93.4163 31.8647 93.499 31.916C93.5815 31.9672 95.0341 33.9928 96.7269 36.4172L99.8047 40.8255H103.301H106.797L105.988 39.6665C105.543 39.0292 103.487 36.0529 101.418 33.0529L97.6573 27.5985L101.733 23.6015L105.809 19.6045L101.862 19.5973L97.9152 19.5902L94.6735 22.8415L91.4321 26.0929V19.7011V13.3094H88.1545H84.877V26.9927ZM108.416 16.1507V18.9921H111.693H114.971V29.834V40.6759H118.323H121.675V29.9088V19.1416H124.402H127.129L127.98 16.4567C128.447 14.98 128.869 13.6677 128.918 13.5406C128.997 13.3333 127.938 13.3094 118.711 13.3094H108.416V16.1507ZM155.195 26.9927V40.6759H158.472H161.75L161.75 37.1243V33.5726L162.729 32.6937C163.291 32.1899 163.764 31.8708 163.839 31.946C163.911 32.0181 165.336 34.0287 167.007 36.4139L170.044 40.7507L173.495 40.7908C175.393 40.8129 176.946 40.7903 176.946 40.7405C176.946 40.6907 174.921 37.7151 172.447 34.128L167.948 27.6058L172.037 23.601L176.126 19.5962L172.18 19.5932L168.233 19.5902L164.991 22.8415L161.75 26.0929V19.7011V13.3094H158.472H155.195V26.9927ZM137.02 18.693C133.107 19.7368 129.932 22.8668 128.905 26.6936C128.309 28.9163 128.495 31.7642 129.375 33.8639C130.828 37.3312 134.193 40.0516 137.811 40.6825C139.226 40.9293 143.51 40.7882 144.692 40.4561C148.388 39.4172 151.368 36.5227 152.548 32.8249C152.971 31.5004 153.073 28.6369 152.749 27.1775C152.064 24.0845 149.826 21.1596 147.02 19.6886C145.071 18.6673 144.275 18.5016 141.042 18.4455C138.509 18.4014 137.994 18.4331 137.02 18.693ZM75.6403 31.3265V40.6759H78.9191H82.1976L82.1593 31.3668L82.1209 22.0577L78.8806 22.0173L75.6403 21.9771V31.3265ZM138.827 24.2301C137.256 24.5582 135.871 25.6145 135.072 27.0942C134.583 28 134.561 28.1051 134.561 29.6097C134.561 31.1119 134.583 31.2206 135.068 32.1172C136.545 34.8509 139.825 35.8312 142.574 34.3601C145.863 32.6004 146.395 28.1174 143.617 25.5689C142.379 24.4329 140.445 23.8923 138.827 24.2301Z" fill="white"/>
</svg>
