<svg width="198" height="44" viewBox="0 0 198 44" fill="none" xmlns="http://www.w3.org/2000/svg">
<path fill-rule="evenodd" clip-rule="evenodd" d="M21.1826 0.161939C19.7862 0.463098 18.8649 0.867835 16.4219 2.25365C15.4761 2.79014 14.7057 3.14083 14.1236 3.29978C10.4672 4.29825 9.37191 4.74426 8.07995 5.76111C6.3024 7.15991 5.45226 8.70148 4.48261 12.2848C4.04057 13.9185 3.89458 14.2901 3.23727 15.4562C1.59805 18.3639 1.08488 19.7256 0.968107 21.4774C0.825833 23.6115 1.33813 25.2059 3.25916 28.6073C3.91154 29.7624 4.10985 30.2999 4.75741 32.6687C5.5385 35.5256 6.58038 37.2184 8.32324 38.4621C9.57252 39.3537 10.8762 39.8845 13.6144 40.6168C14.6278 40.8878 15.2194 41.1238 16.0186 41.5761C19.5557 43.5779 20.4546 43.9158 22.4412 43.9904C24.5491 44.0696 25.914 43.6724 28.4058 42.2548C30.4603 41.0861 30.9531 40.873 32.5669 40.4559C35.6822 39.6508 36.863 39.0625 38.3143 37.5921C39.7578 36.1297 40.3617 34.8775 41.3057 31.3895C41.6769 30.0179 41.8342 29.6383 42.5597 28.3625C44.379 25.1638 44.7734 23.9189 44.6786 21.6753C44.5938 19.6683 44.2413 18.6657 42.5894 15.7314C41.7547 14.2488 41.6352 13.9317 40.8907 11.2245C39.9332 7.7422 38.2993 5.73304 35.4242 4.50254C34.9922 4.31762 33.7134 3.89835 32.5825 3.57067C30.6408 3.0082 30.4291 2.91937 28.7843 1.9766C27.8263 1.42755 26.672 0.834813 26.2192 0.659467C24.5476 0.0120201 22.7165 -0.168829 21.1826 0.161939ZM194.258 9.60143C192.896 10.2567 192.331 11.7305 192.938 13.0424C193.415 14.0727 194.602 14.7336 195.683 14.5706C197.723 14.2629 198.653 11.8262 197.332 10.2504C196.628 9.41057 195.257 9.12108 194.258 9.60143ZM160.161 9.82928C159.109 10.2072 158.584 11.0059 158.663 12.1057C158.825 14.3529 161.86 15.0643 162.855 13.0882C163.168 12.4677 163.222 11.5475 162.981 10.9655C162.568 9.97194 161.246 9.4393 160.161 9.82928ZM194.593 10.0474C193.375 10.6213 193.01 12.1755 193.835 13.2725C194.189 13.7434 194.933 14.0212 195.595 13.9298C197.301 13.6947 197.864 11.3578 196.473 10.2904C196 9.92725 195.096 9.81046 194.593 10.0474ZM194.456 10.6308C194.357 10.6709 194.319 11.0518 194.319 11.998V13.3098H194.648C194.969 13.3098 194.976 13.2976 194.976 12.7594C194.976 12.1838 195.015 12.1458 195.441 12.3086C195.615 12.3752 195.746 12.5574 195.835 12.8589C195.954 13.2555 196.009 13.3098 196.296 13.3098C196.595 13.3098 196.616 13.2852 196.552 13.0071C196.514 12.8405 196.394 12.5474 196.285 12.3556C196.094 12.0173 196.095 12.001 196.298 11.8157C196.691 11.4583 196.511 10.8775 195.947 10.6796C195.597 10.557 194.71 10.528 194.456 10.6308ZM60.691 10.8105L60.4174 10.9497L60.3895 20.5529L60.3615 30.1561L62.25 30.126L64.1385 30.0959L64.1932 24.7937L64.2479 19.4913L66.4367 22.6411C69.3801 26.8767 69.4974 27.0329 69.8884 27.2362C70.6761 27.6459 71.1768 27.1694 73.303 23.9868C74.6863 21.9162 75.8593 20.3123 76.2753 19.9225L76.5601 19.6556L76.5604 22.6743C76.5605 24.3345 76.5929 26.696 76.6324 27.9219L76.7042 30.1509H78.6021H80.5V20.5369V10.9231L80.0769 10.7955C79.5104 10.6248 78.712 10.6344 78.2803 10.817C78.0866 10.899 77.7367 11.1837 77.5028 11.4499C77.2688 11.7161 75.6271 14.0638 73.8544 16.667C72.0816 19.2702 70.574 21.4575 70.5039 21.5276C70.4073 21.6244 69.6519 20.5937 67.367 17.2474C64.0523 12.3929 63.5038 11.6518 62.9035 11.216C62.1694 10.6831 61.2666 10.5177 60.691 10.8105ZM144.161 10.849C144.119 10.8907 144.086 15.2259 144.086 20.4829V30.0408H150.871H157.656V28.1696V26.2983H152.773H147.89L147.93 18.5657L147.971 10.8331L146.104 10.8031C145.077 10.7866 144.203 10.8073 144.161 10.849ZM194.976 11.4385C194.976 11.7329 195.012 11.7688 195.308 11.7688C195.716 11.7688 195.869 11.4743 195.575 11.2575C195.218 10.9955 194.976 11.0688 194.976 11.4385ZM23.3715 11.2909C19.8766 11.4389 15.1616 12.2044 14.1342 12.7908C13.6133 13.088 13.4689 13.3031 13.5559 13.6516C13.7301 14.3501 15.2419 14.6475 18.4466 14.6138C22.0756 14.5756 23.0664 14.6174 23.9583 14.8469C25.6781 15.2893 26.6748 16.0733 27.7456 17.8257C28.7212 19.4224 29.382 19.8805 30.874 19.9939C31.6752 20.0549 33.2063 19.8762 33.5769 19.6784C34.0485 19.4267 33.6717 18.582 32.4359 17.1208C31.7633 16.3256 31.2529 15.4165 31.254 15.0159C31.2552 14.5969 31.4212 14.4839 32.0054 14.5047C32.9136 14.5371 33.2504 13.9956 32.7923 13.24C32.1338 12.1538 30.2699 11.5465 26.9283 11.3296C25.356 11.2274 24.9705 11.2232 23.3715 11.2909ZM88.3538 15.5073C86.3665 15.8728 84.4147 17.0617 83.4456 18.497C82.4499 19.9717 82.0841 21.1759 82.096 22.9411C82.1161 25.9643 83.595 28.4211 86.1362 29.6534C87.3891 30.2609 88.132 30.4155 89.8025 30.4168C91.1381 30.4178 91.364 30.3884 92.1555 30.1112C93.4477 29.6585 94.1334 29.2232 95.1156 28.2324C96.5872 26.7478 97.2499 25.1087 97.2566 22.9366C97.2641 20.4543 96.3225 18.452 94.4654 17.0016C93.1958 16.0101 91.8045 15.5264 90.0214 15.4569C89.3894 15.4321 88.639 15.4549 88.3538 15.5073ZM105.178 15.5992C104.381 15.8763 103.693 16.3112 103.109 16.9073C102.51 17.5184 102.393 17.4569 102.39 16.5294L102.388 15.9515H100.583H98.7767V22.9962V30.0408H100.62H102.463L102.53 25.8305C102.607 20.9707 102.637 20.7755 103.448 19.904C104.254 19.0377 105.599 18.6949 106.787 19.0529C107.446 19.2515 108.134 19.9269 108.425 20.6607C108.668 21.2723 108.676 21.4131 108.713 25.6681L108.752 30.0461L110.577 30.0159L112.402 29.9858L112.398 25.1976C112.394 19.9626 112.341 19.3491 111.796 18.1999C111.214 16.9728 109.884 15.9785 108.291 15.5806C107.344 15.3439 105.887 15.3526 105.178 15.5992ZM119.406 15.5782C116.443 16.1932 113.919 19.0235 113.674 22.0055C113.403 25.3067 114.949 28.3707 117.505 29.5968C118.744 30.1916 119.752 30.3959 121.431 30.3933C122.956 30.391 123.987 30.187 125.447 29.5988C126.493 29.1776 127.591 28.5172 127.523 28.35C127.442 28.1488 126.426 26.348 126.247 26.0855L126.082 25.8459L125.352 26.1795C123.764 26.9046 121.645 27.2876 120.438 27.0674C119.132 26.8292 118.329 26.2642 117.859 25.2527C117.384 24.2313 116.916 24.323 122.769 24.2906L127.938 24.262L128.082 23.6566C128.254 22.932 128.188 21.4766 127.94 20.5195C127.445 18.6101 126.169 17.0068 124.496 16.1916C122.947 15.4373 121.137 15.219 119.406 15.5782ZM170.474 15.5179C168.848 15.8096 167.495 16.5139 166.345 17.6673C164.363 19.6544 163.746 22.4806 164.653 25.4178C165.328 27.6067 167.094 29.3386 169.458 30.1313C170.183 30.3746 170.49 30.4131 171.72 30.4154C173.381 30.4186 174.123 30.2573 175.441 29.6081C177.903 28.3942 179.46 25.7623 179.448 22.8322C179.44 20.784 178.749 19.1171 177.301 17.6556C176.323 16.6685 175.421 16.1301 174.073 15.7292C173.137 15.451 171.412 15.3498 170.474 15.5179ZM187.546 15.5752C186.748 15.7909 185.758 16.3364 185.125 16.9093C184.837 17.1695 184.572 17.3825 184.536 17.3825C184.499 17.3825 184.469 17.0357 184.469 16.612V15.8415H182.718H180.967V22.9438V30.0461L182.801 30.0159L184.634 29.9858L184.644 26.0782C184.65 23.929 184.689 21.8961 184.732 21.5606C184.875 20.4157 185.621 19.4568 186.652 19.0908C187.956 18.6279 189.448 19.0453 190.13 20.0637C190.324 20.3535 190.533 20.7727 190.595 20.9954C190.662 21.239 190.707 23.1196 190.707 25.7205L190.708 30.0408H192.558H194.409L194.487 29.1001C194.53 28.5828 194.539 26.3415 194.507 24.1194C194.444 19.7513 194.398 19.3538 193.82 18.2038C193.231 17.0335 191.629 15.8612 190.149 15.5182C189.47 15.3605 188.24 15.3875 187.546 15.5752ZM128.045 15.8772C128.01 15.9677 128.064 16.2022 128.165 16.3983C128.266 16.5945 128.485 17.0819 128.652 17.4815C128.818 17.8811 129.384 19.1739 129.908 20.3544C132.433 26.0388 133.799 29.2176 133.863 29.5617C134.051 30.5683 133.206 31.7868 132.015 32.2279C131.27 32.504 130.305 32.5336 129.648 32.3005C129.298 32.1763 129.182 32.17 129.149 32.273C129.101 32.4247 128.545 35.0777 128.545 35.1579C128.545 35.2598 129.485 35.6907 130.022 35.8352C131.134 36.1338 132.661 35.9617 133.719 35.4186C134.39 35.0744 135.602 33.8497 136.153 32.9588C136.416 32.5345 136.851 31.6671 137.12 31.0315C137.588 29.9266 139.895 23.9111 141.987 18.3456L142.969 15.7314H141.144C139.131 15.7314 138.988 15.7711 138.65 16.426C138.55 16.6191 138.112 17.8668 137.678 19.1987C137.243 20.5305 136.628 22.3572 136.311 23.258L135.734 24.8957L135.092 23.258C133.445 19.0614 132.225 16.1686 132.025 15.9863C131.835 15.8133 131.557 15.7815 129.956 15.7497C128.394 15.7185 128.098 15.7383 128.045 15.8772ZM159.079 22.9962V30.0408H160.885H162.691V22.9962V15.9515H160.885H159.079V22.9962ZM21.6204 17.6166C19.973 17.7052 18.1605 17.9891 17.3881 18.2797C16.3612 18.6659 15.719 19.6964 15.8563 20.7376C15.9369 21.3484 16.3948 21.7098 17.4474 21.9933C20.3377 22.772 23.0052 22.5218 24.8123 21.3023C25.1811 21.0534 25.5838 20.7135 25.7073 20.5469L25.9316 20.244L25.6913 19.4935C25.412 18.6214 24.8456 17.8891 24.3273 17.73C23.7871 17.5641 23.1184 17.5361 21.6204 17.6166ZM119.914 18.7195C119.085 18.9595 118.201 19.7461 117.828 20.5746C117.402 21.5221 117.162 21.4552 120.993 21.4552C123.733 21.4552 124.386 21.4272 124.386 21.3096C124.386 21.2296 124.304 20.9204 124.203 20.6227C123.956 19.8952 123.092 19.0256 122.368 18.7777C121.778 18.5754 120.516 18.5455 119.914 18.7195ZM88.2985 19.1567C87.5284 19.4545 86.6059 20.32 86.2231 21.104C85.9472 21.6691 85.9173 21.8434 85.9173 22.8884C85.9173 23.9732 85.9399 24.0926 86.2741 24.7753C86.6892 25.6236 87.2826 26.2057 88.1478 26.6137C88.6712 26.8605 88.9096 26.9034 89.7478 26.9017C90.6089 26.8998 90.8055 26.8613 91.3113 26.5951C92.5076 25.9655 93.2791 24.9168 93.5138 23.6016C93.842 21.7608 92.7538 19.7901 91.0566 19.1514C90.2557 18.8501 89.0861 18.8523 88.2985 19.1567ZM170.614 19.0733C168.701 19.7024 167.578 21.8293 168.092 23.8492C168.426 25.1596 169.077 26.0265 170.156 26.5963C170.663 26.8641 170.856 26.9019 171.72 26.9028C172.577 26.9036 172.794 26.8624 173.393 26.584C174.256 26.1831 175.055 25.3349 175.398 24.4543C175.586 23.9723 175.646 23.5853 175.652 22.8288C175.659 21.9208 175.629 21.7728 175.3 21.1009C174.899 20.2821 174.253 19.6381 173.44 19.2457C172.801 18.9377 171.304 18.8463 170.614 19.0733ZM34.3125 22.119C34.142 22.3024 33.9194 22.7045 33.8178 23.0125C33.5673 23.7711 33.6387 25.1853 33.9587 25.803C34.1983 26.2654 34.7434 26.8742 35.17 27.1559C35.4003 27.3078 35.4486 27.3034 35.7172 27.1053C36.1681 26.773 36.3949 26.2254 36.3933 25.4728C36.3904 24.2077 35.9029 22.7382 35.2768 22.1087C34.8713 21.7007 34.6992 21.7026 34.3125 22.119ZM25.9883 22.7843C24.5002 23.5138 23.8731 23.9234 23.7173 24.2674C23.6475 24.4215 23.5903 24.9823 23.5903 25.5139C23.5903 26.7198 23.6891 26.8333 25.0678 27.2137C26.8281 27.6992 27.1078 27.7436 27.6958 27.6303C28.379 27.4988 30.5304 26.3583 30.7598 26.0061C30.9457 25.7207 30.9784 25.4166 30.945 24.281C30.9156 23.2811 30.6848 23.0445 29.2799 22.5737C27.7839 22.0726 27.3886 22.0978 25.9883 22.7843ZM30.8608 28.2604C29.1994 29.2163 29.0167 29.4771 28.6056 31.4788C28.4308 32.33 28.5619 32.509 29.8422 33.1671C30.6392 33.5768 30.9333 33.6766 31.1907 33.6249C31.7026 33.5219 33.5412 32.4531 33.7753 32.1224C34.1893 31.5377 34.4684 29.3585 34.2152 28.6886C34.1599 28.5424 33.8579 28.2172 33.5442 27.9659C32.7196 27.3056 32.4732 27.3327 30.8608 28.2604Z" fill="white"/>
</svg>
