<svg width="24" height="25" viewBox="0 0 24 25" fill="none" xmlns="http://www.w3.org/2000/svg">
<path fill-rule="evenodd" clip-rule="evenodd" d="M11.1095 0.532763C10.1397 0.608185 8.83838 0.887185 7.94541 1.21114C6.81193 1.62237 5.4639 2.37678 4.52354 3.12626C3.73857 3.75186 2.78968 4.76384 2.19516 5.60937C-0.382446 9.27551 -0.703633 14.0166 1.35516 18.0084C1.94438 19.1509 2.56759 19.9954 3.53612 20.964C4.50465 21.9325 5.3492 22.5557 6.49168 23.1449C10.6955 25.3131 15.6323 24.8481 19.4064 21.9285C19.9567 21.5028 21.047 20.4 21.4751 19.8359C22.5347 18.4401 23.2007 17.0756 23.6244 15.4324C23.7698 14.8683 23.9532 13.7153 23.9532 13.3649C23.9532 13.2501 23.9743 13.1562 24.0001 13.1562C24.029 13.1562 24.047 12.9209 24.047 12.5441C24.047 12.148 24.0304 11.9422 24.0001 11.9609C23.9707 11.9791 23.9532 11.8782 23.9532 11.6906C23.9532 11.1417 23.7798 10.1032 23.5521 9.28906C22.8819 6.89178 21.4144 4.6729 19.4767 3.12664C18.5607 2.39567 17.1924 1.62434 16.1017 1.22403C14.5906 0.66945 12.7065 0.408591 11.1095 0.532763ZM11.0516 1.53176C9.28918 1.69067 7.51787 2.29939 6.04698 3.25165L5.55479 3.57031L5.86416 3.59375C6.03432 3.60664 6.20307 3.64114 6.23916 3.67039C6.27526 3.69964 6.37862 3.73812 6.46885 3.75589C6.75221 3.81176 6.7914 3.83051 6.82116 3.92426C6.84648 4.00404 6.89438 4.01562 7.19855 4.01562C7.39018 4.01562 7.54698 4.00367 7.54698 3.98909C7.54698 3.97451 7.52513 3.92178 7.49846 3.8719C7.45796 3.79629 7.39843 3.78125 7.13963 3.78125C6.84896 3.78125 6.83373 3.77604 6.89865 3.69922C7.0343 3.53867 6.95621 3.45865 6.64918 3.44356L6.36685 3.42968L6.67055 3.20703C6.95912 2.99548 6.98949 2.98437 7.27843 2.98437C7.58204 2.98437 7.58288 2.98475 7.75538 3.19531C7.91504 3.39012 7.94485 3.40625 8.14552 3.40625C8.32491 3.40625 8.3889 3.38098 8.51237 3.26131C8.64338 3.13433 8.67488 3.12326 8.76605 3.17206C8.86904 3.22718 8.86801 3.2299 8.66757 3.43418C8.4781 3.62722 8.44866 3.64062 8.21405 3.64062H7.96318L7.97776 3.8164L7.99229 3.99218L8.33598 4.00601C8.6416 4.01834 8.68224 4.00995 8.70315 3.93008C8.72096 3.86183 8.78345 3.83351 8.96345 3.81223C9.23874 3.77961 9.22074 3.79072 9.2416 3.64062C9.25529 3.54233 9.23677 3.521 9.1269 3.50839C9.0167 3.49573 9.00071 3.47712 9.02616 3.3912C9.0428 3.33504 9.09001 3.26272 9.13098 3.23047C9.2177 3.16231 9.91787 3.1489 9.95851 3.21462C9.97304 3.23815 9.90394 3.3215 9.80499 3.39992C9.65054 3.52222 9.62809 3.56318 9.64655 3.689C9.66952 3.84551 9.67895 3.85198 9.94998 3.89703L10.1265 3.92637L10.0963 3.67015L10.0662 3.41389L10.2949 3.29848C10.4376 3.22643 10.6523 3.17023 10.866 3.149C11.2039 3.11539 11.2154 3.11792 11.7215 3.33922L12.2345 3.56342V3.76236C12.2345 3.94531 12.2458 3.96378 12.3751 3.99218C12.5311 4.02645 12.5403 4.05111 12.4613 4.22436C12.4132 4.32992 12.3788 4.34375 12.1642 4.34375C11.9221 4.34375 11.9212 4.34431 11.8589 4.53312C11.8245 4.63732 11.7736 4.71387 11.7459 4.70323C11.7181 4.69264 11.4867 4.63573 11.2315 4.57681C10.7056 4.45531 10.7057 4.45751 11.2267 4.19379C11.5783 4.01576 11.5628 4.03433 11.4574 3.91784C11.3091 3.75397 11.2355 3.73756 10.8729 3.78781C10.5795 3.8285 10.4991 3.86042 10.349 3.99607C10.2303 4.10332 10.1253 4.15625 10.0312 4.15625C9.88046 4.15625 9.83087 4.27686 9.96104 4.32678C10.0728 4.36972 10.0431 4.42343 9.89073 4.4539C9.81338 4.46937 9.7501 4.51179 9.7501 4.54822C9.7501 4.58548 9.69029 4.62312 9.61309 4.63447C9.48938 4.65261 9.47321 4.63948 9.44687 4.49918C9.43084 4.41368 9.40135 4.34375 9.38134 4.34375C9.26462 4.34375 8.83787 4.52942 8.48888 4.73206C7.93998 5.05076 7.94907 5.04026 8.01966 5.2759C8.09237 5.51857 8.26923 5.6337 8.63682 5.67767L8.90635 5.70987V6.01118C8.90635 6.30307 8.9101 6.3125 9.02612 6.3125C9.1261 6.3125 9.16459 6.27026 9.25895 6.05684C9.36877 5.8085 9.38035 5.79865 9.66652 5.71095L9.96104 5.62067L9.97463 5.24098C9.9879 4.87104 9.9923 4.85815 10.1468 4.74036C10.3179 4.60981 10.2626 4.60784 10.869 4.76576L11.0738 4.81911L11.0431 5.0502L11.0125 5.28125H11.1563C11.2354 5.28125 11.4042 5.22851 11.5314 5.16406C11.6585 5.09961 11.7738 5.04687 11.7876 5.04687C11.8014 5.04687 11.8126 5.1845 11.8126 5.35273V5.65854L12.0235 5.78595C12.22 5.90468 12.2345 5.9269 12.2345 6.11107C12.2345 6.30106 12.2272 6.3109 12.047 6.3649C11.7826 6.44412 11.7991 6.5562 12.0939 6.68304C12.2999 6.77168 12.3282 6.8007 12.3282 6.92318C12.3282 7.09418 12.2686 7.09953 11.8686 6.96443C11.6188 6.88011 11.5782 6.85039 11.5782 6.75204C11.5782 6.68914 11.6099 6.62553 11.6485 6.61072C11.7464 6.57317 11.7408 6.35937 11.642 6.35937C11.5997 6.35937 11.5417 6.39139 11.5131 6.43053C11.4509 6.51556 10.9689 6.58582 10.9689 6.50989C10.9689 6.41736 10.8226 6.3125 10.6936 6.3125C10.5383 6.3125 10.4532 6.38951 10.4532 6.53004C10.4532 6.61456 10.4892 6.6425 10.6371 6.67301L10.8209 6.71093L10.733 6.81889C10.649 6.92206 10.6398 6.92342 10.5269 6.84945C10.4109 6.77347 10.4038 6.77618 10.1497 6.99326C10.0073 7.11495 9.89073 7.2417 9.89073 7.27489C9.89073 7.30812 9.73782 7.41945 9.55088 7.52229C9.14635 7.7449 8.53177 8.34734 8.53065 8.52232C8.52962 8.68226 8.49118 8.72497 8.15471 8.94031C7.98802 9.04695 7.77259 9.21026 7.67588 9.30317C7.50427 9.46817 7.5001 9.48022 7.5001 9.8142C7.5001 10.0023 7.48871 10.1562 7.47479 10.1562C7.46087 10.1562 7.36716 10.1142 7.26657 10.0629C7.10237 9.97915 7.08216 9.9492 7.06923 9.76995L7.05479 9.57031L6.43534 9.55723L5.81588 9.54415L5.44777 9.72926C5.1084 9.89989 5.06837 9.93565 4.93482 10.1877C4.70555 10.6201 4.66299 10.8364 4.76335 11.0589C4.85551 11.2633 4.97391 11.3281 5.25526 11.3281C5.40146 11.3281 5.51659 11.2777 5.7871 11.0952C5.97699 10.967 6.15873 10.8563 6.19098 10.8491C6.32279 10.8196 6.31688 11.0663 6.17987 11.312L6.0451 11.5537L6.3699 11.6085L6.69469 11.6633L6.72779 12.149C6.75024 12.4784 6.78048 12.6423 6.82168 12.6581C6.85515 12.6709 7.05465 12.7077 7.26507 12.7399L7.64766 12.7985L7.84341 12.5696C7.95109 12.4437 8.07207 12.3 8.11229 12.2504C8.18101 12.1656 8.20604 12.1639 8.52516 12.2209C8.83862 12.2769 8.87466 12.2956 8.9911 12.4627C9.09966 12.6185 9.13609 12.6402 9.25205 12.6187C9.32616 12.605 9.46712 12.5937 9.56532 12.5937C9.70135 12.5937 9.75071 12.5719 9.77293 12.502C9.80101 12.4135 9.80809 12.413 9.9684 12.4895C10.0808 12.5431 10.2013 12.6717 10.3399 12.886L10.5451 13.2031H10.8901H11.2352L11.3563 13.4258C11.4262 13.5543 11.4909 13.7687 11.5094 13.9329L11.5415 14.2173L11.9466 14.3669C12.3001 14.4974 12.4099 14.5165 12.8091 14.516L13.2666 14.5156L13.4088 14.7468C13.5199 14.9274 13.5941 14.9925 13.7482 15.0447C13.9385 15.1091 13.9449 15.1178 13.9306 15.2906C13.9198 15.4221 13.8499 15.5545 13.6677 15.7891L13.4195 16.1085L13.358 16.7638L13.2965 17.4191L13.1055 17.5729C12.9378 17.7078 12.8718 17.7294 12.5651 17.75C12.2269 17.7727 12.2128 17.7785 12.1231 17.9327C12.034 18.0855 12.0332 18.1061 12.1039 18.4443L12.1776 18.7967L11.8596 19.1997C11.6847 19.4215 11.4798 19.708 11.4043 19.8366C11.2887 20.0334 11.2158 20.0952 10.9422 20.2278C10.7635 20.3145 10.5224 20.399 10.4064 20.4157C10.238 20.44 10.1925 20.4665 10.181 20.5469C10.1697 20.626 10.1973 20.6544 10.3099 20.6791C10.4998 20.7208 10.5009 20.8743 10.3126 21.0546L10.1721 21.1894L10.2739 21.2978C10.3355 21.3634 10.4302 21.4062 10.5134 21.4062C10.6461 21.4062 10.65 21.4124 10.6229 21.582C10.5308 22.1587 10.5217 22.1155 10.7765 22.3136C10.9712 22.465 11.003 22.5106 10.972 22.5948C10.9401 22.6815 10.8925 22.6972 10.6258 22.7091L10.3166 22.7229L9.97604 22.4255C9.72291 22.2045 9.57165 22.0203 9.38738 21.7085L9.13932 21.2891L9.1674 20.8298L9.19543 20.3704L9.00226 20.1146L8.80909 19.8588L8.88118 19.4789C8.97432 18.9879 8.97399 18.9841 8.83604 18.9495L8.71885 18.9201V17.9659V17.0117L8.37901 16.7784C8.19207 16.65 7.97612 16.5297 7.89901 16.511C7.74052 16.4725 7.68934 16.4127 7.6883 16.265C7.68793 16.2074 7.50263 15.9311 7.26413 15.6322C6.84066 15.1016 6.84066 15.1016 6.87249 14.8906C6.88998 14.7746 6.91707 14.5429 6.93268 14.3756L6.96104 14.0715L7.23423 13.8839L7.50737 13.6963L7.47469 13.3677C7.45669 13.1869 7.41816 13.0235 7.38901 13.0046C7.3599 12.9857 7.22794 12.9699 7.0958 12.9694C6.65073 12.9681 6.5903 12.9378 6.24845 12.5435L5.92979 12.176L5.55479 12.0872C5.19348 12.0016 5.17979 11.9935 5.17979 11.8634C5.17979 11.7439 5.15977 11.7252 5.00401 11.6998C4.87388 11.6785 4.82823 11.6874 4.82823 11.7339C4.82823 11.8195 4.73298 11.8122 4.25668 11.6902L3.84915 11.5859L3.65879 11.291C3.47138 11.0007 3.4696 10.9939 3.54348 10.8511L3.61852 10.7059L3.31426 10.2553C3.12095 9.96898 2.99907 9.73634 2.97999 9.61718C2.91146 9.1887 2.90415 9.17187 2.78546 9.17187C2.69818 9.17187 2.67263 9.19625 2.67479 9.27734C2.68299 9.58747 2.76544 9.84462 2.94521 10.1205C3.12474 10.3961 3.19262 10.6359 3.10557 10.687C3.08626 10.6983 3.00254 10.6972 2.91952 10.6846C2.78926 10.6648 2.73966 10.6122 2.55624 10.2994C2.34465 9.93847 2.34385 9.93537 2.34385 9.49217V9.04728L2.10948 8.9375L1.8751 8.82772L1.8713 8.51932C1.8676 8.21857 1.86587 8.2144 1.80221 8.35156C1.64344 8.69361 1.31382 9.81153 1.20104 10.3906C0.988648 11.4809 0.937461 12.4326 1.03459 13.4844C1.43705 17.8421 4.41291 21.5873 8.55479 22.9488C11.3187 23.8572 14.1885 23.6629 16.8048 22.3902C18.0217 21.7983 18.9797 21.0922 19.9901 20.0429L20.5504 19.4609L20.3534 19.4465L20.1564 19.4321L20.1551 19.0481C20.1539 18.6667 20.1524 18.6622 19.9441 18.3864L19.7345 18.1086V17.6803C19.7345 17.2668 19.7296 17.2473 19.5957 17.1189C19.5022 17.0294 19.4471 16.9207 19.4269 16.7862C19.4003 16.6089 19.4209 16.5423 19.6095 16.1955L19.8219 15.8047L19.4315 15.1187L19.041 14.4327L19.081 14.0874C19.1538 13.4587 19.1743 13.5021 18.7901 13.4699C18.5176 13.447 18.4318 13.4195 18.3305 13.3225C18.1652 13.1642 17.7354 13.1491 17.6017 13.2969C17.5284 13.3779 17.4573 13.3906 17.0788 13.3906C16.818 13.3906 16.6407 13.4096 16.6407 13.4375C16.6407 13.4633 16.5368 13.4844 16.4097 13.4844H16.1787L15.6597 12.8918L15.1407 12.2992V11.8329C15.1407 11.4342 15.1536 11.3553 15.2294 11.2887C15.2781 11.2459 15.3303 11.1424 15.3454 11.0586C15.371 10.9158 15.3643 10.9062 15.2385 10.9062C15.1221 10.9062 15.1002 10.8844 15.0734 10.7414C15.0563 10.6507 15.0549 10.5565 15.07 10.5319C15.0852 10.5074 15.3499 10.3061 15.6582 10.0846L16.2189 9.68187V9.36739V9.0529L16.5111 8.89221C16.7816 8.74348 16.8301 8.73246 17.1629 8.74381C17.4668 8.75417 17.5576 8.73828 17.7496 8.64111C17.9308 8.54932 18.0808 8.51956 18.4923 8.49382C18.7759 8.47606 19.0449 8.45117 19.0899 8.43856C19.1624 8.41822 19.172 8.45356 19.172 8.74146V9.06739L19.686 9.19489C19.9687 9.26506 20.2244 9.35182 20.2542 9.38778C20.284 9.42373 20.3586 9.45312 20.4199 9.45312C20.5154 9.45312 20.5314 9.43029 20.5314 9.29407C20.5314 9.10896 20.5843 9.07812 20.9017 9.07812C21.0877 9.07812 21.1647 9.10864 21.3751 9.26562L21.6264 9.45312H22.0867C22.4497 9.45312 22.547 9.43929 22.547 9.38759C22.547 9.35154 22.4809 9.14061 22.4001 8.91884L22.2532 8.51562H21.9596C21.6823 8.51562 21.658 8.50648 21.5206 8.34992C21.4061 8.21956 21.3751 8.14128 21.3751 7.98275C21.3751 7.73262 21.3492 7.70548 21.1894 7.78812C21.0887 7.8402 21.0449 7.91834 20.9782 8.16495L20.8939 8.47611L20.694 8.27984C20.5252 8.11418 20.4893 8.04551 20.4635 7.83922C20.4354 7.61445 20.4109 7.57545 20.1571 7.35214C19.9034 7.12878 19.8626 7.10937 19.6467 7.10937H19.412L19.4833 7.31839C19.5454 7.50064 19.5927 7.54873 19.8534 7.69451C20.164 7.86828 20.2588 7.95804 20.1646 7.9894C20.1343 7.99953 20.1095 8.08789 20.1095 8.18572C20.1095 8.3382 20.0899 8.37176 19.9723 8.42042C19.8364 8.47676 19.6719 8.45412 19.5587 8.36351C19.4535 8.27937 19.4967 8.23437 19.6826 8.23437C19.8098 8.23437 19.8742 8.21065 19.8951 8.15609C19.9116 8.11301 19.9068 8.06557 19.8844 8.05062C19.275 7.64393 19.0805 7.49154 19.0572 7.40234C19.0209 7.26364 18.9817 7.26917 18.8222 7.43562C18.7043 7.55862 18.6669 7.57132 18.4928 7.54746L18.2964 7.52056L18.0076 7.90381C17.8488 8.11456 17.7189 8.3179 17.7189 8.35559C17.7189 8.39332 17.6648 8.44475 17.5986 8.46992C17.4036 8.54407 16.8514 8.52518 16.6689 8.43814C16.5186 8.36647 16.5033 8.33904 16.4658 8.07486C16.4318 7.8357 16.4584 7.57775 16.5258 7.49295C16.5323 7.48479 16.6505 7.45208 16.7884 7.42025C16.986 7.37468 17.0988 7.3745 17.3204 7.41931C17.4751 7.45062 17.6067 7.47125 17.6129 7.46515C17.6191 7.45906 17.6373 7.38809 17.6535 7.30742C17.6795 7.17725 17.6688 7.15723 17.5588 7.12962C17.474 7.10834 17.4413 7.07426 17.4555 7.0219C17.4669 6.97976 17.4891 6.8689 17.5048 6.77548C17.5331 6.60725 17.536 6.60532 17.811 6.57425C18.0873 6.54293 18.0894 6.54153 18.2999 6.24664C18.4893 5.98118 18.5314 5.94776 18.7055 5.92437C18.8124 5.91007 19.0149 5.91022 19.1556 5.92475L19.4114 5.95114L19.3791 5.6982C19.3613 5.55912 19.3421 5.4395 19.3363 5.43242C19.3306 5.42534 19.2285 5.46125 19.1095 5.51225L18.8932 5.60501L18.8008 5.39623C18.7274 5.2302 18.6848 5.1875 18.5924 5.1875C18.501 5.1875 18.4696 5.15698 18.4447 5.04373C18.4028 4.85309 18.5041 4.74289 18.8754 4.57526C19.1519 4.45048 19.3193 4.2785 19.2349 4.20603C17.6163 2.81628 15.6788 1.92547 13.5684 1.60067C12.9959 1.51254 11.6679 1.47617 11.0516 1.53176ZM5.76573 4.10937C5.76573 4.13515 5.71299 4.15625 5.64854 4.15625C5.55479 4.15625 5.53135 4.17968 5.53135 4.27343C5.53135 4.38457 5.54499 4.39062 5.79573 4.39062C6.07187 4.39062 6.18291 4.32064 6.1861 4.14453C6.18732 4.07834 6.14687 4.0625 5.97666 4.0625C5.86065 4.0625 5.76573 4.08359 5.76573 4.10937ZM5.75401 4.72826C5.65327 4.75498 5.57823 4.80392 5.57823 4.84282C5.57823 4.89636 5.64024 4.90775 5.87119 4.89678C6.13435 4.88422 6.16571 4.87208 6.17916 4.77734C6.19177 4.68847 6.1733 4.67262 6.06198 4.6767C5.98927 4.67937 5.85071 4.70258 5.75401 4.72826ZM20.0176 5.22265L20.0157 5.46879L19.7811 5.59765C19.4346 5.78806 19.4807 5.86395 19.9531 5.88073C20.3286 5.89404 20.3365 5.89198 20.4331 5.75632C20.4871 5.68043 20.5308 5.60051 20.5302 5.57872C20.5296 5.55692 20.4144 5.4125 20.2742 5.25781L20.0194 4.97656L20.0176 5.22265ZM17.2164 5.23531C17.1591 5.25832 17.0979 5.3345 17.0803 5.40453C17.0541 5.50915 17.0726 5.55129 17.1844 5.64101C17.2592 5.70106 17.3574 5.76209 17.4024 5.77667C17.4965 5.80709 17.5171 6.03082 17.4259 6.03195C17.3139 6.03336 17.2585 6.10282 17.2244 6.28461L17.1901 6.46742L17.5723 6.44122C17.898 6.4189 17.9681 6.39875 18.0461 6.30518C18.1644 6.16311 18.1643 6.16217 18.0029 6.07034C17.9274 6.0274 17.8146 5.91139 17.7522 5.81253C17.6402 5.63511 17.6146 5.56934 17.5583 5.3164C17.5276 5.17864 17.4204 5.15323 17.2164 5.23531ZM16.7899 5.69618C16.7274 5.71376 16.6294 5.81811 16.5593 5.94167C16.3372 6.33303 16.5351 6.43315 16.9567 6.14272C17.1357 6.01948 17.2032 5.94289 17.2032 5.86311C17.2032 5.69342 17.0375 5.62648 16.7899 5.69618ZM6.63807 5.9045C6.55876 5.96248 6.55871 5.97303 6.63723 6.1377C6.70838 6.2869 6.7358 6.30636 6.84029 6.28184C7.00229 6.24382 7.01884 6.22376 7.05634 6.01953L7.08868 5.84375H6.90488C6.80382 5.84375 6.68377 5.87107 6.63807 5.9045ZM2.57237 6.82845C2.2906 7.31529 2.2846 7.3639 2.54893 7.01731C2.64652 6.88934 2.71913 6.74707 2.71032 6.70123C2.69874 6.64104 2.6603 6.67643 2.57237 6.82845ZM7.3771 6.71248C7.01963 6.86923 7.19368 7.01562 7.73752 7.01562C8.05304 7.01562 8.0626 7.01215 8.0626 6.89843C8.0626 6.83398 8.04151 6.78125 8.01573 6.78125C7.98994 6.78125 7.96885 6.74961 7.96885 6.71093C7.96885 6.61976 7.5863 6.62075 7.3771 6.71248ZM8.20323 6.89403C8.20323 6.9845 8.22216 7.00189 8.29885 6.98182C8.38923 6.9582 8.39012 6.95201 8.31502 6.86904C8.21284 6.75612 8.20323 6.75828 8.20323 6.89403ZM11.0456 7.08593C11.0286 7.13042 10.9567 7.15625 10.8497 7.15625C10.7181 7.15625 10.6841 7.17326 10.6959 7.23326C10.7042 7.27559 10.7447 7.33147 10.7858 7.35734C10.8853 7.41996 11.1095 7.36039 11.1095 7.27137C11.1095 7.23256 11.1622 7.18076 11.2267 7.15625C11.2911 7.13173 11.3439 7.09006 11.3439 7.06367C11.3439 6.98726 11.0758 7.00728 11.0456 7.08593ZM8.6461 7.11331C8.59501 7.196 8.69766 7.2665 8.79216 7.21362C8.86862 7.17087 8.86744 7.16384 8.77608 7.1149C8.70535 7.07707 8.66879 7.07661 8.6461 7.11331ZM7.30126 7.23828C7.14826 7.39915 7.0862 7.61843 7.17737 7.67618C7.29615 7.75142 7.34091 7.72095 7.56165 7.41406L7.78084 7.10937H7.60238C7.46865 7.10937 7.39313 7.14172 7.30126 7.23828ZM8.01573 7.27343C8.01573 7.39939 8.03509 7.4375 8.09902 7.4375C8.2253 7.4375 8.39073 7.30306 8.39073 7.20045C8.39073 7.12545 8.35763 7.10937 8.20323 7.10937C8.02018 7.10937 8.01573 7.11326 8.01573 7.27343ZM10.3209 7.21362C10.2209 7.31356 10.2552 7.4375 10.3829 7.4375C10.4663 7.4375 10.5001 7.41214 10.5001 7.34946C10.5001 7.22478 10.3918 7.1427 10.3209 7.21362ZM8.48448 7.43365C8.48448 7.62003 8.5366 7.67187 8.72387 7.67187C8.88399 7.67187 8.90635 7.65842 8.90635 7.56209C8.90635 7.47528 8.86848 7.44097 8.72513 7.39803C8.48926 7.32739 8.48448 7.32809 8.48448 7.43365ZM7.99229 7.61454C7.91495 7.65893 7.84899 7.69531 7.84576 7.69531C7.84252 7.69531 7.82527 7.74275 7.80746 7.80078C7.77765 7.89772 7.78988 7.90625 7.95845 7.90625C8.16315 7.90625 8.29698 7.79825 8.29698 7.63301C8.29698 7.50837 8.18855 7.50176 7.99229 7.61454ZM21.7501 7.78906C21.7501 8.04425 21.7515 8.04687 21.8907 8.04687C21.9681 8.04687 22.0314 8.02634 22.0314 8.00126C22.0314 7.92429 21.8275 7.53125 21.7876 7.53125C21.767 7.53125 21.7501 7.64726 21.7501 7.78906ZM0.0184762 12.5937C0.0184762 12.9418 0.0258356 13.0842 0.0348825 12.9102C0.0438825 12.7362 0.0438825 12.4514 0.0348825 12.2773C0.0258356 12.1033 0.0184762 12.2457 0.0184762 12.5937Z" fill="#697EED"/>
</svg>
