<svg width="26" height="21" viewBox="0 0 26 21" fill="none" xmlns="http://www.w3.org/2000/svg">
<path fill-rule="evenodd" clip-rule="evenodd" d="M2.43319 9.13529C9.03087 6.36259 13.423 4.5202 15.6286 3.62637C21.9058 1.0908 23.2253 0.653007 24.0736 0.634766C24.2621 0.634766 24.6768 0.671249 24.9596 0.890146C25.1858 1.07256 25.2423 1.3097 25.28 1.49212C25.3177 1.67453 25.3554 2.0576 25.3177 2.34946C24.9784 5.81534 23.5081 14.2247 22.754 18.0919C22.4336 19.7336 21.8115 20.2808 21.2083 20.3356C19.8888 20.445 18.8897 19.4964 17.6267 18.6938C15.6286 17.4352 14.5164 16.6508 12.5748 15.4104C10.3316 13.9875 11.783 13.2031 13.0649 11.9262C13.4042 11.5979 19.1913 6.49028 19.3044 6.03424C19.3233 5.97952 19.3233 5.76062 19.1913 5.65117C19.0593 5.54172 18.8708 5.5782 18.72 5.61469C18.5127 5.65117 15.3458 7.69422 9.18167 11.7256C8.27685 12.3275 7.46628 12.6194 6.73111 12.6012C5.92053 12.5829 4.37479 12.1634 3.20606 11.7985C1.79227 11.3608 0.66124 11.1236 0.755493 10.3575C0.812044 9.95616 1.37756 9.55485 2.43319 9.13529Z" fill="white"/>
</svg>
